<?xml version="1.0" encoding="utf-8"?>
<!-- Generator: Adobe Illustrator 22.0.1, SVG Export Plug-In . SVG Version: 6.00 Build 0)  -->
<svg version="1.1" id="Layer_1" xmlns="http://www.w3.org/2000/svg" xmlns:xlink="http://www.w3.org/1999/xlink" x="0px" y="0px"
	 viewBox="0 0 1242 1099.7" style="enable-background:new 0 0 1242 1099.7;" xml:space="preserve">
<style type="text/css">
	.st0{fill:#383D93;}
	.st1{fill:#8585E0;}
	.st2{fill:#FFFFFF;}
</style>
<path class="st0" d="M610.8,383.7c-0.8-0.1-1.5-0.3-2.3-0.4C609.3,383.5,610.1,383.6,610.8,383.7z M581.7,764.1
	c1-0.1,2.2-0.3,3.5-0.5C583.9,763.8,582.7,764,581.7,764.1z M615,384.5c-0.8-0.2-1.6-0.3-2.3-0.5C613.4,384.2,614.2,384.4,615,384.5
	z M588.1,763.1c1-0.2,2.1-0.4,3.3-0.7C590.2,762.6,589.1,762.9,588.1,763.1z M605.4,758.3c2.2-0.8,4.6-1.7,6.9-2.7
	C610,756.6,607.6,757.5,605.4,758.3z M612.3,755.6c1.6-0.7,3.2-1.4,4.8-2.2C615.5,754.2,613.9,754.9,612.3,755.6z M602.9,382.4
	c-0.7-0.1-1.4-0.2-2.1-0.3C601.5,382.2,602.2,382.3,602.9,382.4z M606.8,383c-0.7-0.1-1.5-0.2-2.2-0.4
	C605.3,382.8,606.1,382.9,606.8,383z M599,760.4c-2.1,0.6-4,1.1-5.8,1.6C595,761.5,596.9,761,599,760.4z M649.5,394
	c1.7,0.6,3.3,1.2,5,1.8C652.8,395.1,651.1,394.5,649.5,394z M644.6,392.3c1.5,0.5,2.9,1,4.4,1.5C647.5,393.3,646,392.8,644.6,392.3z
	 M655.7,396.2c1.3,0.5,2.5,1,3.8,1.5C658.2,397.2,656.9,396.7,655.7,396.2z M619.3,385.4c-0.8-0.2-1.6-0.4-2.4-0.5
	C617.7,385.1,618.5,385.3,619.3,385.4z M637.9,390.2c-1-0.3-1.9-0.6-2.9-0.9C635.9,389.6,636.9,389.9,637.9,390.2z M623.8,386.5
	c-0.8-0.2-1.7-0.4-2.5-0.6C622.1,386.1,622.9,386.3,623.8,386.5z M633,388.8c-0.9-0.3-1.8-0.5-2.7-0.7
	C631.2,388.3,632.1,388.6,633,388.8z M628.3,387.6c-0.9-0.2-1.7-0.4-2.6-0.7C626.6,387.1,627.5,387.4,628.3,387.6z M595.6,381.4
	c-0.7-0.1-1.3-0.2-2-0.2C594.3,381.2,595,381.3,595.6,381.4z M576.2,379.8c0.7,0,1.4,0.1,2.1,0.1
	C577.6,379.8,576.9,379.8,576.2,379.8z M570.1,379.6c-0.2,0-0.4,0-0.6,0C569.7,379.6,569.8,379.6,570.1,379.6z M578.7,379.9
	c0.7,0,1.3,0.1,2.1,0.1C580,379.9,579.3,379.9,578.7,379.9z M599.2,381.9c-0.7-0.1-1.4-0.2-2-0.3
	C597.8,381.7,598.5,381.8,599.2,381.9z M572.2,379.7c-0.3,0-0.6,0-0.8,0C571.6,379.6,571.9,379.7,572.2,379.7z M570.4,379.6
	c-0.1,0-0.1,0-0.1,0c0.2,0,0.4,0,0.6,0C570.8,379.6,570.6,379.6,570.4,379.6z M583.3,380.2c-0.6,0-1.2-0.1-1.8-0.1
	C582.1,380.1,582.7,380.1,583.3,380.2z M574.4,379.7c0.5,0,1.1,0,1.7,0.1C575.5,379.7,574.9,379.7,574.4,379.7z M573.9,379.7
	c-0.4,0-0.8,0-1.1,0C573.1,379.7,573.5,379.7,573.9,379.7z M569,379.7c0.1,0,0.2,0,0.4,0C569.2,379.7,569.1,379.7,569,379.7z
	 M624.6,749.6c1.7-0.9,3.4-1.9,5.1-3C628,747.7,626.3,748.7,624.6,749.6z M664.5,399.8c-1.1-0.5-2.2-0.9-3.2-1.4
	C662.4,398.9,663.4,399.4,664.5,399.8z M617.2,753.4c1.6-0.8,3.3-1.6,4.9-2.5C620.5,751.8,618.8,752.7,617.2,753.4z M592.3,381
	c-0.6-0.1-1.3-0.1-1.9-0.2C591,380.9,591.6,380.9,592.3,381z M685.1,650.9c-0.6,5.4-1.4,10.5-2.4,15.4
	C683.7,661.4,684.5,656.3,685.1,650.9z M586.1,380.4c-0.6-0.1-1.2-0.1-1.8-0.1C584.9,380.3,585.5,380.3,586.1,380.4z M589.1,380.7
	c-0.6-0.1-1.2-0.1-1.8-0.2C587.8,380.5,588.4,380.6,589.1,380.7z M629.7,746.6c3.4-2.1,6.8-4.5,10.1-7.1
	C636.5,742.1,633.1,744.5,629.7,746.6z M639.7,390.8c1.1,0.3,2.2,0.7,3.3,1C641.9,391.4,640.8,391.1,639.7,390.8z M697.4,417.4
	c0.9,0.6,1.8,1.2,2.8,1.8C699.2,418.6,698.3,418,697.4,417.4z M692.3,414.2c0.9,0.6,1.9,1.1,2.8,1.7
	C694.2,415.3,693.2,414.7,692.3,414.2z M676.9,405.6c1,0.5,1.9,1,2.9,1.5C678.8,406.6,677.9,406.1,676.9,405.6z M687.2,411.1
	c0.9,0.5,1.9,1.1,2.8,1.6C689.1,412.2,688.1,411.7,687.2,411.1z M702.5,420.8c0.9,0.6,1.8,1.3,2.7,1.9
	C704.3,422.1,703.4,421.4,702.5,420.8z M684.9,409.8c-1-0.5-1.9-1-2.9-1.6C683,408.8,684,409.3,684.9,409.8z M639.8,739.5
	c16.8-13.2,32.5-33.2,40.7-63.7C672.3,706.3,656.6,726.3,639.8,739.5z M724.6,438.7L724.6,438.7c-0.8-0.8-1.6-1.5-2.4-2.2
	C723,437.1,723.8,437.9,724.6,438.7z M568.8,379.7c0,0,0.1,0,0.1,0C568.8,379.7,568.8,379.7,568.8,379.7l-471.8,0v496.6h0V379.7
	H568.8z M717.3,432.2c0.9,0.8,1.8,1.5,2.7,2.3C719.1,433.7,718.2,433,717.3,432.2z M710.2,426.4c-0.9-0.7-1.8-1.4-2.7-2.1
	C708.4,425.1,709.3,425.7,710.2,426.4z M712.4,428.2c0.9,0.7,1.8,1.4,2.7,2.2C714.2,429.6,713.3,428.9,712.4,428.2z M671.7,403.1
	c1,0.5,2,0.9,2.9,1.4C673.7,404,672.7,403.5,671.7,403.1z M666.5,400.7c1,0.4,2,0.9,3,1.4C668.6,401.6,667.6,401.2,666.5,400.7z
	 M334,876.3h95.4V503.8H334V876.3z M744.5,460.5c-1.3-1.7-2.6-3.3-4-4.9C741.9,457.2,743.2,458.8,744.5,460.5z M724.8,438.9
	c-0.1-0.1-0.2-0.2-0.3-0.2v0C724.6,438.7,724.7,438.8,724.8,438.9z M736.1,450.4c1,1.1,2,2.3,3,3.4
	C738.1,452.7,737.1,451.5,736.1,450.4z M774.1,513.3c-0.5-1.4-1.1-2.8-1.6-4.1C773.1,510.6,773.6,512,774.1,513.3z M780.8,533.1
	c0.4,1.5,0.9,3,1.3,4.6C781.6,536.2,781.2,534.6,780.8,533.1z M731.5,445.5c0.9,1,1.8,2,2.8,3C733.4,447.5,732.5,446.5,731.5,445.5z
	 M792.3,624.6c0-1.9,0-2.9,0-2.9c0-3.8-0.1-7.5-0.2-11.2c0.1,3.7,0.2,7.4,0.2,11.2C792.3,621.8,792.3,622.8,792.3,624.6z
	 M778.2,524.9c0.5,1.5,0.9,2.9,1.4,4.4C779.2,527.8,778.7,526.3,778.2,524.9z M777,521.2c-0.5-1.4-1-2.9-1.5-4.3
	C776,518.3,776.5,519.7,777,521.2z M922.6,379.6v198.7L813.2,379.6h-88.7v49c41.3,36.1,74.7,95.4,74.7,192.9
	c0.1,5.1,2.6,126-71.6,202.3c-1,1-2,2-3,3v49.4h95.6V673.7l98.9,202.5h98.9V379.6H922.6z M729.6,443.5c-0.9-0.9-1.8-1.8-2.7-2.7
	C727.8,441.7,728.7,442.6,729.6,443.5z M784.2,546.4c-0.4-1.6-0.8-3.2-1.1-4.8C783.5,543.2,783.8,544.8,784.2,546.4z M769.3,501.8
	c0.6,1.3,1.2,2.6,1.8,4C770.5,504.5,769.9,503.1,769.3,501.8z M790.9,589.2c0.2,2.1,0.3,4.2,0.5,6.3
	C791.2,593.4,791.1,591.3,790.9,589.2z M791.6,599.7c0.1,2.4,0.2,4.8,0.3,7.2C791.9,604.5,791.8,602.1,791.6,599.7z M790.5,584.9
	c-0.2-1.9-0.4-3.9-0.6-5.8C790.1,581,790.3,582.9,790.5,584.9z M767.8,498.6c-0.6-1.3-1.3-2.6-1.9-3.9
	C766.6,496,767.2,497.3,767.8,498.6z M764.4,491.6c-0.7-1.3-1.3-2.5-2-3.8C763.1,489.1,763.8,490.4,764.4,491.6z M789.3,574.7
	c-0.2-1.8-0.5-3.7-0.7-5.5C788.8,571,789.1,572.9,789.3,574.7z M754.7,474.8c0.8,1.3,1.6,2.5,2.4,3.8
	C756.3,477.3,755.5,476,754.7,474.8z M750.3,468.3c1,1.4,1.9,2.7,2.8,4.1C752.2,471,751.3,469.7,750.3,468.3z M787.9,564.9
	c-0.3-1.7-0.6-3.5-0.9-5.2C787.3,561.4,787.6,563.2,787.9,564.9z M749.1,466.6c-1.4-1.9-2.8-3.8-4.2-5.6
	C746.3,462.8,747.7,464.6,749.1,466.6z M785.1,550.5c0.4,1.6,0.7,3.3,1,5C785.8,553.8,785.5,552.2,785.1,550.5z M760.8,485
	c-0.7-1.3-1.5-2.5-2.2-3.7C759.4,482.5,760.1,483.7,760.8,485z M568.9,379.7C568.9,379.7,569,379.7,568.9,379.7
	C569,379.7,568.9,379.7,568.9,379.7z M571.4,379.6c-0.2,0-0.3,0-0.5,0C571.1,379.6,571.2,379.6,571.4,379.6z M570.1,379.6
	c0.1,0,0.1,0,0.2,0C570.2,379.6,570.1,379.6,570.1,379.6z M569.5,379.6c-0.1,0-0.1,0-0.2,0C569.4,379.6,569.4,379.6,569.5,379.6z
	 M695.1,415.9c0.8,0.5,1.5,1,2.3,1.5C696.6,416.9,695.9,416.4,695.1,415.9z M644.6,392.3c-0.5-0.2-1.1-0.3-1.6-0.5
	C643.5,392,644.1,392.1,644.6,392.3z M628.3,387.6c0.7,0.2,1.3,0.3,2,0.5C629.7,387.9,629,387.7,628.3,387.6z M700.2,419.2
	c0.8,0.5,1.5,1,2.3,1.6C701.7,420.3,700.9,419.7,700.2,419.2z M639.7,390.8c-0.6-0.2-1.2-0.4-1.9-0.6
	C638.5,390.4,639.1,390.6,639.7,390.8z M633,388.8c0.6,0.2,1.3,0.4,1.9,0.5C634.3,389.2,633.7,389,633,388.8z M712.4,428.2
	c-0.7-0.6-1.5-1.2-2.2-1.7C710.9,427,711.7,427.6,712.4,428.2z M707.5,424.4c-0.8-0.6-1.5-1.1-2.3-1.7
	C706,423.3,706.7,423.8,707.5,424.4z M619.3,385.4c0.6,0.1,1.3,0.3,1.9,0.4C620.6,385.7,620,385.6,619.3,385.4z M625.7,386.9
	c-0.7-0.2-1.3-0.3-2-0.5C624.4,386.6,625.1,386.8,625.7,386.9z M659.5,397.7c0.6,0.2,1.2,0.5,1.8,0.7
	C660.7,398.2,660.1,398,659.5,397.7z M717.3,432.2c-0.7-0.6-1.5-1.2-2.2-1.8C715.9,431,716.6,431.6,717.3,432.2z M682.1,408.3
	c-0.8-0.4-1.5-0.8-2.3-1.2C680.6,407.5,681.3,407.9,682.1,408.3z M692.3,414.2c-0.8-0.5-1.5-0.9-2.3-1.4
	C690.8,413.2,691.5,413.7,692.3,414.2z M676.9,405.6c-0.7-0.4-1.5-0.8-2.2-1.1C675.4,404.9,676.2,405.2,676.9,405.6z M666.5,400.7
	c-0.7-0.3-1.4-0.6-2-0.9C665.2,400.1,665.9,400.4,666.5,400.7z M572.7,379.7c-0.2,0-0.3,0-0.5,0
	C572.4,379.7,572.6,379.7,572.7,379.7z M649.5,394c-0.2-0.1-0.3-0.1-0.5-0.2C649.1,393.8,649.3,393.9,649.5,394z M684.9,409.8
	c0.8,0.4,1.5,0.9,2.3,1.3C686.4,410.7,685.7,410.3,684.9,409.8z M655.7,396.2c-0.4-0.2-0.8-0.3-1.2-0.5
	C654.9,395.9,655.3,396.1,655.7,396.2z M669.6,402.1c0.7,0.3,1.4,0.7,2.2,1C671,402.7,670.3,402.4,669.6,402.1z M600.8,382.1
	c-0.5-0.1-1.1-0.2-1.6-0.2C599.7,381.9,600.3,382,600.8,382.1z M602.9,382.4c0.6,0.1,1.1,0.2,1.7,0.3
	C604.1,382.6,603.5,382.5,602.9,382.4z M584.3,380.2c-0.3,0-0.7-0.1-1-0.1C583.6,380.2,584,380.2,584.3,380.2z M608.6,383.3
	c-0.6-0.1-1.2-0.2-1.8-0.3C607.4,383.1,608,383.2,608.6,383.3z M587.2,380.5c-0.4,0-0.8-0.1-1.2-0.1
	C586.5,380.4,586.9,380.5,587.2,380.5z M590.4,380.8c-0.4,0-0.9-0.1-1.3-0.1C589.5,380.7,589.9,380.7,590.4,380.8z M595.6,381.4
	c0.5,0.1,1,0.1,1.5,0.2C596.7,381.5,596.1,381.4,595.6,381.4z M612.7,384.1c-0.6-0.1-1.2-0.2-1.8-0.3
	C611.4,383.8,612.1,384,612.7,384.1z M593.7,381.2c-0.5-0.1-0.9-0.1-1.4-0.2C592.7,381,593.2,381.1,593.7,381.2z M576.2,379.8
	c0,0-0.1,0-0.1,0C576.1,379.8,576.2,379.8,576.2,379.8z M580.7,380c0.2,0,0.5,0,0.8,0.1C581.2,380,581,380,580.7,380z M722.1,436.4
	c-0.7-0.6-1.4-1.3-2.1-1.9C720.7,435.1,721.4,435.8,722.1,436.4z M573.9,379.7c0.2,0,0.3,0,0.5,0C574.2,379.7,574,379.7,573.9,379.7
	z M615,384.5c0.6,0.1,1.3,0.3,1.9,0.4C616.3,384.8,615.6,384.7,615,384.5z M578.4,379.9c0.1,0,0.2,0,0.3,0
	C578.6,379.9,578.5,379.9,578.4,379.9z M766,494.7c-0.5-1-1-2.1-1.5-3.1C764.9,492.7,765.4,493.7,766,494.7z M750.3,468.3
	c-0.4-0.6-0.8-1.2-1.2-1.8C749.5,467.1,749.9,467.7,750.3,468.3z M758.6,481.2c-0.5-0.9-1-1.8-1.6-2.7
	C757.6,479.4,758.1,480.3,758.6,481.2z M740.5,455.6c-0.5-0.6-1-1.1-1.5-1.7C739.6,454.4,740.1,455,740.5,455.6z M744.9,460.9
	c-0.1-0.2-0.2-0.3-0.4-0.5C744.6,460.6,744.8,460.8,744.9,460.9z M736.1,450.4c-0.6-0.7-1.2-1.3-1.8-1.9
	C734.9,449.1,735.5,449.8,736.1,450.4z M754.7,474.8c-0.5-0.8-1-1.6-1.5-2.4C753.7,473.2,754.2,474,754.7,474.8z M724.8,438.9
	c0.7,0.7,1.4,1.3,2.1,2C726.2,440.2,725.5,439.6,724.8,438.9z M731.5,445.5c-0.7-0.7-1.3-1.3-2-2
	C730.2,444.2,730.9,444.8,731.5,445.5z M762.4,487.8c-0.5-1-1-1.9-1.6-2.9C761.4,485.9,761.9,486.9,762.4,487.8z M779.6,713.6
	c-2.1,7.7-4.6,15.5-7.5,23.5C775.1,729.2,777.5,721.3,779.6,713.6z M791.3,595.5c0.1,1.4,0.2,2.8,0.3,4.2
	C791.6,598.3,791.4,596.9,791.3,595.5z M792.3,624.6c0,8.9-0.7,37.3-8.4,72.1C791.5,662,792.3,633.5,792.3,624.6z M792,607
	c0,1.2,0.1,2.4,0.1,3.6C792.1,609.3,792,608.2,792,607z M783.8,696.7c-1.2,5.5-2.6,11.1-4.2,16.9
	C781.2,707.9,782.6,702.2,783.8,696.7z M752.9,778.6c-2.3,3.9-4.6,7.7-7.1,11.5C748.3,786.3,750.7,782.5,752.9,778.6z M733.5,806.7
	c2.9-3.6,5.7-7.3,8.4-11C739.3,799.5,736.5,803.1,733.5,806.7z M765,755c2.7-6,5-11.9,7.2-17.9C770,743,767.6,749,765,755z M765,755
	c-1.8,4-3.6,7.9-5.7,11.9C761.3,762.9,763.2,758.9,765,755z M783.1,541.7c-0.3-1.3-0.7-2.7-1-4C782.4,539,782.7,540.3,783.1,541.7z
	 M779.6,529.3c0.4,1.3,0.8,2.5,1.1,3.8C780.4,531.8,780,530.5,779.6,529.3z M778.2,524.9c-0.4-1.2-0.8-2.5-1.2-3.7
	C777.4,522.4,777.8,523.6,778.2,524.9z M790.9,589.2c-0.1-1.5-0.3-2.9-0.4-4.4C790.6,586.3,790.8,587.7,790.9,589.2z M775.5,516.9
	c-0.4-1.2-0.9-2.4-1.3-3.5C774.6,514.5,775,515.7,775.5,516.9z M772.5,509.2c-0.5-1.1-0.9-2.3-1.4-3.4
	C771.6,506.9,772,508.1,772.5,509.2z M788.5,569.2c-0.2-1.4-0.5-2.9-0.7-4.3C788.1,566.4,788.3,567.8,788.5,569.2z M789.9,579.1
	c-0.2-1.5-0.4-2.9-0.6-4.4C789.5,576.1,789.7,577.6,789.9,579.1z M785.1,550.5c-0.3-1.4-0.6-2.7-0.9-4.1
	C784.5,547.8,784.8,549.2,785.1,550.5z M787,559.7c-0.3-1.4-0.5-2.8-0.8-4.2C786.4,556.9,786.7,558.3,787,559.7z M792.3,624.6
	c0,8.9-0.7,37.3-8.4,72.1c-1.2,5.5-2.6,11.1-4.2,16.9c-2.1,7.7-4.6,15.5-7.5,23.5C770,743,767.6,749,765,755
	c-1.8,4-3.6,7.9-5.7,11.9c-2,3.9-4.1,7.9-6.4,11.7c-2.3,3.9-4.6,7.7-7.1,11.5c-1.3,1.9-2.6,3.8-3.9,5.6c-2.7,3.7-5.4,7.4-8.4,11
	c-2.8,3.5-5.8,6.9-9,10.2c-32.4,34.3-80.3,59.4-151.1,59.4H478V515.5h100.1v249.1c0,0,1.3-0.1,3.6-0.4c1-0.1,2.2-0.3,3.5-0.5
	c0.9-0.2,1.9-0.3,2.9-0.5c1-0.2,2.1-0.4,3.3-0.7c0.6-0.1,1.2-0.3,1.8-0.4c1.8-0.4,3.8-1,5.8-1.6c2.1-0.6,4.2-1.3,6.4-2.1
	c2.2-0.8,4.6-1.7,6.9-2.7c1.6-0.7,3.2-1.4,4.8-2.2c1.6-0.8,3.3-1.6,4.9-2.5c0.8-0.4,1.7-0.9,2.5-1.4c1.7-0.9,3.4-1.9,5.1-3
	c3.4-2.1,6.8-4.5,10.1-7.1c16.8-13.2,32.5-33.2,40.7-63.7c0.8-3,1.6-6.2,2.2-9.5c1-4.9,1.8-10,2.4-15.4c0.8-7.2,1.2-14.8,1.2-23
	c0,0,11.6-153.2-112.9-153.2h-376v103.6h94.3v103.6h-95.4v194.4H97V379.7h471.8c0,0,0.1,0,0.1,0c0,0,0,0,0,0c0.1,0,0.2,0,0.4,0
	c0.1,0,0.1,0,0.2,0c0.2,0,0.3,0,0.6,0c0.1,0,0.1,0,0.2,0c0.2,0,0.4,0,0.6,0c0.2,0,0.3,0,0.5,0c0.3,0,0.6,0,0.8,0c0.2,0,0.3,0,0.5,0
	c0.3,0,0.7,0,1.1,0c0.2,0,0.3,0,0.5,0c0.5,0,1.1,0,1.7,0.1c0,0,0.1,0,0.1,0c0.7,0,1.4,0.1,2.1,0.1c0.1,0,0.2,0,0.3,0
	c0.7,0,1.3,0.1,2.1,0.1c0.2,0,0.5,0,0.8,0.1c0.6,0,1.2,0.1,1.8,0.1c0.3,0,0.7,0.1,1,0.1c0.6,0,1.2,0.1,1.8,0.1
	c0.4,0,0.8,0.1,1.2,0.1c0.6,0.1,1.2,0.1,1.8,0.2c0.4,0,0.9,0.1,1.3,0.1c0.6,0.1,1.3,0.1,1.9,0.2c0.5,0.1,0.9,0.1,1.4,0.2
	c0.6,0.1,1.3,0.2,2,0.2c0.5,0.1,1,0.1,1.5,0.2c0.7,0.1,1.3,0.2,2,0.3c0.5,0.1,1.1,0.2,1.6,0.2c0.7,0.1,1.4,0.2,2.1,0.3
	c0.6,0.1,1.1,0.2,1.7,0.3c0.7,0.1,1.4,0.2,2.2,0.4c0.6,0.1,1.2,0.2,1.8,0.3c0.7,0.1,1.5,0.3,2.3,0.4c0.6,0.1,1.2,0.2,1.8,0.3
	c0.8,0.1,1.6,0.3,2.3,0.5c0.6,0.1,1.3,0.3,1.9,0.4c0.8,0.2,1.6,0.3,2.4,0.5c0.6,0.1,1.3,0.3,1.9,0.4c0.8,0.2,1.7,0.4,2.5,0.6
	c0.7,0.2,1.3,0.3,2,0.5c0.9,0.2,1.7,0.4,2.6,0.7c0.7,0.2,1.3,0.3,2,0.5c0.9,0.2,1.8,0.5,2.7,0.7c0.6,0.2,1.3,0.4,1.9,0.5
	c1,0.3,1.9,0.6,2.9,0.9c0.6,0.2,1.2,0.4,1.9,0.6c1.1,0.3,2.2,0.7,3.3,1c0.5,0.2,1,0.3,1.6,0.5c1.5,0.5,2.9,1,4.4,1.5
	c0.2,0.1,0.3,0.1,0.5,0.2c1.7,0.6,3.3,1.2,5,1.8c0.4,0.2,0.8,0.3,1.2,0.5c1.3,0.5,2.5,1,3.8,1.5c0.6,0.2,1.2,0.5,1.8,0.7
	c1.1,0.4,2.2,0.9,3.2,1.4c0.7,0.3,1.4,0.6,2,0.9c1,0.4,2,0.9,3,1.4c0.7,0.3,1.4,0.7,2.2,1c1,0.5,2,0.9,2.9,1.4
	c0.7,0.4,1.5,0.7,2.2,1.1c1,0.5,1.9,1,2.9,1.5c0.8,0.4,1.5,0.8,2.3,1.2c1,0.5,1.9,1,2.9,1.6c0.8,0.4,1.5,0.9,2.3,1.3
	c0.9,0.5,1.9,1.1,2.8,1.6c0.8,0.5,1.5,0.9,2.3,1.4c0.9,0.6,1.9,1.1,2.8,1.7c0.8,0.5,1.5,1,2.3,1.5c0.9,0.6,1.8,1.2,2.8,1.8
	c0.8,0.5,1.5,1,2.3,1.6c0.9,0.6,1.8,1.3,2.7,1.9c0.8,0.5,1.5,1.1,2.3,1.7c0.9,0.7,1.8,1.4,2.7,2.1c0.7,0.6,1.5,1.2,2.2,1.7
	c0.9,0.7,1.8,1.4,2.7,2.2c0.7,0.6,1.5,1.2,2.2,1.8c0.9,0.8,1.8,1.5,2.7,2.3c0.7,0.6,1.4,1.3,2.1,1.9c0.8,0.7,1.6,1.5,2.4,2.2
	c0.1,0.1,0.2,0.2,0.3,0.2c0.7,0.7,1.4,1.3,2.1,2c0.9,0.9,1.8,1.8,2.7,2.7c0.7,0.7,1.3,1.3,2,2c0.9,1,1.8,2,2.8,3
	c0.6,0.6,1.2,1.3,1.8,1.9c1,1.1,2,2.3,3,3.4c0.5,0.6,1,1.1,1.5,1.7c1.3,1.6,2.7,3.2,4,4.9c0.1,0.2,0.2,0.3,0.4,0.5
	c1.4,1.8,2.8,3.7,4.2,5.6c0.4,0.6,0.8,1.2,1.2,1.8c1,1.4,1.9,2.7,2.8,4.1c0.5,0.8,1,1.6,1.5,2.4c0.8,1.3,1.6,2.5,2.4,3.8
	c0.5,0.9,1.1,1.8,1.6,2.7c0.7,1.2,1.5,2.5,2.2,3.7c0.5,0.9,1,1.9,1.6,2.9c0.7,1.3,1.4,2.5,2,3.8c0.5,1,1,2,1.5,3.1
	c0.6,1.3,1.3,2.6,1.9,3.9c0.5,1.1,1,2.2,1.5,3.2c0.6,1.3,1.2,2.6,1.8,4c0.5,1.1,0.9,2.3,1.4,3.4c0.6,1.4,1.1,2.7,1.6,4.1
	c0.5,1.2,0.9,2.4,1.3,3.5c0.5,1.4,1,2.8,1.5,4.3c0.4,1.2,0.8,2.5,1.2,3.7c0.5,1.5,0.9,2.9,1.4,4.4c0.4,1.3,0.8,2.5,1.1,3.8
	c0.4,1.5,0.9,3,1.3,4.6c0.4,1.3,0.7,2.6,1,4c0.4,1.6,0.8,3.2,1.1,4.8c0.3,1.4,0.6,2.7,0.9,4.1c0.4,1.6,0.7,3.3,1,5
	c0.3,1.4,0.6,2.8,0.8,4.2c0.3,1.7,0.6,3.5,0.9,5.2c0.2,1.4,0.5,2.8,0.7,4.3c0.3,1.8,0.5,3.6,0.7,5.5c0.2,1.4,0.4,2.9,0.6,4.4
	c0.2,1.9,0.4,3.9,0.6,5.8c0.1,1.5,0.3,2.9,0.4,4.4c0.2,2.1,0.3,4.2,0.5,6.3c0.1,1.4,0.2,2.8,0.3,4.2c0.1,2.4,0.2,4.8,0.3,7.2
	c0,1.2,0.1,2.4,0.1,3.6c0.1,3.7,0.2,7.4,0.2,11.2C792.3,621.8,792.3,622.8,792.3,624.6z M407.3,424.7c0-14.1-11.5-25.6-25.6-25.6
	c-14.1,0-25.6,11.5-25.6,25.6c0,14.1,11.5,25.6,25.6,25.6C395.8,450.3,407.3,438.8,407.3,424.7z"/>
<path class="st1" d="M820.2,318.9c-10.8,0.8-8.1,6.4-18.1,7.3c-10,1-30.4-0.8-41.8-1.5s-24.1-2.7-26.4-2.3
	c-2.3,0.3,4.3,2.9,12.6,4.4c8.3,1.4,34.8,1.8,37.3,4.2c2.4,2.4-11.2,6.3-22.6,10.1c-11.4,3.8-46.2,11.4-45.6,12.7
	c0.6,1.2,32.4-0.5,49.1-5.3s35.4-15.3,49.8-20.5c9.3-3.4,17-5,24.4-7C831.7,319.9,825.1,318.5,820.2,318.9z"/>
<path class="st1" d="M1174.2,272.5c2-1.6,16.5-7.9,25.7-10.3c9.1-2.4,28.9-3.1,29.1-4.2c0.2-1.1-16.7-4.5-27.9-2.2
	c-11.2,2.3-28.4,11.9-39.2,16.1c-10.8,4.2-17,4.3-25.7,9c-8.7,4.7-18.1,16.8-26.7,19.2c-8.6,2.4-25-4.9-25-4.9
	c-12-2.5-35.6-6-46.9-10c-11.3-4-18.8-8.6-20.9-14c-2.1-5.4,0.3-12.9,8.2-18.2c7.9-5.3,25.6-11.5,39.4-13.6
	c13.8-2,27.2,2.9,43.3,1.4c16.1-1.5,33.9-9.7,53.4-10.6c19.5-0.9,58.7,6,63.6,5.3c4.8-0.7-23.6-7.5-34.5-9.4
	c-10.9-1.9-29.8,0.8-31-2.1c-1.2-2.9,14.3-12,23.8-15.2c9.6-3.3,33.8-3.4,33.7-4.4s-23.9-4.1-34.1-1.9
	c-10.2,2.3-19.7,11.4-26.9,15.4c-7.2,4-9.7,6.2-16.5,8.5c-6.8,2.3-23,7-24.4,5.2c-1.4-1.8,8.4-10.6,16.1-16.1
	c7.7-5.5,19.2-11.2,29.9-16.8c10.7-5.7,23.4-13.5,34.5-17.1c11.1-3.6,30.4-3.2,32.2-4.3c1.7-1.2-11.8-3.6-21.8-2.6
	c-10,1-33.6,11.4-38.1,8.5c-4.5-2.9,3.1-17.7,10.9-25.9c7.8-8.2,35.1-21.3,35.7-23.5c0.7-2.1-22.7,4.2-31.8,10.6
	c-9.2,6.4-18.7,19.6-23.1,27.8c-4.4,8.3,2.7,15.2-3.4,21.7c-6.1,6.4-24.3,11.1-33,17c-8.7,6-7.3,15.8-19,18.8c-11.7,3-48,5.8-51-0.9
	c-3-6.8,22.4-28,33.3-39.8c10.9-11.8,20.4-22.2,32.2-30.9c11.9-8.7,26.1-11.8,39-21.1c12.9-9.4,37.5-33.5,38.2-35
	c0.7-1.5-24.4,19.7-34.1,25.9c-9.7,6.2-21.7,12.6-24.1,11.5c-2.4-1.1,5.6-10.8,9.8-18.2c4.2-7.4,15.6-24.9,15.5-26.2
	c-0.1-1.3-10.4,11.5-15.9,18.6c-5.5,7.1-10.9,17-17.2,23.7s-14.1,10.3-20.7,16.3c-6.6,6.1-15.8,21.7-18.9,20
	c-3.2-1.7-2.9-20.5-0.2-30.3c2.8-9.8,16.8-27.1,16.9-28.8s-11.5,9.9-15.9,18.6c-4.4,8.7-8.9,25.4-10.5,33.5
	c-1.6,8.1,5.1,8.1,0.8,15.1s-19,19.2-26.3,26.8c-7.3,7.6-8.5,14-17.5,18.7c-9,4.7-28.3,13.8-36.5,9.6c-8.2-4.2-17.5-22.8-12.7-34.7
	c4.7-11.9,30-25.5,41.2-36.4c11.2-11,16.7-19.5,26.1-29.3c9.5-9.8,21.4-22.5,30.8-29.5c9.4-7.1,25.9-11.6,25.5-12.8
	s-18.5,0-27.5,5.3c-9,5.3-22.4,27-26.3,26.8c-3.9-0.2,0.8-18.2,3.1-28s11.7-30.8,10.6-30.9c-1-0.2-13.2,21-16.8,30
	c-3.6,9.1-3.6,18.1-4.8,24.3c-1.2,6.2,1.6,6-2.4,12.8c-4,6.8-13.3,20.3-21.6,27.8c-8.3,7.4-23.3,20.3-28.4,16.8
	c-5.1-3.5-7.7-23-2.1-37.8c5.6-14.9,33.2-46.3,35.7-51.3c2.6-5-14.1,14.7-20.4,21.4c-6.3,6.7-16.2,23.7-17.5,18.7s1.9-35.3,9.6-48.6
	c7.7-13.3,34.2-27.4,36.8-31.1c2.6-3.7-14.6,5-21.1,8.8c-6.5,3.7-14.6,15.4-17.8,13.6c-3.2-1.7,1.8-13.6-1.3-23.9
	c-3.2-10.4-15.4-35.6-17.6-38.2c-2.2-2.6,2.3,13.6,4.3,22.5c2,8.9,7,19.4,7.9,31.2c0.9,11.7,0.7,35.6-2.4,39.3s-10.5-8.3-16.4-16.8
	s-17.3-34-18.9-34.3s5.4,22.5,9.5,32.3c4.2,9.9,12.2,20,15.4,26.9c3.2,7,3.5,8.2,3.9,15c0.4,6.7,4.1,26.5-1.7,25.4
	c-5.7-1.2-25.1-20.1-32.7-32.3c-7.6-12.2-7.7-31-13.1-41c-5.4-10-13.5-11.5-19.6-19.1c-6.1-7.7-14.3-24.9-16.9-26.9
	c-2.7-2-2.1,8.8,0.8,15.1c2.9,6.4,12.6,17.6,16.7,23.1c4.2,5.5,10.3,8.7,8.3,9.7s-21.1-5.1-20.3-3.9c0.8,1.2,20.1,4.4,25.3,11.2
	s1.9,21,6.3,30c4.4,9,21.8,22.2,19.9,24.2c-1.9,2-30.6-13.2-31.6-12.1c-1,1.1,19.6,15.1,25.7,18.8s6.1-2,11,3.2
	c4.9,5.2,16.9,16.5,18.5,28c1.7,11.5-2.8,32.2-8.5,40.9c-5.7,8.7-16.8,12.1-25.6,11.5c-8.8-0.6-21.7-6.4-27.1-14.9
	c-5.4-8.5-6.4-26.8-5.1-36.4c1.3-9.6,13.1-18.9,12.7-20.9c-0.4-2.1-11.6,4-15,8.4s-1.9,21.6-5.2,18c-3.3-3.6-11.3-27.6-14.6-39.6
	c-3.2-12-3.9-23.8-4.9-32.6s-0.2-22.1-1.1-20.2c-0.9,1.9-4.7,22-4.4,31.8c0.3,9.9,7.8,24.6,6.2,27.5c-1.6,2.8-8.9-6.9-16-10.5
	c-7.1-3.6-24.8-11.7-26.9-11.1c-2,0.5,9.6,10.6,14.7,14.3s10.8,3.6,15.9,8c5.1,4.3,9.2,7.9,14.9,18.1c5.7,10.2,12.3,30.9,19.4,43.2
	c7.1,12.2,20.4,20.3,23.3,30.3c2.9,10,0.8,23.6-6.1,29.4c-6.9,5.9-24.7,8.8-35.2,5.8c-10.5-3-23.6-12.8-27.6-23.7
	c-4-10.9,1.4-30.4,3.8-41.9c2.4-11.5,12-25.3,10.8-27.2c-1.1-1.8-13.7,7.3-17.6,16.2c-3.9,8.9-2,32.4-5.6,37
	c-3.6,4.6-8.8-1.2-16-9.2c-7.1-8-21.2-24.5-26.9-38.9c-5.7-14.4-5.3-40.4-7.3-47.6c-2-7.3-4-1.9-4.4,4c-0.4,5.9,5.5,28.6,1.8,31.5
	c-3.7,2.9-23.9-13.8-23.9-13.8c-8.2-4.8-14.8-12.2-25.5-15c-10.7-2.8-38.5-2.7-38.7-1.6c-0.2,1.1,26.5,3.8,37.5,8
	s19.9,10.1,28.8,17.4c8.9,7.3,16.3,15.3,24.6,26.4c8.3,11.1,26.3,32.7,25.4,40.3c-0.9,7.6-16.5,8.5-30.6,5.5
	c-14.1-3-38.2-20-53.8-23.5c-15.6-3.5-39,1.6-40,2.2c-1,0.7,24.2-0.1,34.1,1.9c9.9,2,14.4,5.1,25.3,10c10.8,4.9,25.6,16.5,39.7,19.3
	c14,2.8,36.2-5.8,44.6-2.5c8.4,3.3,12,17.2,5.9,22.4s-25.6,10.7-42.7,8.7c-17.1-2-54.1-19.7-59.8-20.7c-5.7-0.9,19.6,10.9,25.5,15
	c5.9,4.1,10,4.7,9.8,9.6c-0.2,4.9-12.8,19.3-11.3,19.6c1.6,0.3,11-15.2,20.6-17.6c9.6-2.4,24.4,4.5,37.2,3
	c12.8-1.6,31.7-13.2,39.4-12.3c7.8,0.8,11.5,11.6,7.1,17.3s-21.4,12.4-33,17c-4.1,1.6-8,2.8-12.1,3.9c9,1.5,18.9,2.7,27.8,0.3
	c16-4.5,35.1-25.6,49.3-29.3c14.2-3.7,26.8,0.8,35.9,6.8c9.1,6,15.1,17.1,18.6,29.3s3.5,30.8,2.5,44.1c-1.1,13.3-9,22.6-8.8,35.9
	c0.2,13.3,9.7,30.2,10.2,43.7c0.5,13.5-7.1,25-7.2,37.1c-0.1,12,6.4,22,6.6,35c0.2,10-3.8,30.5-5.1,39.2c-0.3,0.9-0.5,2.2-0.5,2.2
	s-3.8,39-4.4,51.1s2.2,33.8,2.2,33.8s1.8,24.7,0,34.9c-1.8,10.2-2.3,58.7-2.3,58.7v26.4c0,0-6.3,18.6-12.1,22.9
	c-5.8,4.3-9.1,3-11,9.6c0,0,1.6-2.5,7.6-3.3c0,0,0.8,9.9-4.9,16.7c-5.8,6.8-1.4,1.7-5.8,6.8c0,0,1.2-0.9,2.7-1
	c0,0-2.5,11.4-2.1,13.3c0,0,6.1-17,10.3-19.9c0,0,2.2,12.4,2,17.4c0,0,1.6-28.7,2.1-31s5.3-6.3,5.3-6.3s6.9-7.1,7.2-9.3
	c0,0,2.7,12.7,0.8,19c-1.9,6.2-4.3,10.5-4.3,10.5s-2.2,6.8-2.1,10.8c0.2,4.1-8.7,12-8.9,12.8c0,0,3.4-1.6,5.7-3.2
	c0,0-1.4,17-0.1,18.9c0,0,2-23.3,6.1-30.2c4.1-6.8,4.8,19.6,4.8,19.6s0-23.1-1.4-29.1c-1.3-5.9,2.6-9.7,2.6-9.7s1.7-1.9,2.4,6.7
	s2,11.1,3.5,15.8c1.5,4.7,0,30.8,0,30.8s3.9-22.7,2.9-29.7c0,0,12.1,13.8,10.7,22.6c0,0,3.2-13.6-6.3-22.4c0,0-5.2-10.2-4.4-24.7
	s-5.5-17.9-5.5-17.9s3-1.5,7.1,6.5c4.1,7.9,5.3,28.2,5.3,28.2s1.1-18.5-0.1-22.4c-1.2-3.8,7.2,9.9,7.2,9.9s4.1,17.4,1.5,22.7
	c0,0,3-4.1,2.4-9.6c0,0,7.6,10.6,6.2,20.6c0,0,3.7-15.3-4.7-25.1c0,0-1.4-3.5-1.7-7.2c-0.4-3.7,9.6,12.2,9.6,12.2s-1.6-12-9.7-19.9
	s-22.1-33.2-22.1-33.2s-2.2-53.4-0.2-60.3c2-6.9,3.1-57.1,3.1-57.1s-5.2-39.9-4.9-57.2c0.3-18.9,0-27.4-0.4-30.8
	c3.3-8.4,10.9-33,11.4-43.3c0.6-12.5-9.2-17.6-9.3-28.6c-0.1-11,8.2-23.2,8.7-37.1c0.5-13.9-6.5-32.9-5.7-46.5
	c0.8-13.5,8-18.4,10.4-34.7c2.4-16.4-1.5-49.6,4.2-63.4c5.7-13.8,17.8-17.2,29.8-19.4c12-2.1,26.2,3.6,42,6.5s36.1,9.8,53.1,10.9
	c17,1.2,32.8-6.9,49.2-4c16.4,2.9,47.5,22,49,21.3c1.5-0.7-36.6-19.4-40-25.6s20.3-9.6,19.4-11.2c-0.9-1.6-18-0.3-24.6,1.4
	c-6.6,1.6-7.6,6.3-15,8.4c-7.3,2.1-27.4,6.2-29.1,4.2c-1.7-2,10.1-11.7,19.2-16.2s21.9-9.2,34.9-10.8c13-1.6,41.5,2.1,43.3,1.4
	c1.8-0.7-25-4.9-32.7-5.8C1180.3,270.9,1172.3,274.1,1174.2,272.5z M1000,264.3c0,13.6-10.1,24.6-22.5,24.6s-22.5-11-22.5-24.6v0
	c0-13.6,10.1-24.6,22.5-24.6C989.9,239.7,1000,250.7,1000,264.3L1000,264.3z"/>
<g>
	<path d="M38.9,939.1H17.5v19.6h18.5v5.6H17.5v24.9h-7v-55.7h29.2L38.9,939.1z"/>
	<path d="M81,989.2h-5.8l-0.6-6.9c-3.2,5.2-7.2,7.9-13.4,7.9c-7.5,0-11.9-4.7-11.9-13v-30.5h6.8v29.8c0,6.1,2.1,8.3,7,8.3
		c4.9,0,8.4-3.2,11.1-7.6v-30.5H81V989.2z"/>
	<path d="M128.8,958.7v30.5H122v-29.6c0-6.6-2.7-8.7-7-8.7c-5,0-8.4,3.2-11.3,7.9v30.4h-6.8v-42.6h5.8l0.6,6.5
		c3.1-4.5,7.6-7.5,13.4-7.5C124.3,945.6,128.8,950.6,128.8,958.7z"/>
	<path d="M176.5,929.4v59.8h-5.9l-0.7-6c-2.7,4.2-7,7-12.4,7c-10.3,0-16-8.7-16-22.1c0-13,6.2-22.4,16.7-22.4
		c5.2,0,8.9,2.4,11.6,5.3v-22.4L176.5,929.4z M169.7,978v-21.1c-2.6-3.5-5.7-5.8-10.1-5.8c-6.6,0-10.9,5.6-10.9,16.9
		c0,11.3,3.7,16.8,10.1,16.8C163.8,984.7,166.8,982.2,169.7,978z"/>
	<path d="M224.1,985.4l-1.6,4.8c-4.1-0.6-6.8-2.3-7.9-6.6c-2.9,4.5-7.5,6.6-12.8,6.6c-8.4,0-13.4-5.3-13.4-12.9
		c0-9.1,6.8-13.9,18.5-13.9h7V960c0-6.3-3-8.7-9.2-8.7c-3.2,0-7.1,0.8-11.5,2.3l-1.7-5c5.1-1.9,9.7-2.9,14.4-2.9
		c10.1,0,14.7,5.2,14.7,14v19.8C220.5,983.4,221.8,984.6,224.1,985.4z M213.7,978.1v-10.2h-6.1c-7.9,0-12.1,3-12.1,9.1
		c0,5.2,2.7,8,7.8,8C207.9,985,211.2,982.6,213.7,978.1z"/>
	<path d="M264.4,950.2l-3.3,4.3c-2.8-2.1-5.6-3.2-9.2-3.2c-7,0-11.4,5.4-11.4,16.8c0,11.3,4.5,16.2,11.4,16.2c3.6,0,6.2-1.1,9.4-3.3
		l3.2,4.5c-3.6,3.1-7.9,4.7-12.8,4.7c-11.3,0-18.5-8.2-18.5-21.9c0-13.6,7-22.6,18.5-22.6C256.5,945.6,260.5,946.9,264.4,950.2z"/>
	<path d="M283,931.2c0,2.7-1.9,4.7-4.9,4.7c-2.8,0-4.8-2-4.8-4.7s1.9-4.7,4.8-4.7C281,926.5,283,928.5,283,931.2z M281.6,989.2h-6.8
		v-42.6h6.8V989.2z"/>
	<path d="M331.7,967.8c0,13.4-6.9,22.4-18.8,22.4c-11.9,0-18.7-8.7-18.7-22.2c0-13.4,6.9-22.4,18.8-22.4
		C325,945.6,331.7,954.2,331.7,967.8z M301.5,968c0,11.3,4,16.7,11.4,16.7c7.4,0,11.5-5.4,11.5-16.8c0-11.3-4-16.7-11.4-16.7
		C305.7,951.1,301.5,956.6,301.5,968z M322.4,930.5l-16.8,6.9l-2.1-3.6l15.9-9.1L322.4,930.5z"/>
	<path d="M376.5,958.7v30.5h-6.8v-29.6c0-6.6-2.7-8.7-7-8.7c-5,0-8.4,3.2-11.3,7.9v30.4h-6.8v-42.6h5.8l0.6,6.5
		c3.1-4.5,7.6-7.5,13.4-7.5C372,945.6,376.5,950.6,376.5,958.7z"/>
	<path d="M420.9,989.2h-7v-55.7h7V989.2z"/>
	<path d="M469.2,958.7v30.5h-6.8v-29.6c0-6.6-2.7-8.7-7-8.7c-5,0-8.4,3.2-11.3,7.9v30.4h-6.8v-42.6h5.8l0.6,6.5
		c3.1-4.5,7.6-7.5,13.4-7.5C464.7,945.6,469.2,950.6,469.2,958.7z"/>
	<path d="M505.6,987.3c-2.8,1.9-5.8,2.8-9.4,2.8c-7,0-11.3-4.1-11.3-11.9v-26.4h-7.4v-5.3h7.4v-9.8l6.8-0.7v10.5H502l-0.7,5.3h-9.6
		v26.1c0,4.5,1.5,6.6,5.3,6.6c2,0,3.8-0.6,5.9-1.9L505.6,987.3z"/>
	<path d="M544.1,970.2h-27.5c0.6,10.3,5.5,14.3,11.9,14.3c4.3,0,7.5-1.2,11.2-3.8l3,4c-4.1,3.3-8.8,5.3-14.7,5.3
		c-11.7,0-18.6-8.3-18.6-21.9c0-13.4,6.6-22.7,17.5-22.7c11.4,0,17.3,8,17.3,20.9C544.3,968,544.2,969.4,544.1,970.2z M537.6,964.6
		c0-8.6-3.4-13.5-10.4-13.5c-5.9,0-9.9,4.2-10.4,14.2h20.9V964.6z"/>
	<path d="M579.1,946.1l-1.2,6.6c-1.3-0.3-2.2-0.5-3.7-0.5c-5.5,0-8.6,3.9-10.4,12.2v24.7h-6.8v-42.6h5.8l0.6,8.9
		c2.3-6.6,6.2-9.9,11.5-9.9C576.4,945.6,577.9,945.8,579.1,946.1z"/>
	<path d="M619.9,958.7v30.5h-6.8v-29.6c0-6.6-2.7-8.7-7-8.7c-5,0-8.4,3.2-11.3,7.9v30.4h-6.8v-42.6h5.8l0.6,6.5
		c3.1-4.5,7.6-7.5,13.4-7.5C615.5,945.6,619.9,950.6,619.9,958.7z"/>
	<path d="M667.1,985.4l-1.6,4.8c-4.1-0.6-6.8-2.3-7.9-6.6c-2.9,4.5-7.5,6.6-12.8,6.6c-8.4,0-13.4-5.3-13.4-12.9
		c0-9.1,6.8-13.9,18.5-13.9h7V960c0-6.3-3-8.7-9.2-8.7c-3.2,0-7.1,0.8-11.5,2.3l-1.7-5c5.1-1.9,9.7-2.9,14.4-2.9
		c10.1,0,14.7,5.2,14.7,14v19.8C663.5,983.4,664.8,984.6,667.1,985.4z M656.7,978.1v-10.2h-6.1c-7.9,0-12.1,3-12.1,9.1
		c0,5.2,2.7,8,7.8,8C650.9,985,654.2,982.6,656.7,978.1z"/>
	<path d="M707.3,950.2l-3.3,4.3c-2.8-2.1-5.6-3.2-9.2-3.2c-7,0-11.4,5.4-11.4,16.8c0,11.3,4.5,16.2,11.4,16.2c3.6,0,6.2-1.1,9.4-3.3
		l3.2,4.5c-3.6,3.1-7.9,4.7-12.8,4.7c-11.3,0-18.5-8.2-18.5-21.9c0-13.6,7-22.6,18.5-22.6C699.5,945.6,703.5,946.9,707.3,950.2z"/>
	<path d="M726,931.2c0,2.7-1.9,4.7-4.9,4.7c-2.8,0-4.8-2-4.8-4.7s1.9-4.7,4.8-4.7C724,926.5,726,928.5,726,931.2z M724.6,989.2h-6.8
		v-42.6h6.8V989.2z"/>
	<path d="M774.7,967.8c0,13.4-6.9,22.4-18.8,22.4s-18.7-8.7-18.7-22.2c0-13.4,6.9-22.4,18.8-22.4C768,945.6,774.7,954.2,774.7,967.8
		z M744.5,968c0,11.3,4,16.7,11.4,16.7s11.5-5.4,11.5-16.8c0-11.3-4-16.7-11.4-16.7C748.7,951.1,744.5,956.6,744.5,968z"/>
	<path d="M819.4,958.7v30.5h-6.8v-29.6c0-6.6-2.7-8.7-7-8.7c-5,0-8.4,3.2-11.3,7.9v30.4h-6.8v-42.6h5.8l0.6,6.5
		c3.1-4.5,7.6-7.5,13.4-7.5C815,945.6,819.4,950.6,819.4,958.7z"/>
	<path d="M866.6,985.4l-1.6,4.8c-4.1-0.6-6.8-2.3-7.9-6.6c-2.9,4.5-7.5,6.6-12.8,6.6c-8.4,0-13.4-5.3-13.4-12.9
		c0-9.1,6.8-13.9,18.5-13.9h7V960c0-6.3-3-8.7-9.2-8.7c-3.2,0-7.1,0.8-11.5,2.3l-1.7-5c5.1-1.9,9.7-2.9,14.4-2.9
		c10.1,0,14.7,5.2,14.7,14v19.8C863,983.4,864.3,984.6,866.6,985.4z M856.2,978.1v-10.2h-6.1c-7.9,0-12.1,3-12.1,9.1
		c0,5.2,2.7,8,7.8,8C850.4,985,853.7,982.6,856.2,978.1z"/>
	<path d="M878.3,981.1v-51.7l6.8-0.8v52.3c0,2.3,0.8,3.6,2.8,3.6c1.1,0,1.9-0.2,2.8-0.5l1.8,4.8c-1.5,0.8-3.6,1.4-5.7,1.4
		C881.7,990.2,878.3,987,878.3,981.1z"/>
	<path d="M958.8,967.8c0,13-5.7,22.4-16.6,22.4c-4.8,0-8.7-1.8-11.3-5.1v20.4l-6.8,0.8v-59.7h5.8l0.5,5.9c3.2-4.4,7.7-6.9,12.7-6.9
		C954.2,945.6,958.8,954.3,958.8,967.8z M951.5,967.8c0-11.3-3.4-16.8-10-16.8c-4.7,0-8.3,3.3-10.6,6.8v21.2
		c2.3,3.5,5.7,5.5,9.8,5.5C947.7,984.6,951.5,979.2,951.5,967.8z"/>
	<path d="M1003.6,985.4l-1.6,4.8c-4.1-0.6-6.8-2.3-7.9-6.6c-2.9,4.5-7.5,6.6-12.8,6.6c-8.4,0-13.4-5.3-13.4-12.9
		c0-9.1,6.8-13.9,18.5-13.9h7V960c0-6.3-3-8.7-9.2-8.7c-3.2,0-7.1,0.8-11.5,2.3l-1.7-5c5.1-1.9,9.7-2.9,14.4-2.9
		c10.1,0,14.7,5.2,14.7,14v19.8C1000.1,983.4,1001.4,984.6,1003.6,985.4z M993.3,978.1v-10.2h-6.1c-7.9,0-12.1,3-12.1,9.1
		c0,5.2,2.7,8,7.8,8C987.4,985,990.8,982.6,993.3,978.1z"/>
	<path d="M1038,946.1l-1.2,6.6c-1.3-0.3-2.2-0.5-3.7-0.5c-5.5,0-8.6,3.9-10.4,12.2v24.7h-6.8v-42.6h5.8l0.6,8.9
		c2.3-6.6,6.2-9.9,11.5-9.9C1035.2,945.6,1036.8,945.8,1038,946.1z"/>
	<path d="M1076.9,985.4l-1.6,4.8c-4.1-0.6-6.8-2.3-7.9-6.6c-2.9,4.5-7.5,6.6-12.8,6.6c-8.4,0-13.4-5.3-13.4-12.9
		c0-9.1,6.8-13.9,18.5-13.9h7V960c0-6.3-3-8.7-9.2-8.7c-3.2,0-7.1,0.8-11.5,2.3l-1.7-5c5.1-1.9,9.7-2.9,14.4-2.9
		c10.1,0,14.7,5.2,14.7,14v19.8C1073.4,983.4,1074.7,984.6,1076.9,985.4z M1066.6,978.1v-10.2h-6.1c-7.9,0-12.1,3-12.1,9.1
		c0,5.2,2.7,8,7.8,8C1060.7,985,1064.1,982.6,1066.6,978.1z"/>
	<path d="M1142.3,970.2h-27.5c0.6,10.3,5.5,14.3,11.9,14.3c4.3,0,7.5-1.2,11.2-3.8l3,4c-4.1,3.3-8.8,5.3-14.7,5.3
		c-11.7,0-18.6-8.3-18.6-21.9c0-13.4,6.6-22.7,17.5-22.7c11.4,0,17.3,8,17.3,20.9C1142.5,968,1142.4,969.4,1142.3,970.2z
		 M1135.7,964.6c0-8.6-3.4-13.5-10.4-13.5c-5.9,0-9.9,4.2-10.4,14.2h20.9V964.6z"/>
	<path d="M1154.7,981.1v-51.7l6.8-0.8v52.3c0,2.3,0.8,3.6,2.8,3.6c1.1,0,1.9-0.2,2.8-0.5l1.8,4.8c-1.5,0.8-3.6,1.4-5.7,1.4
		C1158,990.2,1154.7,987,1154.7,981.1z"/>
	<path d="M52.8,1058.2c0,22.8-14.1,28.2-26,28.2h-13v-55.7h11.5C39.3,1030.7,52.8,1035.1,52.8,1058.2z M20.8,1036.3v44.5h6.6
		c8.9,0,17.9-3.9,17.9-22.6c0-19.2-9.4-21.9-18.5-21.9H20.8z"/>
	<path d="M96.9,1067.4H69.4c0.6,10.3,5.5,14.3,11.9,14.3c4.3,0,7.5-1.2,11.2-3.8l3,4c-4.1,3.3-8.8,5.3-14.7,5.3
		c-11.7,0-18.6-8.3-18.6-21.9c0-13.4,6.6-22.7,17.5-22.7c11.4,0,17.3,8,17.3,20.9C97.1,1065.2,97,1066.6,96.9,1067.4z M90.3,1061.8
		c0-8.6-3.4-13.5-10.4-13.5c-5.9,0-9.9,4.2-10.4,14.2h20.9V1061.8z"/>
	<path d="M135.2,1047.7l-2.9,4.3c-3.8-2.5-7-3.7-11.1-3.7c-5,0-8.3,2.3-8.3,6s2.4,5.3,9.5,7.1c9,2.3,14,5.8,14,13.2
		c0,8.7-7.9,12.8-16.4,12.8c-7.2,0-12.2-2.3-16-5.6l3.6-4.1c3.5,2.6,7.4,4.2,12.1,4.2c5.7,0,9.5-2.6,9.5-6.9c0-4.5-2.2-6.1-10.6-8.3
		c-9.2-2.4-12.8-6.2-12.8-12.2c0-6.7,6.4-11.6,15.1-11.6C126.8,1042.8,131.2,1044.6,135.2,1047.7z"/>
	<path d="M179.2,1082.6l-1.6,4.8c-4.1-0.6-6.8-2.3-7.9-6.6c-2.9,4.5-7.5,6.6-12.8,6.6c-8.4,0-13.4-5.3-13.4-12.9
		c0-9.1,6.8-13.9,18.5-13.9h7v-3.4c0-6.3-3-8.7-9.2-8.7c-3.2,0-7.1,0.8-11.5,2.3l-1.7-5c5.1-1.9,9.7-2.9,14.4-2.9
		c10.1,0,14.7,5.2,14.7,14v19.8C175.6,1080.6,176.9,1081.8,179.2,1082.6z M168.8,1075.3v-10.2h-6.1c-7.9,0-12.1,3-12.1,9.1
		c0,5.2,2.7,8,7.8,8C163,1082.2,166.3,1079.8,168.8,1075.3z"/>
	<path d="M213.5,1043.3l-1.2,6.6c-1.3-0.3-2.2-0.5-3.7-0.5c-5.5,0-8.6,3.9-10.4,12.2v24.7h-6.8v-42.6h5.8l0.6,8.9
		c2.3-6.6,6.2-9.9,11.5-9.9C210.8,1042.8,212.3,1043,213.5,1043.3z"/>
	<path d="M244.6,1043.3l-1.2,6.6c-1.3-0.3-2.2-0.5-3.7-0.5c-5.5,0-8.6,3.9-10.4,12.2v24.7h-6.8v-42.6h5.8l0.6,8.9
		c2.3-6.6,6.2-9.9,11.5-9.9C241.8,1042.8,243.3,1043,244.6,1043.3z"/>
	<path d="M286.9,1065c0,13.4-6.9,22.4-18.8,22.4c-11.9,0-18.7-8.7-18.7-22.2c0-13.4,6.9-22.4,18.8-22.4
		C280.2,1042.8,286.9,1051.4,286.9,1065z M256.7,1065.2c0,11.3,4,16.7,11.4,16.7c7.4,0,11.5-5.4,11.5-16.8c0-11.3-4-16.7-11.4-16.7
		C260.9,1048.3,256.7,1053.8,256.7,1065.2z"/>
	<path d="M299.2,1078.3v-51.7l6.8-0.8v52.3c0,2.3,0.8,3.6,2.8,3.6c1.1,0,1.9-0.2,2.8-0.5l1.8,4.8c-1.5,0.8-3.6,1.4-5.7,1.4
		C302.5,1087.4,299.2,1084.2,299.2,1078.3z"/>
	<path d="M322.8,1078.3v-51.7l6.8-0.8v52.3c0,2.3,0.8,3.6,2.8,3.6c1.1,0,1.9-0.2,2.8-0.5l1.8,4.8c-1.5,0.8-3.6,1.4-5.7,1.4
		C326.1,1087.4,322.8,1084.2,322.8,1078.3z"/>
	<path d="M380.3,1065c0,13.4-6.9,22.4-18.8,22.4s-18.7-8.7-18.7-22.2c0-13.4,6.9-22.4,18.8-22.4
		C373.6,1042.8,380.3,1051.4,380.3,1065z M350.1,1065.2c0,11.3,4,16.7,11.4,16.7c7.4,0,11.5-5.4,11.5-16.8c0-11.3-4-16.7-11.4-16.7
		C354.3,1048.3,350.1,1053.8,350.1,1065.2z"/>
	<path d="M447,1026.6v59.8h-5.9l-0.7-6c-2.7,4.2-7,7-12.4,7c-10.3,0-16-8.7-16-22.1c0-13,6.2-22.4,16.7-22.4c5.2,0,8.9,2.4,11.6,5.3
		v-22.4L447,1026.6z M440.2,1075.2v-21.1c-2.6-3.5-5.7-5.8-10.1-5.8c-6.6,0-10.9,5.6-10.9,16.9c0,11.3,3.7,16.8,10.1,16.8
		C434.4,1081.9,437.4,1079.4,440.2,1075.2z"/>
	<path d="M494.4,1067.4H467c0.6,10.3,5.5,14.3,11.9,14.3c4.3,0,7.5-1.2,11.2-3.8l3,4c-4.1,3.3-8.8,5.3-14.7,5.3
		c-11.7,0-18.6-8.3-18.6-21.9c0-13.4,6.6-22.7,17.5-22.7c11.4,0,17.3,8,17.3,20.9C494.6,1065.2,494.5,1066.6,494.4,1067.4z
		 M487.9,1061.8c0-8.6-3.4-13.5-10.4-13.5c-5.9,0-9.9,4.2-10.4,14.2h20.9V1061.8z"/>
	<path d="M528.5,1078.3v-51.7l6.8-0.8v52.3c0,2.3,0.8,3.6,2.8,3.6c1.1,0,1.9-0.2,2.8-0.5l1.8,4.8c-1.5,0.8-3.6,1.4-5.7,1.4
		C531.9,1087.4,528.5,1084.2,528.5,1078.3z"/>
	<path d="M584.3,1082.6l-1.6,4.8c-4.1-0.6-6.8-2.3-7.9-6.6c-2.9,4.5-7.5,6.6-12.8,6.6c-8.4,0-13.4-5.3-13.4-12.9
		c0-9.1,6.8-13.9,18.5-13.9h7v-3.4c0-6.3-3-8.7-9.2-8.7c-3.2,0-7.1,0.8-11.5,2.3l-1.7-5c5.1-1.9,9.7-2.9,14.4-2.9
		c10.1,0,14.7,5.2,14.7,14v19.8C580.7,1080.6,582,1081.8,584.3,1082.6z M573.9,1075.3v-10.2h-6.1c-7.9,0-12.1,3-12.1,9.1
		c0,5.2,2.7,8,7.8,8C568.1,1082.2,571.4,1079.8,573.9,1075.3z"/>
	<path d="M621.9,1047.7l-2.9,4.3c-3.8-2.5-7-3.7-11.1-3.7c-5,0-8.3,2.3-8.3,6s2.4,5.3,9.5,7.1c9,2.3,14,5.8,14,13.2
		c0,8.7-7.9,12.8-16.4,12.8c-7.2,0-12.2-2.3-16-5.6l3.6-4.1c3.5,2.6,7.4,4.2,12.1,4.2c5.7,0,9.5-2.6,9.5-6.9c0-4.5-2.2-6.1-10.6-8.3
		c-9.2-2.4-12.8-6.2-12.8-12.2c0-6.7,6.4-11.6,15.1-11.6C613.5,1042.8,617.9,1044.6,621.9,1047.7z"/>
	<path d="M694.7,1086.4h-9.4l-23.5-48c0.4,4.5,1,10.9,1,21.1v26.9h-6.6v-55.7h9.2l23.7,48.1c-0.2-1.5-0.9-10-0.9-16.9v-31.2h6.6
		V1086.4z"/>
	<path d="M742.5,1067.4h-27.5c0.6,10.3,5.5,14.3,11.9,14.3c4.3,0,7.5-1.2,11.2-3.8l3,4c-4.1,3.3-8.8,5.3-14.7,5.3
		c-11.7,0-18.6-8.3-18.6-21.9c0-13.4,6.6-22.7,17.5-22.7c11.4,0,17.3,8,17.3,20.9C742.7,1065.2,742.6,1066.6,742.5,1067.4z
		 M736,1061.8c0-8.6-3.4-13.5-10.4-13.5c-5.9,0-9.9,4.2-10.4,14.2H736V1061.8z"/>
	<path d="M786.6,1086.4h-5.8l-0.6-6.9c-3.2,5.2-7.2,7.9-13.4,7.9c-7.5,0-11.9-4.7-11.9-13v-30.5h6.8v29.8c0,6.1,2.1,8.3,7,8.3
		c4.9,0,8.4-3.2,11.1-7.6v-30.5h6.8V1086.4z"/>
	<path d="M824.6,1043.3l-1.2,6.6c-1.3-0.3-2.2-0.5-3.7-0.5c-5.5,0-8.6,3.9-10.4,12.2v24.7h-6.8v-42.6h5.8l0.6,8.9
		c2.3-6.6,6.2-9.9,11.5-9.9C821.8,1042.8,823.4,1043,824.6,1043.3z"/>
	<path d="M866.9,1065c0,13.4-6.9,22.4-18.8,22.4s-18.7-8.7-18.7-22.2c0-13.4,6.9-22.4,18.8-22.4
		C860.2,1042.8,866.9,1051.4,866.9,1065z M836.7,1065.2c0,11.3,4,16.7,11.4,16.7s11.5-5.4,11.5-16.8c0-11.3-4-16.7-11.4-16.7
		C840.9,1048.3,836.7,1053.8,836.7,1065.2z"/>
	<path d="M907.8,1047.4l-3.3,4.3c-2.8-2.1-5.6-3.2-9.2-3.2c-7,0-11.4,5.4-11.4,16.8c0,11.3,4.5,16.2,11.4,16.2
		c3.6,0,6.2-1.1,9.4-3.3l3.2,4.5c-3.6,3.1-7.9,4.7-12.8,4.7c-11.3,0-18.5-8.2-18.5-21.9c0-13.6,7-22.6,18.5-22.6
		C899.9,1042.8,903.9,1044.1,907.8,1047.4z"/>
	<path d="M926.4,1028.4c0,2.7-1.9,4.7-4.9,4.7c-2.8,0-4.8-2-4.8-4.7s1.9-4.7,4.8-4.7C924.5,1023.7,926.4,1025.7,926.4,1028.4z
		 M925,1086.4h-6.8v-42.6h6.8V1086.4z"/>
	<path d="M972.3,1067.4h-27.5c0.6,10.3,5.5,14.3,11.9,14.3c4.3,0,7.5-1.2,11.2-3.8l3,4c-4.1,3.3-8.8,5.3-14.7,5.3
		c-11.7,0-18.6-8.3-18.6-21.9c0-13.4,6.6-22.7,17.5-22.7c11.4,0,17.3,8,17.3,20.9C972.5,1065.2,972.4,1066.6,972.3,1067.4z
		 M965.8,1061.8c0-8.6-3.4-13.5-10.4-13.5c-5.9,0-9.9,4.2-10.4,14.2h20.9V1061.8z"/>
	<path d="M1017.1,1055.9v30.5h-6.8v-29.6c0-6.6-2.7-8.7-7-8.7c-5,0-8.4,3.2-11.3,7.9v30.4h-6.8v-42.6h5.8l0.6,6.5
		c3.1-4.5,7.6-7.5,13.4-7.5C1012.7,1042.8,1017.1,1047.8,1017.1,1055.9z"/>
	<path d="M1060.6,1047.4l-3.3,4.3c-2.8-2.1-5.6-3.2-9.2-3.2c-7,0-11.4,5.4-11.4,16.8c0,11.3,4.5,16.2,11.4,16.2
		c3.6,0,6.2-1.1,9.4-3.3l3.2,4.5c-3.6,3.1-7.9,4.7-12.8,4.7c-11.3,0-18.5-8.2-18.5-21.9c0-13.6,7-22.6,18.5-22.6
		C1052.8,1042.8,1056.7,1044.1,1060.6,1047.4z"/>
	<path d="M1079.2,1028.4c0,2.7-1.9,4.7-4.9,4.7c-2.8,0-4.8-2-4.8-4.7s1.9-4.7,4.8-4.7C1077.3,1023.7,1079.2,1025.7,1079.2,1028.4z
		 M1077.9,1086.4h-6.8v-42.6h6.8V1086.4z"/>
	<path d="M1125.4,1082.6l-1.6,4.8c-4.1-0.6-6.8-2.3-7.9-6.6c-2.9,4.5-7.5,6.6-12.8,6.6c-8.4,0-13.4-5.3-13.4-12.9
		c0-9.1,6.8-13.9,18.5-13.9h7v-3.4c0-6.3-3-8.7-9.2-8.7c-3.2,0-7.1,0.8-11.5,2.3l-1.7-5c5.1-1.9,9.7-2.9,14.4-2.9
		c10.1,0,14.7,5.2,14.7,14v19.8C1121.8,1080.6,1123.1,1081.8,1125.4,1082.6z M1115,1075.3v-10.2h-6.1c-7.9,0-12.1,3-12.1,9.1
		c0,5.2,2.7,8,7.8,8C1109.2,1082.2,1112.5,1079.8,1115,1075.3z"/>
	<path d="M1163.1,1047.7l-2.9,4.3c-3.8-2.5-7-3.7-11.1-3.7c-5,0-8.3,2.3-8.3,6s2.4,5.3,9.5,7.1c9,2.3,14,5.8,14,13.2
		c0,8.7-7.9,12.8-16.4,12.8c-7.2,0-12.2-2.3-16-5.6l3.6-4.1c3.5,2.6,7.4,4.2,12.1,4.2c5.7,0,9.5-2.6,9.5-6.9c0-4.5-2.2-6.1-10.6-8.3
		c-9.2-2.4-12.8-6.2-12.8-12.2c0-6.7,6.4-11.6,15.1-11.6C1154.7,1042.8,1159,1044.6,1163.1,1047.7z"/>
</g>
</svg>
