<?xml version="1.0" encoding="utf-8"?>
<!-- Generator: Adobe Illustrator 22.0.1, SVG Export Plug-In . SVG Version: 6.00 Build 0)  -->
<svg version="1.1" id="Layer_1" xmlns="http://www.w3.org/2000/svg" xmlns:xlink="http://www.w3.org/1999/xlink" x="0px" y="0px"
	 viewBox="0 0 730.2 162.9" style="enable-background:new 0 0 730.2 162.9;" xml:space="preserve">
<style type="text/css">
	.st0{fill:#383D93;}
	.st1{fill:#8585E0;}
	.st2{fill:#FFFFFF;}
</style>
<path class="st2" d="M102.4,69c-0.1,0-0.3,0-0.4-0.1C102.1,68.9,102.3,68.9,102.4,69z M97.8,136.8c-0.2,0-0.4,0.1-0.6,0.1
	C97.4,136.9,97.6,136.9,97.8,136.8z M103.2,69.1c-0.1,0-0.3-0.1-0.4-0.1C102.9,69.1,103,69.1,103.2,69.1z M98.9,136.6
	c-0.2,0-0.4,0.1-0.6,0.1C98.5,136.7,98.7,136.7,98.9,136.6z M101.5,135.9c0.4-0.1,0.8-0.3,1.2-0.5
	C102.3,135.6,101.9,135.7,101.5,135.9z M102.7,135.4c0.3-0.1,0.6-0.2,0.9-0.4C103.3,135.2,103,135.3,102.7,135.4z M101,68.7
	c-0.1,0-0.3,0-0.4-0.1C100.8,68.7,100.9,68.7,101,68.7z M101.7,68.8c-0.1,0-0.3,0-0.4-0.1C101.4,68.8,101.6,68.8,101.7,68.8z
	 M100.3,136.3c-0.4,0.1-0.7,0.2-1,0.3C99.6,136.5,99.9,136.4,100.3,136.3z M109.3,70.8c0.3,0.1,0.6,0.2,0.9,0.3
	C109.9,71,109.6,70.9,109.3,70.8z M108.4,70.5c0.3,0.1,0.5,0.2,0.8,0.3C109,70.7,108.7,70.6,108.4,70.5z M110.4,71.2
	c0.2,0.1,0.5,0.2,0.7,0.3C110.9,71.4,110.7,71.3,110.4,71.2z M103.9,69.3c-0.1,0-0.3-0.1-0.4-0.1C103.6,69.2,103.8,69.2,103.9,69.3z
	 M107.3,70.1c-0.2-0.1-0.3-0.1-0.5-0.2C106.9,70,107.1,70.1,107.3,70.1z M104.7,69.4c-0.1,0-0.3-0.1-0.4-0.1
	C104.4,69.4,104.6,69.4,104.7,69.4z M106.4,69.9c-0.2,0-0.3-0.1-0.5-0.1C106.1,69.8,106.2,69.8,106.4,69.9z M105.5,69.7
	c-0.2,0-0.3-0.1-0.5-0.1C105.2,69.6,105.4,69.6,105.5,69.7z M99.7,68.5c-0.1,0-0.2,0-0.4,0C99.5,68.5,99.6,68.5,99.7,68.5z
	 M96.2,68.3c0.1,0,0.2,0,0.4,0C96.5,68.3,96.4,68.3,96.2,68.3z M95.1,68.2C95.1,68.2,95.1,68.2,95.1,68.2
	C95.1,68.2,95.1,68.2,95.1,68.2z M96.7,68.3c0.1,0,0.2,0,0.4,0C96.9,68.3,96.8,68.3,96.7,68.3z M100.3,68.6c-0.1,0-0.2,0-0.4,0
	C100.1,68.6,100.2,68.6,100.3,68.6z M95.5,68.2c-0.1,0-0.1,0-0.2,0C95.4,68.2,95.5,68.2,95.5,68.2z M95.2,68.2
	C95.2,68.2,95.2,68.2,95.2,68.2C95.2,68.2,95.2,68.2,95.2,68.2C95.3,68.2,95.2,68.2,95.2,68.2z M97.5,68.3c-0.1,0-0.2,0-0.3,0
	C97.3,68.3,97.4,68.3,97.5,68.3z M95.9,68.2c0.1,0,0.2,0,0.3,0C96.1,68.2,96,68.2,95.9,68.2z M95.8,68.2c-0.1,0-0.1,0-0.2,0
	C95.7,68.2,95.7,68.2,95.8,68.2z M94.9,68.2C95,68.2,95,68.2,94.9,68.2C95,68.2,95,68.2,94.9,68.2z M105.8,133.8
	c-0.3,0.2-0.6,0.4-0.9,0.5C105.2,134.2,105.5,134,105.8,133.8z M112,71.8c-0.2-0.1-0.4-0.2-0.6-0.2C111.6,71.7,111.8,71.8,112,71.8z
	 M103.6,135c0.3-0.1,0.6-0.3,0.9-0.4C104.1,134.7,103.8,134.9,103.6,135z M99.1,68.5c-0.1,0-0.2,0-0.3,0
	C98.9,68.4,99,68.5,99.1,68.5z M115.7,116.7c-0.1,1-0.2,1.9-0.4,2.8C115.4,118.6,115.6,117.7,115.7,116.7z M98,68.4
	c-0.1,0-0.2,0-0.3,0C97.8,68.3,97.9,68.4,98,68.4z M98.5,68.4c-0.1,0-0.2,0-0.3,0C98.3,68.4,98.4,68.4,98.5,68.4z M105.8,133.8
	c0.6-0.4,1.2-0.8,1.8-1.3C107,133,106.4,133.4,105.8,133.8z M107.6,70.2c0.2,0.1,0.4,0.1,0.6,0.2C108,70.3,107.8,70.3,107.6,70.2z
	 M117.9,75c0.2,0.1,0.3,0.2,0.5,0.3C118.2,75.2,118.1,75.1,117.9,75z M117,74.4c0.2,0.1,0.3,0.2,0.5,0.3
	C117.3,74.6,117.1,74.5,117,74.4z M114.2,72.9c0.2,0.1,0.3,0.2,0.5,0.3C114.6,73,114.4,73,114.2,72.9z M116.1,73.9
	c0.2,0.1,0.3,0.2,0.5,0.3C116.4,74.1,116.2,74,116.1,73.9z M118.8,75.6c0.2,0.1,0.3,0.2,0.5,0.3C119.1,75.8,119,75.7,118.8,75.6z
	 M115.7,73.6c-0.2-0.1-0.3-0.2-0.5-0.3C115.3,73.4,115.5,73.5,115.7,73.6z M114.9,121.1c-1.5,5.4-4.3,9-7.3,11.4
	C110.6,130.2,113.4,126.6,114.9,121.1z M122.7,78.8L122.7,78.8c-0.1-0.1-0.3-0.3-0.4-0.4C122.5,78.5,122.6,78.6,122.7,78.8z
	 M94.9,68.2C94.9,68.2,94.9,68.2,94.9,68.2C94.9,68.2,94.9,68.2,94.9,68.2l-84.3,0V157h0V68.2H94.9z M121.4,77.6
	c0.2,0.1,0.3,0.3,0.5,0.4C121.8,77.9,121.6,77.8,121.4,77.6z M120.2,76.6c-0.2-0.1-0.3-0.2-0.5-0.4C119.8,76.3,120,76.5,120.2,76.6z
	 M120.6,76.9c0.2,0.1,0.3,0.3,0.5,0.4C120.9,77.2,120.7,77,120.6,76.9z M113.3,72.4c0.2,0.1,0.4,0.2,0.5,0.3
	C113.7,72.6,113.5,72.5,113.3,72.4z M112.4,72c0.2,0.1,0.4,0.2,0.5,0.2C112.7,72.2,112.6,72.1,112.4,72z M126.3,82.7
	c-0.2-0.3-0.5-0.6-0.7-0.9C125.8,82.1,126.1,82.4,126.3,82.7z M122.8,78.8C122.8,78.8,122.8,78.8,122.8,78.8L122.8,78.8
	C122.8,78.8,122.8,78.8,122.8,78.8z M124.8,80.9c0.2,0.2,0.4,0.4,0.5,0.6C125.2,81.3,125,81.1,124.8,80.9z M131.6,92.1
	c-0.1-0.2-0.2-0.5-0.3-0.7C131.4,91.6,131.5,91.9,131.6,92.1z M132.8,95.7c0.1,0.3,0.2,0.5,0.2,0.8
	C132.9,96.2,132.9,95.9,132.8,95.7z M124,80c0.2,0.2,0.3,0.4,0.5,0.5C124.3,80.4,124.2,80.2,124,80z M134.8,112c0-0.3,0-0.5,0-0.5
	c0-0.7,0-1.3,0-2c0,0.7,0,1.3,0,2C134.8,111.5,134.8,111.7,134.8,112z M132.3,94.2c0.1,0.3,0.2,0.5,0.2,0.8
	C132.5,94.7,132.4,94.4,132.3,94.2z M132.1,93.5c-0.1-0.3-0.2-0.5-0.3-0.8C131.9,93,132,93.3,132.1,93.5z M123.6,79.6
	c-0.2-0.2-0.3-0.3-0.5-0.5C123.3,79.3,123.5,79.5,123.6,79.6z M133.4,98c-0.1-0.3-0.1-0.6-0.2-0.9C133.3,97.5,133.3,97.7,133.4,98z
	 M130.7,90.1c0.1,0.2,0.2,0.5,0.3,0.7C130.9,90.5,130.8,90.3,130.7,90.1z M134.6,105.7c0,0.4,0.1,0.7,0.1,1.1
	C134.6,106.4,134.6,106,134.6,105.7z M134.8,108.8c0-0.4,0-0.9-0.1-1.3C134.7,108,134.8,108.4,134.8,108.8z M134.5,104.9
	c0-0.3-0.1-0.7-0.1-1C134.4,104.2,134.5,104.5,134.5,104.9z M130.5,89.5c-0.1-0.2-0.2-0.5-0.3-0.7C130.2,89,130.4,89.2,130.5,89.5z
	 M129.9,88.2c-0.1-0.2-0.2-0.5-0.4-0.7C129.6,87.8,129.7,88,129.9,88.2z M134.3,103.1c0-0.3-0.1-0.7-0.1-1
	C134.2,102.4,134.3,102.8,134.3,103.1z M128.1,85.2c0.1,0.2,0.3,0.4,0.4,0.7C128.4,85.7,128.3,85.5,128.1,85.2z M127.3,84.1
	c0.2,0.2,0.3,0.5,0.5,0.7C127.7,84.6,127.5,84.3,127.3,84.1z M134,101.3c-0.1-0.3-0.1-0.6-0.2-0.9C133.9,100.7,134,101,134,101.3z
	 M127.1,83.8c-0.2-0.3-0.5-0.7-0.8-1C126.6,83.1,126.9,83.4,127.1,83.8z M133.6,98.8c0.1,0.3,0.1,0.6,0.2,0.9
	C133.7,99.4,133.6,99.1,133.6,98.8z M129.2,87.1c-0.1-0.2-0.3-0.4-0.4-0.7C129,86.6,129.1,86.8,129.2,87.1z M53,157H70V90.4H53V157z
	 M160.7,68.2v35.5l-19.5-35.5h-15.8V77c7.4,6.5,13.3,17,13.3,34.5c0,0.9,0.5,23.5-12.8,37.1c-0.2,0.2-0.4,0.4-0.5,0.5v7.9h17.1
	v-36.2L160,157h17.7V68.2H160.7z M122.7,146.4c-5.8,6.1-14.4,10.6-27,10.6H78.7V92.5h17.9V137c0,0,0.2,0,0.6-0.1
	c0.2,0,0.4-0.1,0.6-0.1c0.2,0,0.3-0.1,0.5-0.1c0.2,0,0.4-0.1,0.6-0.1c0.1,0,0.2,0,0.3-0.1c0.3-0.1,0.7-0.2,1-0.3
	c0.4-0.1,0.8-0.2,1.2-0.4c0.4-0.1,0.8-0.3,1.2-0.5c0.3-0.1,0.6-0.2,0.9-0.4s0.6-0.3,0.9-0.4c0.1-0.1,0.3-0.2,0.4-0.2
	c0.3-0.2,0.6-0.3,0.9-0.5c0.6-0.4,1.2-0.8,1.8-1.3c3-2.4,5.8-5.9,7.3-11.4c0.1-0.5,0.3-1.1,0.4-1.7c0.2-0.9,0.3-1.8,0.4-2.8
	c0.1-1.3,0.2-2.6,0.2-4.1c0,0,2.1-27.4-20.2-27.4H28.6v18.5h16.8v18.5H28.4V157H10.6V68.2h84.3c0,0,0,0,0,0c0,0,0,0,0,0
	c0,0,0,0,0.1,0c0,0,0,0,0,0c0,0,0.1,0,0.1,0c0,0,0,0,0,0c0,0,0.1,0,0.1,0c0,0,0.1,0,0.1,0c0,0,0.1,0,0.2,0c0,0,0.1,0,0.1,0
	c0.1,0,0.1,0,0.2,0c0,0,0.1,0,0.1,0c0.1,0,0.2,0,0.3,0c0,0,0,0,0,0c0.1,0,0.2,0,0.4,0c0,0,0,0,0.1,0c0.1,0,0.2,0,0.4,0
	c0,0,0.1,0,0.1,0c0.1,0,0.2,0,0.3,0c0.1,0,0.1,0,0.2,0c0.1,0,0.2,0,0.3,0c0.1,0,0.1,0,0.2,0c0.1,0,0.2,0,0.3,0c0.1,0,0.2,0,0.2,0
	c0.1,0,0.2,0,0.3,0c0.1,0,0.2,0,0.3,0c0.1,0,0.2,0,0.4,0c0.1,0,0.2,0,0.3,0c0.1,0,0.2,0,0.4,0c0.1,0,0.2,0,0.3,0
	c0.1,0,0.2,0,0.4,0.1c0.1,0,0.2,0,0.3,0c0.1,0,0.3,0,0.4,0.1c0.1,0,0.2,0,0.3,0.1c0.1,0,0.3,0,0.4,0.1c0.1,0,0.2,0,0.3,0.1
	c0.1,0,0.3,0.1,0.4,0.1c0.1,0,0.2,0,0.3,0.1c0.1,0,0.3,0.1,0.4,0.1c0.1,0,0.2,0.1,0.3,0.1c0.1,0,0.3,0.1,0.4,0.1
	c0.1,0,0.2,0.1,0.4,0.1c0.2,0,0.3,0.1,0.5,0.1c0.1,0,0.2,0.1,0.4,0.1c0.2,0,0.3,0.1,0.5,0.1c0.1,0,0.2,0.1,0.3,0.1
	c0.2,0,0.3,0.1,0.5,0.2c0.1,0,0.2,0.1,0.3,0.1c0.2,0.1,0.4,0.1,0.6,0.2c0.1,0,0.2,0.1,0.3,0.1c0.3,0.1,0.5,0.2,0.8,0.3
	c0,0,0.1,0,0.1,0c0.3,0.1,0.6,0.2,0.9,0.3c0.1,0,0.1,0.1,0.2,0.1c0.2,0.1,0.5,0.2,0.7,0.3c0.1,0,0.2,0.1,0.3,0.1
	c0.2,0.1,0.4,0.2,0.6,0.2c0.1,0.1,0.2,0.1,0.4,0.2c0.2,0.1,0.4,0.2,0.5,0.2c0.1,0.1,0.3,0.1,0.4,0.2c0.2,0.1,0.4,0.2,0.5,0.3
	c0.1,0.1,0.3,0.1,0.4,0.2c0.2,0.1,0.3,0.2,0.5,0.3c0.1,0.1,0.3,0.1,0.4,0.2c0.2,0.1,0.3,0.2,0.5,0.3c0.1,0.1,0.3,0.2,0.4,0.2
	c0.2,0.1,0.3,0.2,0.5,0.3c0.1,0.1,0.3,0.2,0.4,0.2c0.2,0.1,0.3,0.2,0.5,0.3c0.1,0.1,0.3,0.2,0.4,0.3c0.2,0.1,0.3,0.2,0.5,0.3
	c0.1,0.1,0.3,0.2,0.4,0.3c0.2,0.1,0.3,0.2,0.5,0.3c0.1,0.1,0.3,0.2,0.4,0.3c0.2,0.1,0.3,0.2,0.5,0.4c0.1,0.1,0.3,0.2,0.4,0.3
	c0.2,0.1,0.3,0.3,0.5,0.4c0.1,0.1,0.3,0.2,0.4,0.3c0.2,0.1,0.3,0.3,0.5,0.4c0.1,0.1,0.3,0.2,0.4,0.3c0.1,0.1,0.3,0.3,0.4,0.4
	c0,0,0,0,0,0c0.1,0.1,0.2,0.2,0.4,0.3c0.2,0.2,0.3,0.3,0.5,0.5c0.1,0.1,0.2,0.2,0.4,0.4c0.2,0.2,0.3,0.4,0.5,0.5
	c0.1,0.1,0.2,0.2,0.3,0.3c0.2,0.2,0.4,0.4,0.5,0.6c0.1,0.1,0.2,0.2,0.3,0.3c0.2,0.3,0.5,0.6,0.7,0.9c0,0,0,0.1,0.1,0.1
	c0.3,0.3,0.5,0.7,0.8,1c0.1,0.1,0.1,0.2,0.2,0.3c0.2,0.2,0.3,0.5,0.5,0.7c0.1,0.1,0.2,0.3,0.3,0.4c0.1,0.2,0.3,0.4,0.4,0.7
	c0.1,0.2,0.2,0.3,0.3,0.5c0.1,0.2,0.3,0.4,0.4,0.7c0.1,0.2,0.2,0.3,0.3,0.5c0.1,0.2,0.2,0.4,0.4,0.7c0.1,0.2,0.2,0.4,0.3,0.5
	c0.1,0.2,0.2,0.5,0.3,0.7c0.1,0.2,0.2,0.4,0.3,0.6c0.1,0.2,0.2,0.5,0.3,0.7c0.1,0.2,0.2,0.4,0.3,0.6c0.1,0.2,0.2,0.5,0.3,0.7
	c0.1,0.2,0.2,0.4,0.2,0.6c0.1,0.3,0.2,0.5,0.3,0.8c0.1,0.2,0.1,0.4,0.2,0.7c0.1,0.3,0.2,0.5,0.2,0.8c0.1,0.2,0.1,0.5,0.2,0.7
	c0.1,0.3,0.2,0.5,0.2,0.8c0.1,0.2,0.1,0.5,0.2,0.7c0.1,0.3,0.1,0.6,0.2,0.9c0.1,0.2,0.1,0.5,0.2,0.7c0.1,0.3,0.1,0.6,0.2,0.9
	c0,0.2,0.1,0.5,0.1,0.8c0.1,0.3,0.1,0.6,0.2,0.9c0,0.3,0.1,0.5,0.1,0.8c0,0.3,0.1,0.7,0.1,1c0,0.3,0.1,0.5,0.1,0.8
	c0,0.3,0.1,0.7,0.1,1c0,0.3,0.1,0.5,0.1,0.8c0,0.4,0.1,0.7,0.1,1.1c0,0.3,0,0.5,0.1,0.8c0,0.4,0,0.9,0.1,1.3c0,0.2,0,0.4,0,0.6
	c0,0.7,0,1.3,0,2c0,0,0,0.2,0,0.5c0,1.6-0.1,6.7-1.5,12.9c-0.2,1-0.5,2-0.7,3c-0.4,1.4-0.8,2.8-1.3,4.2c-0.4,1.1-0.8,2.1-1.3,3.2
	c-0.3,0.7-0.7,1.4-1,2.1c-0.4,0.7-0.7,1.4-1.1,2.1c-0.4,0.7-0.8,1.4-1.3,2.1c-0.2,0.3-0.5,0.7-0.7,1c-0.5,0.7-1,1.3-1.5,2
	C123.8,145.2,123.3,145.8,122.7,146.4z M66.1,76.3c0-2.5-2.1-4.6-4.6-4.6c-2.5,0-4.6,2.1-4.6,4.6c0,2.5,2.1,4.6,4.6,4.6
	C64,80.9,66.1,78.8,66.1,76.3z M94.9,68.2C94.9,68.2,94.9,68.2,94.9,68.2C94.9,68.2,94.9,68.2,94.9,68.2z M95.4,68.2
	C95.3,68.2,95.3,68.2,95.4,68.2C95.3,68.2,95.3,68.2,95.4,68.2z M95.1,68.2C95.1,68.2,95.2,68.2,95.1,68.2
	C95.2,68.2,95.1,68.2,95.1,68.2z M95,68.2C95,68.2,95,68.2,95,68.2C95,68.2,95,68.2,95,68.2z M117.5,74.7c0.1,0.1,0.3,0.2,0.4,0.3
	C117.7,74.9,117.6,74.8,117.5,74.7z M108.4,70.5c-0.1,0-0.2-0.1-0.3-0.1C108.3,70.4,108.4,70.5,108.4,70.5z M105.5,69.7
	c0.1,0,0.2,0.1,0.4,0.1C105.8,69.7,105.7,69.7,105.5,69.7z M118.4,75.3c0.1,0.1,0.3,0.2,0.4,0.3C118.7,75.5,118.5,75.4,118.4,75.3z
	 M107.6,70.2c-0.1,0-0.2-0.1-0.3-0.1C107.4,70.2,107.5,70.2,107.6,70.2z M106.4,69.9c0.1,0,0.2,0.1,0.3,0.1
	C106.6,69.9,106.5,69.9,106.4,69.9z M120.6,76.9c-0.1-0.1-0.3-0.2-0.4-0.3C120.3,76.7,120.4,76.8,120.6,76.9z M119.7,76.2
	c-0.1-0.1-0.3-0.2-0.4-0.3C119.4,76,119.5,76.1,119.7,76.2z M103.9,69.3c0.1,0,0.2,0.1,0.3,0.1C104.2,69.3,104.1,69.3,103.9,69.3z
	 M105.1,69.5c-0.1,0-0.2-0.1-0.4-0.1C104.8,69.5,105,69.5,105.1,69.5z M111.1,71.5c0.1,0,0.2,0.1,0.3,0.1
	C111.3,71.6,111.2,71.5,111.1,71.5z M121.4,77.6c-0.1-0.1-0.3-0.2-0.4-0.3C121.2,77.4,121.3,77.5,121.4,77.6z M115.1,73.3
	c-0.1-0.1-0.3-0.1-0.4-0.2C114.9,73.2,115,73.3,115.1,73.3z M117,74.4c-0.1-0.1-0.3-0.2-0.4-0.2C116.7,74.2,116.8,74.3,117,74.4z
	 M114.2,72.9c-0.1-0.1-0.3-0.1-0.4-0.2C114,72.7,114.1,72.8,114.2,72.9z M112.4,72c-0.1-0.1-0.2-0.1-0.4-0.2
	C112.1,71.9,112.3,71.9,112.4,72z M95.6,68.2C95.6,68.2,95.6,68.2,95.6,68.2C95.6,68.2,95.6,68.2,95.6,68.2z M109.3,70.8
	C109.3,70.8,109.3,70.8,109.3,70.8C109.3,70.8,109.3,70.8,109.3,70.8z M115.7,73.6c0.1,0.1,0.3,0.2,0.4,0.2
	C115.9,73.8,115.8,73.7,115.7,73.6z M110.4,71.2c-0.1,0-0.1-0.1-0.2-0.1C110.3,71.1,110.4,71.2,110.4,71.2z M112.9,72.2
	c0.1,0.1,0.3,0.1,0.4,0.2C113.2,72.4,113,72.3,112.9,72.2z M100.6,68.7c-0.1,0-0.2,0-0.3,0C100.4,68.6,100.5,68.7,100.6,68.7z
	 M101,68.7c0.1,0,0.2,0,0.3,0C101.2,68.8,101.1,68.7,101,68.7z M97.7,68.3c-0.1,0-0.1,0-0.2,0C97.6,68.3,97.6,68.3,97.7,68.3z
	 M102,68.9c-0.1,0-0.2,0-0.3-0.1C101.8,68.9,101.9,68.9,102,68.9z M98.2,68.4c-0.1,0-0.1,0-0.2,0C98.1,68.4,98.1,68.4,98.2,68.4z
	 M98.8,68.4c-0.1,0-0.2,0-0.2,0C98.6,68.4,98.7,68.4,98.8,68.4z M99.7,68.5c0.1,0,0.2,0,0.3,0C99.9,68.6,99.8,68.6,99.7,68.5z
	 M102.7,69c-0.1,0-0.2,0-0.3-0.1C102.5,69,102.6,69,102.7,69z M99.4,68.5c-0.1,0-0.2,0-0.3,0C99.2,68.5,99.3,68.5,99.4,68.5z
	 M96.2,68.3C96.2,68.3,96.2,68.3,96.2,68.3C96.2,68.3,96.2,68.3,96.2,68.3z M97,68.3c0,0,0.1,0,0.1,0C97.1,68.3,97.1,68.3,97,68.3z
	 M122.3,78.4c-0.1-0.1-0.3-0.2-0.4-0.3C122,78.1,122.2,78.3,122.3,78.4z M95.8,68.2C95.8,68.2,95.9,68.2,95.8,68.2
	C95.9,68.2,95.8,68.2,95.8,68.2z M103.2,69.1c0.1,0,0.2,0,0.3,0.1C103.4,69.2,103.3,69.1,103.2,69.1z M96.6,68.3
	C96.6,68.3,96.7,68.3,96.6,68.3C96.7,68.3,96.6,68.3,96.6,68.3z M130.1,88.8c-0.1-0.2-0.2-0.4-0.3-0.5C130,88.4,130,88.6,130.1,88.8
	z M127.3,84.1c-0.1-0.1-0.1-0.2-0.2-0.3C127.2,83.9,127.3,84,127.3,84.1z M128.5,85.9c0.1,0.2,0.2,0.3,0.3,0.5
	C128.7,86.2,128.6,86.1,128.5,85.9z M125.6,81.8c-0.1-0.1-0.2-0.2-0.3-0.3C125.4,81.6,125.5,81.7,125.6,81.8z M126.4,82.8
	C126.3,82.7,126.3,82.7,126.4,82.8C126.3,82.7,126.3,82.7,126.4,82.8z M124.8,80.9c-0.1-0.1-0.2-0.2-0.3-0.3
	C124.6,80.6,124.7,80.8,124.8,80.9z M128.1,85.2c-0.1-0.1-0.2-0.3-0.3-0.4C127.9,84.9,128,85.1,128.1,85.2z M122.8,78.8
	c0.1,0.1,0.2,0.2,0.4,0.3C123,79.1,122.9,78.9,122.8,78.8z M124,80c-0.1-0.1-0.2-0.2-0.4-0.4C123.8,79.8,123.9,79.9,124,80z
	 M129.5,87.6c-0.1-0.2-0.2-0.3-0.3-0.5C129.3,87.2,129.4,87.4,129.5,87.6z M132.6,127.9c-0.4,1.4-0.8,2.8-1.3,4.2
	C131.8,130.7,132.2,129.3,132.6,127.9z M134.7,107.6c0-0.3,0-0.5-0.1-0.8C134.7,107,134.7,107.3,134.7,107.6z M134.8,112
	c0,1.6-0.1,6.7-1.5,12.9C134.7,118.7,134.8,113.6,134.8,112z M134.8,109.5c0-0.2,0-0.4,0-0.6C134.8,109.1,134.8,109.3,134.8,109.5z
	 M132.6,127.9c0.3-1,0.5-2,0.7-3C133.1,125.9,132.9,126.9,132.6,127.9z M127.8,139.5c-0.4,0.7-0.8,1.4-1.3,2.1
	C127,140.9,127.4,140.2,127.8,139.5z M124.3,144.5c0.5-0.6,1-1.3,1.5-2C125.4,143.2,124.9,143.9,124.3,144.5z M130,135.3
	c0.5-1.1,0.9-2.1,1.3-3.2C130.9,133.2,130.4,134.2,130,135.3z M128.9,137.4c0.4-0.7,0.7-1.4,1-2.1
	C129.6,136,129.3,136.7,128.9,137.4z M133.2,97.2c-0.1-0.2-0.1-0.5-0.2-0.7C133.1,96.7,133.1,96.9,133.2,97.2z M132.6,95
	c0.1,0.2,0.1,0.5,0.2,0.7C132.7,95.4,132.6,95.2,132.6,95z M132.3,94.2c-0.1-0.2-0.1-0.4-0.2-0.7C132.2,93.7,132.3,94,132.3,94.2z
	 M134.6,105.7c0-0.3-0.1-0.5-0.1-0.8C134.5,105.2,134.6,105.4,134.6,105.7z M131.8,92.8c-0.1-0.2-0.2-0.4-0.2-0.6
	C131.7,92.3,131.8,92.5,131.8,92.8z M131.3,91.4c-0.1-0.2-0.2-0.4-0.3-0.6C131.1,91,131.2,91.2,131.3,91.4z M134.2,102.1
	c0-0.3-0.1-0.5-0.1-0.8C134.1,101.6,134.1,101.8,134.2,102.1z M134.4,103.9c0-0.3-0.1-0.5-0.1-0.8
	C134.3,103.3,134.4,103.6,134.4,103.9z M133.6,98.8c-0.1-0.2-0.1-0.5-0.2-0.7C133.5,98.3,133.5,98.5,133.6,98.8z M133.9,100.4
	c0-0.3-0.1-0.5-0.1-0.8C133.8,99.9,133.8,100.2,133.9,100.4z"/>
<path class="st1" d="M205.6,49.1c0.4-0.3,3-1.4,4.6-1.8c1.6-0.4,5.2-0.6,5.2-0.7c0-0.2-3-0.8-5-0.4c-2,0.4-5.1,2.1-7,2.9
	c-1.9,0.7-3,0.8-4.6,1.6c-1.6,0.8-3.2,3-4.8,3.4c-1.5,0.4-4.5-0.9-4.5-0.9c-2.1-0.4-6.4-1.1-8.4-1.8c-2-0.7-3.3-1.5-3.7-2.5
	c-0.4-1,0.1-2.3,1.5-3.2c1.4-0.9,4.6-2.1,7-2.4c2.5-0.4,4.9,0.5,7.7,0.2c2.9-0.3,6.1-1.7,9.5-1.9c3.5-0.2,10.5,1.1,11.4,0.9
	c0.9-0.1-4.2-1.3-6.2-1.7s-5.3,0.1-5.5-0.4c-0.2-0.5,2.5-2.1,4.3-2.7c1.7-0.6,6-0.6,6-0.8c0-0.2-4.3-0.7-6.1-0.3
	c-1.8,0.4-3.5,2-4.8,2.8c-1.3,0.7-1.7,1.1-2.9,1.5c-1.2,0.4-4.1,1.2-4.4,0.9s1.5-1.9,2.9-2.9c1.4-1,3.4-2,5.3-3
	c1.9-1,4.2-2.4,6.2-3.1c2-0.6,5.4-0.6,5.7-0.8c0.3-0.2-2.1-0.6-3.9-0.5s-6,2-6.8,1.5c-0.8-0.5,0.6-3.2,1.9-4.6
	c1.4-1.5,6.3-3.8,6.4-4.2c0.1-0.4-4,0.8-5.7,1.9c-1.6,1.1-3.3,3.5-4.1,5c-0.8,1.5,0.5,2.7-0.6,3.9c-1.1,1.2-4.3,2-5.9,3
	c-1.5,1.1-1.3,2.8-3.4,3.4c-2.1,0.5-8.6,1-9.1-0.2c-0.5-1.2,4-5,5.9-7.1c2-2.1,3.6-4,5.8-5.5c2.1-1.5,4.7-2.1,7-3.8
	c2.3-1.7,6.7-6,6.8-6.3c0.1-0.3-4.4,3.5-6.1,4.6c-1.7,1.1-3.9,2.2-4.3,2c-0.4-0.2,1-1.9,1.7-3.3c0.8-1.3,2.8-4.4,2.8-4.7
	c0-0.2-1.9,2.1-2.8,3.3c-1,1.3-1.9,3-3.1,4.2c-1.1,1.2-2.5,1.8-3.7,2.9s-2.8,3.9-3.4,3.6c-0.6-0.3-0.5-3.7,0-5.4
	c0.5-1.8,3-4.8,3-5.1c0-0.3-2.1,1.8-2.8,3.3c-0.8,1.5-1.6,4.5-1.9,6c-0.3,1.4,0.9,1.5,0.2,2.7c-0.8,1.2-3.4,3.4-4.7,4.8
	c-1.3,1.4-1.5,2.5-3.1,3.3c-1.6,0.8-5.1,2.5-6.5,1.7c-1.5-0.7-3.1-4.1-2.3-6.2c0.8-2.1,5.4-4.6,7.4-6.5c2-2,3-3.5,4.7-5.2
	c1.7-1.8,3.8-4,5.5-5.3c1.7-1.3,4.6-2.1,4.6-2.3c-0.1-0.2-3.3,0-4.9,1c-1.6,1-4,4.8-4.7,4.8c-0.7,0,0.1-3.2,0.5-5
	c0.4-1.8,2.1-5.5,1.9-5.5s-2.4,3.7-3,5.4c-0.6,1.6-0.6,3.2-0.9,4.3c-0.2,1.1,0.3,1.1-0.4,2.3c-0.7,1.2-2.4,3.6-3.9,5
	c-1.5,1.3-4.2,3.6-5.1,3c-0.9-0.6-1.4-4.1-0.4-6.8c1-2.7,5.9-8.3,6.4-9.2c0.5-0.9-2.5,2.6-3.6,3.8c-1.1,1.2-2.9,4.2-3.1,3.3
	c-0.2-0.9,0.3-6.3,1.7-8.7c1.4-2.4,6.1-4.9,6.6-5.6c0.5-0.7-2.6,0.9-3.8,1.6c-1.2,0.7-2.6,2.7-3.2,2.4c-0.6-0.3,0.3-2.4-0.2-4.3
	s-2.7-6.4-3.1-6.8c-0.4-0.5,0.4,2.4,0.8,4s1.3,3.5,1.4,5.6c0.2,2.1,0.1,6.4-0.4,7c-0.6,0.7-1.9-1.5-2.9-3c-1.1-1.5-3.1-6.1-3.4-6.1
	c-0.3-0.1,1,4,1.7,5.8c0.7,1.8,2.2,3.6,2.8,4.8c0.6,1.2,0.6,1.5,0.7,2.7s0.7,4.7-0.3,4.5c-1-0.2-4.5-3.6-5.8-5.8
	c-1.4-2.2-1.4-5.5-2.3-7.3c-1-1.8-2.4-2-3.5-3.4c-1.1-1.4-2.5-4.4-3-4.8c-0.5-0.3-0.4,1.6,0.2,2.7c0.5,1.1,2.2,3.1,3,4.1
	c0.7,1,1.8,1.6,1.5,1.7c-0.4,0.2-3.8-0.9-3.6-0.7c0.2,0.2,3.6,0.8,4.5,2s0.3,3.7,1.1,5.4c0.8,1.6,3.9,4,3.6,4.3
	c-0.3,0.4-5.5-2.4-5.6-2.2c-0.2,0.2,3.5,2.7,4.6,3.4c1.1,0.7,1.1-0.4,2,0.6c0.9,0.9,3,3,3.3,5c0.3,2.1-0.5,5.7-1.5,7.3
	c-1,1.6-3,2.2-4.6,2.1c-1.6-0.1-3.9-1.1-4.8-2.7c-1-1.5-1.1-4.8-0.9-6.5s2.3-3.4,2.3-3.7c-0.1-0.4-2.1,0.7-2.7,1.5
	c-0.6,0.8-0.3,3.9-0.9,3.2c-0.6-0.6-2-4.9-2.6-7.1c-0.6-2.2-0.7-4.3-0.9-5.8c-0.2-1.6,0-4-0.2-3.6c-0.2,0.3-0.8,3.9-0.8,5.7
	c0.1,1.8,1.4,4.4,1.1,4.9c-0.3,0.5-1.6-1.2-2.9-1.9c-1.3-0.6-4.4-2.1-4.8-2c-0.4,0.1,1.7,1.9,2.6,2.6s1.9,0.6,2.8,1.4
	c0.9,0.8,1.6,1.4,2.7,3.2c1,1.8,2.2,5.5,3.5,7.7c1.3,2.2,3.7,3.6,4.2,5.4c0.5,1.8,0.1,4.2-1.1,5.3c-1.2,1-4.4,1.6-6.3,1
	c-1.9-0.5-4.2-2.3-4.9-4.2c-0.7-2,0.2-5.4,0.7-7.5c0.4-2.1,2.1-4.5,1.9-4.9c-0.2-0.3-2.5,1.3-3.1,2.9c-0.7,1.6-0.4,5.8-1,6.6
	c-0.6,0.8-1.6-0.2-2.8-1.6c-1.3-1.4-3.8-4.4-4.8-7c-1-2.6-1-7.2-1.3-8.5c-0.3-1.3-0.7-0.3-0.8,0.7c-0.1,1.1,1,5.1,0.3,5.6
	c-0.7,0.5-4.3-2.5-4.3-2.5c-1.5-0.9-2.7-2.2-4.6-2.7c-1.9-0.5-6.9-0.5-6.9-0.3c0,0.2,4.7,0.7,6.7,1.4c2,0.8,3.5,1.8,5.1,3.1
	c1.6,1.3,2.9,2.7,4.4,4.7s4.7,5.8,4.5,7.2c-0.2,1.4-2.9,1.5-5.5,1c-2.5-0.5-6.8-3.6-9.6-4.2c-2.8-0.6-7,0.3-7.1,0.4
	c-0.2,0.1,4.3,0,6.1,0.3c1.8,0.4,2.6,0.9,4.5,1.8c1.9,0.9,4.6,2.9,7.1,3.4c2.5,0.5,6.5-1,8-0.4c1.5,0.6,2.1,3.1,1.1,4
	c-1.1,0.9-4.6,1.9-7.6,1.6c-3.1-0.4-9.7-3.5-10.7-3.7c-1-0.2,3.5,1.9,4.6,2.7c1.1,0.7,1.8,0.8,1.8,1.7c0,0.9-2.3,3.4-2,3.5
	c0.3,0.1,2-2.7,3.7-3.1c1.7-0.4,4.4,0.8,6.6,0.5c2.3-0.3,5.7-2.3,7-2.2c1.4,0.1,2,2.1,1.3,3.1c-0.8,1-3.8,2.2-5.9,3
	c-0.7,0.3-1.4,0.5-2.2,0.7c1.6,0.3,3.4,0.5,5,0.1c2.9-0.8,6.3-4.6,8.8-5.2c2.5-0.7,4.8,0.1,6.4,1.2c1.6,1.1,2.7,3,3.3,5.2
	s0.6,5.5,0.4,7.9c-0.2,2.4-1.6,4-1.6,6.4s1.7,5.4,1.8,7.8c0.1,2.4-1.3,4.5-1.3,6.6c0,2.1,1.1,3.9,1.2,6.3c0,1.8-0.7,5.5-0.9,7
	c-0.1,0.2-0.1,0.4-0.1,0.4s-0.7,7-0.8,9.1c-0.1,2.2,0.4,6,0.4,6s0.3,4.4,0,6.2c-0.3,1.8-0.4,10.5-0.4,10.5v4.7c0,0-1.1,3.3-2.2,4.1
	c-1,0.8-1.6,0.5-2,1.7c0,0,0.3-0.4,1.4-0.6c0,0,0.1,1.8-0.9,3c-1,1.2-0.3,0.3-1,1.2c0,0,0.2-0.2,0.5-0.2c0,0-0.5,2-0.4,2.4
	c0,0,1.1-3,1.8-3.5c0,0,0.4,2.2,0.4,3.1c0,0,0.3-5.1,0.4-5.5s0.9-1.1,0.9-1.1s1.2-1.3,1.3-1.7c0,0,0.5,2.3,0.1,3.4
	c-0.3,1.1-0.8,1.9-0.8,1.9s-0.4,1.2-0.4,1.9c0,0.7-1.6,2.1-1.6,2.3c0,0,0.6-0.3,1-0.6c0,0-0.2,3,0,3.4c0,0,0.4-4.2,1.1-5.4
	c0.7-1.2,0.9,3.5,0.9,3.5s0-4.1-0.2-5.2c-0.2-1.1,0.5-1.7,0.5-1.7s0.3-0.3,0.4,1.2c0.1,1.5,0.4,2,0.6,2.8c0.3,0.8,0,5.5,0,5.5
	s0.7-4.1,0.5-5.3c0,0,2.2,2.5,1.9,4c0,0,0.6-2.4-1.1-4c0,0-0.9-1.8-0.8-4.4c0.1-2.6-1-3.2-1-3.2s0.5-0.3,1.3,1.2c0.7,1.4,1,5,1,5
	s0.2-3.3,0-4c-0.2-0.7,1.3,1.8,1.3,1.8s0.7,3.1,0.3,4.1c0,0,0.5-0.7,0.4-1.7c0,0,1.4,1.9,1.1,3.7c0,0,0.7-2.7-0.8-4.5
	c0,0-0.2-0.6-0.3-1.3c-0.1-0.7,1.7,2.2,1.7,2.2s-0.3-2.2-1.7-3.5c-1.4-1.4-3.9-5.9-3.9-5.9s-0.4-9.5,0-10.8
	c0.4-1.2,0.6-10.2,0.6-10.2s-0.9-7.1-0.9-10.2c0.1-3.4,0-4.9-0.1-5.5c0.6-1.5,2-5.9,2-7.7c0.1-2.2-1.6-3.1-1.7-5.1
	c0-2,1.5-4.1,1.6-6.6c0.1-2.5-1.2-5.9-1-8.3c0.1-2.4,1.4-3.3,1.9-6.2c0.4-2.9-0.3-8.9,0.7-11.3c1-2.5,3.2-3.1,5.3-3.5
	c2.1-0.4,4.7,0.6,7.5,1.2c2.8,0.5,6.4,1.7,9.5,2c3,0.2,5.9-1.2,8.8-0.7c2.9,0.5,8.5,3.9,8.8,3.8c0.3-0.1-6.5-3.5-7.2-4.6
	c-0.6-1.1,3.6-1.7,3.5-2c-0.2-0.3-3.2,0-4.4,0.2c-1.2,0.3-1.4,1.1-2.7,1.5c-1.3,0.4-4.9,1.1-5.2,0.7c-0.3-0.4,1.8-2.1,3.4-2.9
	c1.6-0.8,3.9-1.6,6.2-1.9c2.3-0.3,7.4,0.4,7.7,0.2c0.3-0.1-4.5-0.9-5.8-1C206.7,48.8,205.3,49.4,205.6,49.1z M170.5,52
	c-2.2,0-4-2-4-4.4c0-2.4,1.8-4.4,4-4.4c2.2,0,4,2,4,4.4C174.5,50,172.7,52,170.5,52z"/>
<g>
	<path class="st2" d="M235.5,84.2h-8.7v8h7.5v2.3h-7.5v10.1h-2.8V81.9h11.9L235.5,84.2z"/>
	<path class="st2" d="M252.6,104.7h-2.4l-0.2-2.8c-1.3,2.1-2.9,3.2-5.5,3.2c-3.1,0-4.9-1.9-4.9-5.3V87.3h2.8v12.2
		c0,2.5,0.9,3.4,2.8,3.4s3.4-1.3,4.5-3.1V87.3h2.8V104.7z"/>
	<path class="st2" d="M272.1,92.2v12.5h-2.8V92.6c0-2.7-1.1-3.5-2.9-3.5c-2,0-3.4,1.3-4.6,3.2v12.4h-2.8V87.3h2.4l0.2,2.6
		c1.3-1.8,3.1-3,5.5-3C270.3,86.9,272.1,88.9,272.1,92.2z"/>
	<path class="st2" d="M291.6,80.3v24.4h-2.4l-0.3-2.4c-1.1,1.7-2.8,2.8-5.1,2.8c-4.2,0-6.5-3.6-6.5-9c0-5.3,2.5-9.2,6.8-9.2
		c2.1,0,3.6,1,4.7,2.2v-9.1L291.6,80.3z M288.8,100.1v-8.6c-1.1-1.4-2.3-2.4-4.1-2.4c-2.7,0-4.4,2.3-4.4,6.9s1.5,6.8,4.1,6.8
		C286.4,102.8,287.7,101.8,288.8,100.1z"/>
	<path class="st2" d="M311,103.1l-0.7,1.9c-1.7-0.2-2.8-1-3.2-2.7c-1.2,1.9-3,2.7-5.2,2.7c-3.4,0-5.5-2.1-5.5-5.3
		c0-3.7,2.8-5.7,7.5-5.7h2.8v-1.4c0-2.6-1.2-3.6-3.7-3.6c-1.3,0-2.9,0.3-4.7,1l-0.7-2c2.1-0.8,4-1.2,5.9-1.2c4.1,0,6,2.1,6,5.7v8.1
		C309.6,102.3,310.1,102.8,311,103.1z M306.8,100.1V96h-2.5c-3.2,0-5,1.2-5,3.7c0,2.1,1.1,3.3,3.2,3.3
		C304.4,102.9,305.8,102,306.8,100.1z"/>
	<path class="st2" d="M327.5,88.7l-1.4,1.8c-1.2-0.9-2.3-1.3-3.8-1.3c-2.8,0-4.7,2.2-4.7,6.9c0,4.6,1.8,6.6,4.7,6.6
		c1.5,0,2.5-0.5,3.8-1.4l1.3,1.8c-1.5,1.3-3.2,1.9-5.2,1.9c-4.6,0-7.5-3.3-7.5-9c0-5.6,2.9-9.2,7.5-9.2
		C324.3,86.9,325.9,87.4,327.5,88.7z"/>
	<path class="st2" d="M335.1,81c0,1.1-0.8,1.9-2,1.9c-1.2,0-1.9-0.8-1.9-1.9c0-1.1,0.8-1.9,1.9-1.9C334.3,79.1,335.1,79.9,335.1,81z
		 M334.5,104.7h-2.8V87.3h2.8V104.7z"/>
	<path class="st2" d="M355,95.9c0,5.5-2.8,9.1-7.7,9.1s-7.6-3.5-7.6-9.1c0-5.5,2.8-9.1,7.7-9.1C352.2,86.9,355,90.4,355,95.9z
		 M342.6,96c0,4.6,1.7,6.8,4.7,6.8c3,0,4.7-2.2,4.7-6.9c0-4.6-1.7-6.8-4.7-6.8C344.3,89.1,342.6,91.3,342.6,96z M351.1,80.7
		l-6.9,2.8l-0.9-1.5l6.5-3.7L351.1,80.7z"/>
	<path class="st2" d="M373.2,92.2v12.5h-2.8V92.6c0-2.7-1.1-3.5-2.9-3.5c-2,0-3.4,1.3-4.6,3.2v12.4h-2.8V87.3h2.4l0.2,2.6
		c1.3-1.8,3.1-3,5.5-3C371.4,86.9,373.2,88.9,373.2,92.2z"/>
	<path class="st2" d="M391.3,104.7h-2.8V81.9h2.8V104.7z"/>
	<path class="st2" d="M411,92.2v12.5h-2.8V92.6c0-2.7-1.1-3.5-2.9-3.5c-2,0-3.4,1.3-4.6,3.2v12.4H398V87.3h2.4l0.2,2.6
		c1.3-1.8,3.1-3,5.5-3C409.2,86.9,411,88.9,411,92.2z"/>
	<path class="st2" d="M425.9,103.9c-1.1,0.8-2.4,1.2-3.8,1.2c-2.9,0-4.6-1.7-4.6-4.9V89.4h-3v-2.1h3v-4l2.8-0.3v4.3h4.2l-0.3,2.1
		h-3.9v10.6c0,1.8,0.6,2.7,2.2,2.7c0.8,0,1.6-0.2,2.4-0.8L425.9,103.9z"/>
	<path class="st2" d="M441.6,96.9h-11.2c0.3,4.2,2.2,5.9,4.9,5.9c1.8,0,3-0.5,4.6-1.6l1.2,1.7c-1.7,1.4-3.6,2.2-6,2.2
		c-4.8,0-7.6-3.4-7.6-8.9c0-5.5,2.7-9.3,7.1-9.3c4.7,0,7.1,3.3,7.1,8.5C441.7,96,441.6,96.6,441.6,96.9z M438.9,94.6
		c0-3.5-1.4-5.5-4.3-5.5c-2.4,0-4,1.7-4.3,5.8h8.5V94.6z"/>
	<path class="st2" d="M455.9,87.1l-0.5,2.7c-0.5-0.1-0.9-0.2-1.5-0.2c-2.2,0-3.5,1.6-4.3,5v10.1h-2.8V87.3h2.4l0.3,3.6
		c0.9-2.7,2.5-4,4.7-4C454.8,86.9,455.4,86.9,455.9,87.1z"/>
	<path class="st2" d="M472.5,92.2v12.5h-2.8V92.6c0-2.7-1.1-3.5-2.9-3.5c-2,0-3.4,1.3-4.6,3.2v12.4h-2.8V87.3h2.4l0.2,2.6
		c1.3-1.8,3.1-3,5.5-3C470.7,86.9,472.5,88.9,472.5,92.2z"/>
	<path class="st2" d="M491.8,103.1l-0.7,1.9c-1.7-0.2-2.8-1-3.2-2.7c-1.2,1.9-3,2.7-5.2,2.7c-3.4,0-5.5-2.1-5.5-5.3
		c0-3.7,2.8-5.7,7.5-5.7h2.8v-1.4c0-2.6-1.2-3.6-3.7-3.6c-1.3,0-2.9,0.3-4.7,1l-0.7-2c2.1-0.8,4-1.2,5.9-1.2c4.1,0,6,2.1,6,5.7v8.1
		C490.3,102.3,490.8,102.8,491.8,103.1z M487.5,100.1V96h-2.5c-3.2,0-5,1.2-5,3.7c0,2.1,1.1,3.3,3.2,3.3
		C485.2,102.9,486.5,102,487.5,100.1z"/>
	<path class="st2" d="M508.2,88.7l-1.4,1.8c-1.2-0.9-2.3-1.3-3.8-1.3c-2.8,0-4.7,2.2-4.7,6.9c0,4.6,1.8,6.6,4.7,6.6
		c1.5,0,2.5-0.5,3.8-1.4l1.3,1.8c-1.5,1.3-3.2,1.9-5.2,1.9c-4.6,0-7.5-3.3-7.5-9c0-5.6,2.9-9.2,7.5-9.2
		C505,86.9,506.6,87.4,508.2,88.7z"/>
	<path class="st2" d="M515.8,81c0,1.1-0.8,1.9-2,1.9c-1.2,0-2-0.8-2-1.9c0-1.1,0.8-1.9,2-1.9C515,79.1,515.8,79.9,515.8,81z
		 M515.2,104.7h-2.8V87.3h2.8V104.7z"/>
	<path class="st2" d="M535.7,95.9c0,5.5-2.8,9.1-7.7,9.1s-7.6-3.5-7.6-9.1c0-5.5,2.8-9.1,7.7-9.1C532.9,86.9,535.7,90.4,535.7,95.9z
		 M523.4,96c0,4.6,1.7,6.8,4.7,6.8c3,0,4.7-2.2,4.7-6.9c0-4.6-1.7-6.8-4.7-6.8C525.1,89.1,523.4,91.3,523.4,96z"/>
	<path class="st2" d="M553.9,92.2v12.5h-2.8V92.6c0-2.7-1.1-3.5-2.9-3.5c-2,0-3.4,1.3-4.6,3.2v12.4h-2.8V87.3h2.4l0.2,2.6
		c1.3-1.8,3.1-3,5.5-3C552.1,86.9,553.9,88.9,553.9,92.2z"/>
	<path class="st2" d="M573.2,103.1l-0.7,1.9c-1.7-0.2-2.8-1-3.2-2.7c-1.2,1.9-3,2.7-5.2,2.7c-3.4,0-5.5-2.1-5.5-5.3
		c0-3.7,2.8-5.7,7.5-5.7h2.8v-1.4c0-2.6-1.2-3.6-3.7-3.6c-1.3,0-2.9,0.3-4.7,1l-0.7-2c2.1-0.8,4-1.2,5.9-1.2c4.1,0,6,2.1,6,5.7v8.1
		C571.7,102.3,572.2,102.8,573.2,103.1z M568.9,100.1V96h-2.5c-3.2,0-5,1.2-5,3.7c0,2.1,1.1,3.3,3.2,3.3
		C566.5,102.9,567.9,102,568.9,100.1z"/>
	<path class="st2" d="M577.9,101.4V80.3l2.8-0.3v21.4c0,1,0.3,1.5,1.2,1.5c0.4,0,0.8-0.1,1.1-0.2l0.7,2c-0.6,0.3-1.5,0.6-2.3,0.6
		C579.3,105.1,577.9,103.8,577.9,101.4z"/>
	<path class="st2" d="M610.8,95.9c0,5.3-2.3,9.1-6.8,9.1c-2,0-3.5-0.7-4.6-2.1v8.3l-2.8,0.3V87.3h2.4l0.2,2.4
		c1.3-1.8,3.1-2.8,5.2-2.8C608.9,86.9,610.8,90.4,610.8,95.9z M607.8,95.9c0-4.6-1.4-6.8-4.1-6.8c-1.9,0-3.4,1.4-4.3,2.8v8.7
		c0.9,1.4,2.3,2.2,4,2.2C606.2,102.8,607.8,100.6,607.8,95.9z"/>
	<path class="st2" d="M629.1,103.1l-0.7,1.9c-1.7-0.2-2.8-1-3.2-2.7c-1.2,1.9-3,2.7-5.2,2.7c-3.4,0-5.5-2.1-5.5-5.3
		c0-3.7,2.8-5.7,7.5-5.7h2.8v-1.4c0-2.6-1.2-3.6-3.7-3.6c-1.3,0-2.9,0.3-4.7,1l-0.7-2c2.1-0.8,4-1.2,5.9-1.2c4.1,0,6,2.1,6,5.7v8.1
		C627.6,102.3,628.1,102.8,629.1,103.1z M624.8,100.1V96h-2.5c-3.2,0-5,1.2-5,3.7c0,2.1,1.1,3.3,3.2,3.3
		C622.5,102.9,623.8,102,624.8,100.1z"/>
	<path class="st2" d="M643.1,87.1l-0.5,2.7c-0.5-0.1-0.9-0.2-1.5-0.2c-2.2,0-3.5,1.6-4.3,5v10.1H634V87.3h2.4l0.3,3.6
		c0.9-2.7,2.5-4,4.7-4C642,86.9,642.6,86.9,643.1,87.1z"/>
	<path class="st2" d="M659,103.1l-0.7,1.9c-1.7-0.2-2.8-1-3.2-2.7c-1.2,1.9-3,2.7-5.2,2.7c-3.4,0-5.5-2.1-5.5-5.3
		c0-3.7,2.8-5.7,7.5-5.7h2.8v-1.4c0-2.6-1.2-3.6-3.7-3.6c-1.3,0-2.9,0.3-4.7,1l-0.7-2c2.1-0.8,4-1.2,5.9-1.2c4.1,0,6,2.1,6,5.7v8.1
		C657.5,102.3,658.1,102.8,659,103.1z M654.7,100.1V96h-2.5c-3.2,0-5,1.2-5,3.7c0,2.1,1.1,3.3,3.2,3.3
		C652.4,102.9,653.7,102,654.7,100.1z"/>
	<path class="st2" d="M685.6,96.9h-11.2c0.3,4.2,2.2,5.9,4.9,5.9c1.8,0,3-0.5,4.6-1.6l1.2,1.7c-1.7,1.4-3.6,2.2-6,2.2
		c-4.8,0-7.6-3.4-7.6-8.9c0-5.5,2.7-9.3,7.1-9.3c4.7,0,7.1,3.3,7.1,8.5C685.7,96,685.7,96.6,685.6,96.9z M683,94.6
		c0-3.5-1.4-5.5-4.3-5.5c-2.4,0-4,1.7-4.3,5.8h8.5V94.6z"/>
	<path class="st2" d="M690.7,101.4V80.3l2.8-0.3v21.4c0,1,0.3,1.5,1.2,1.5c0.4,0,0.8-0.1,1.1-0.2l0.7,2c-0.6,0.3-1.5,0.6-2.3,0.6
		C692.1,105.1,690.7,103.8,690.7,101.4z"/>
	<path class="st2" d="M239.8,132.8c0,9.3-5.8,11.5-10.6,11.5h-5.3v-22.7h4.7C234.3,121.6,239.8,123.4,239.8,132.8z M226.7,123.9V142
		h2.7c3.6,0,7.3-1.6,7.3-9.2c0-7.8-3.8-8.9-7.5-8.9H226.7z"/>
	<path class="st2" d="M257.8,136.6h-11.2c0.3,4.2,2.2,5.9,4.9,5.9c1.8,0,3-0.5,4.6-1.6l1.2,1.7c-1.7,1.4-3.6,2.2-6,2.2
		c-4.8,0-7.6-3.4-7.6-8.9c0-5.5,2.7-9.3,7.1-9.3c4.7,0,7.1,3.3,7.1,8.5C257.8,135.7,257.8,136.2,257.8,136.6z M255.1,134.3
		c0-3.5-1.4-5.5-4.3-5.5c-2.4,0-4,1.7-4.3,5.8h8.5V134.3z"/>
	<path class="st2" d="M273.4,128.5l-1.2,1.8c-1.6-1-2.9-1.5-4.5-1.5c-2,0-3.4,1-3.4,2.4s1,2.1,3.9,2.9c3.7,1,5.7,2.3,5.7,5.4
		c0,3.5-3.2,5.2-6.7,5.2c-2.9,0-5-1-6.5-2.3l1.5-1.7c1.4,1.1,3,1.7,5,1.7c2.3,0,3.9-1.1,3.9-2.8c0-1.8-0.9-2.5-4.3-3.4
		c-3.7-1-5.2-2.5-5.2-5c0-2.7,2.6-4.7,6.1-4.7C270,126.5,271.7,127.3,273.4,128.5z"/>
	<path class="st2" d="M291.3,142.8l-0.7,1.9c-1.7-0.2-2.8-1-3.2-2.7c-1.2,1.9-3,2.7-5.2,2.7c-3.4,0-5.5-2.1-5.5-5.3
		c0-3.7,2.8-5.7,7.5-5.7h2.8v-1.4c0-2.6-1.2-3.6-3.7-3.6c-1.3,0-2.9,0.3-4.7,1l-0.7-2c2.1-0.8,4-1.2,5.9-1.2c4.1,0,6,2.1,6,5.7v8.1
		C289.9,141.9,290.4,142.4,291.3,142.8z M287.1,139.8v-4.2h-2.5c-3.2,0-5,1.2-5,3.7c0,2.1,1.1,3.3,3.2,3.3
		C284.7,142.6,286.1,141.6,287.1,139.8z"/>
	<path class="st2" d="M305.3,126.7l-0.5,2.7c-0.5-0.1-0.9-0.2-1.5-0.2c-2.2,0-3.5,1.6-4.3,5v10.1h-2.8v-17.4h2.4l0.3,3.6
		c0.9-2.7,2.5-4,4.7-4C304.2,126.5,304.9,126.6,305.3,126.7z"/>
	<path class="st2" d="M318,126.7l-0.5,2.7c-0.5-0.1-0.9-0.2-1.5-0.2c-2.2,0-3.5,1.6-4.3,5v10.1H309v-17.4h2.4l0.3,3.6
		c0.9-2.7,2.5-4,4.7-4C316.9,126.5,317.5,126.6,318,126.7z"/>
	<path class="st2" d="M335.3,135.6c0,5.5-2.8,9.1-7.7,9.1s-7.6-3.5-7.6-9.1c0-5.5,2.8-9.1,7.7-9.1
		C332.5,126.5,335.3,130,335.3,135.6z M323,135.7c0,4.6,1.7,6.8,4.7,6.8c3,0,4.7-2.2,4.7-6.9c0-4.6-1.7-6.8-4.7-6.8
		C324.7,128.8,323,131,323,135.7z"/>
	<path class="st2" d="M340.3,141v-21.1l2.8-0.3v21.4c0,1,0.3,1.5,1.2,1.5c0.4,0,0.8-0.1,1.1-0.2l0.7,2c-0.6,0.3-1.5,0.6-2.3,0.6
		C341.7,144.7,340.3,143.4,340.3,141z"/>
	<path class="st2" d="M349.9,141v-21.1l2.8-0.3v21.4c0,1,0.3,1.5,1.2,1.5c0.4,0,0.8-0.1,1.1-0.2l0.7,2c-0.6,0.3-1.5,0.6-2.3,0.6
		C351.3,144.7,349.9,143.4,349.9,141z"/>
	<path class="st2" d="M373.4,135.6c0,5.5-2.8,9.1-7.7,9.1s-7.6-3.5-7.6-9.1c0-5.5,2.8-9.1,7.7-9.1
		C370.6,126.5,373.4,130,373.4,135.6z M361.1,135.7c0,4.6,1.7,6.8,4.7,6.8c3,0,4.7-2.2,4.7-6.9c0-4.6-1.7-6.8-4.7-6.8
		C362.8,128.8,361.1,131,361.1,135.7z"/>
	<path class="st2" d="M400.6,119.9v24.4h-2.4l-0.3-2.4c-1.1,1.7-2.8,2.8-5.1,2.8c-4.2,0-6.5-3.6-6.5-9c0-5.3,2.5-9.2,6.8-9.2
		c2.1,0,3.6,1,4.7,2.2v-9.1L400.6,119.9z M397.8,139.8v-8.6c-1.1-1.4-2.3-2.4-4.1-2.4c-2.7,0-4.4,2.3-4.4,6.9s1.5,6.8,4.1,6.8
		C395.5,142.5,396.7,141.5,397.8,139.8z"/>
	<path class="st2" d="M420,136.6h-11.2c0.3,4.2,2.2,5.9,4.9,5.9c1.8,0,3-0.5,4.6-1.6l1.2,1.7c-1.7,1.4-3.6,2.2-6,2.2
		c-4.8,0-7.6-3.4-7.6-8.9c0-5.5,2.7-9.3,7.1-9.3c4.7,0,7.1,3.3,7.1,8.5C420,135.7,420,136.2,420,136.6z M417.3,134.3
		c0-3.5-1.4-5.5-4.3-5.5c-2.4,0-4,1.7-4.3,5.8h8.5V134.3z"/>
	<path class="st2" d="M433.9,141v-21.1l2.8-0.3v21.4c0,1,0.3,1.5,1.2,1.5c0.4,0,0.8-0.1,1.1-0.2l0.7,2c-0.6,0.3-1.5,0.6-2.3,0.6
		C435.2,144.7,433.9,143.4,433.9,141z"/>
	<path class="st2" d="M456.6,142.8l-0.7,1.9c-1.7-0.2-2.8-1-3.2-2.7c-1.2,1.9-3,2.7-5.2,2.7c-3.4,0-5.5-2.1-5.5-5.3
		c0-3.7,2.8-5.7,7.5-5.7h2.8v-1.4c0-2.6-1.2-3.6-3.7-3.6c-1.3,0-2.9,0.3-4.7,1l-0.7-2c2.1-0.8,4-1.2,5.9-1.2c4.1,0,6,2.1,6,5.7v8.1
		C455.1,141.9,455.7,142.4,456.6,142.8z M452.4,139.8v-4.2h-2.5c-3.2,0-5,1.2-5,3.7c0,2.1,1.1,3.3,3.2,3.3
		C450,142.6,451.3,141.6,452.4,139.8z"/>
	<path class="st2" d="M472,128.5l-1.2,1.8c-1.6-1-2.9-1.5-4.5-1.5c-2,0-3.4,1-3.4,2.4s1,2.1,3.9,2.9c3.7,1,5.7,2.3,5.7,5.4
		c0,3.5-3.2,5.2-6.7,5.2c-2.9,0-5-1-6.5-2.3l1.5-1.7c1.4,1.1,3,1.7,5,1.7c2.3,0,3.9-1.1,3.9-2.8c0-1.8-0.9-2.5-4.3-3.4
		c-3.7-1-5.2-2.5-5.2-5c0-2.7,2.6-4.7,6.1-4.7C468.5,126.5,470.3,127.3,472,128.5z"/>
	<path class="st2" d="M501.7,144.3h-3.8l-9.6-19.6c0.2,1.8,0.4,4.4,0.4,8.6v11H486v-22.7h3.7l9.7,19.6c-0.1-0.6-0.4-4.1-0.4-6.9
		v-12.7h2.7V144.3z"/>
	<path class="st2" d="M521.2,136.6H510c0.3,4.2,2.2,5.9,4.9,5.9c1.8,0,3-0.5,4.6-1.6l1.2,1.7c-1.7,1.4-3.6,2.2-6,2.2
		c-4.8,0-7.6-3.4-7.6-8.9c0-5.5,2.7-9.3,7.1-9.3c4.7,0,7.1,3.3,7.1,8.5C521.2,135.7,521.2,136.2,521.2,136.6z M518.5,134.3
		c0-3.5-1.4-5.5-4.3-5.5c-2.4,0-4,1.7-4.3,5.8h8.5V134.3z"/>
	<path class="st2" d="M539.2,144.3h-2.4l-0.2-2.8c-1.3,2.1-2.9,3.2-5.5,3.2c-3.1,0-4.9-1.9-4.9-5.3v-12.5h2.8v12.2
		c0,2.5,0.9,3.4,2.8,3.4s3.4-1.3,4.5-3.1v-12.5h2.8V144.3z"/>
	<path class="st2" d="M554.7,126.7l-0.5,2.7c-0.5-0.1-0.9-0.2-1.5-0.2c-2.2,0-3.5,1.6-4.3,5v10.1h-2.8v-17.4h2.4l0.3,3.6
		c0.9-2.7,2.5-4,4.7-4C553.5,126.5,554.2,126.6,554.7,126.7z"/>
	<path class="st2" d="M571.9,135.6c0,5.5-2.8,9.1-7.7,9.1s-7.6-3.5-7.6-9.1c0-5.5,2.8-9.1,7.7-9.1
		C569.2,126.5,571.9,130,571.9,135.6z M559.6,135.7c0,4.6,1.7,6.8,4.7,6.8c3,0,4.7-2.2,4.7-6.9c0-4.6-1.7-6.8-4.7-6.8
		C561.3,128.8,559.6,131,559.6,135.7z"/>
	<path class="st2" d="M588.6,128.4l-1.4,1.8c-1.2-0.9-2.3-1.3-3.8-1.3c-2.8,0-4.7,2.2-4.7,6.9c0,4.6,1.8,6.6,4.7,6.6
		c1.5,0,2.5-0.5,3.8-1.4l1.3,1.8c-1.5,1.3-3.2,1.9-5.2,1.9c-4.6,0-7.5-3.3-7.5-9c0-5.6,2.9-9.2,7.5-9.2
		C585.4,126.5,587,127.1,588.6,128.4z"/>
	<path class="st2" d="M596.2,120.6c0,1.1-0.8,1.9-2,1.9c-1.2,0-1.9-0.8-1.9-1.9c0-1.1,0.8-1.9,1.9-1.9
		C595.4,118.7,596.2,119.6,596.2,120.6z M595.6,144.3h-2.8v-17.4h2.8V144.3z"/>
	<path class="st2" d="M614.9,136.6h-11.2c0.3,4.2,2.2,5.9,4.9,5.9c1.8,0,3-0.5,4.6-1.6l1.2,1.7c-1.7,1.4-3.6,2.2-6,2.2
		c-4.8,0-7.6-3.4-7.6-8.9c0-5.5,2.7-9.3,7.1-9.3c4.7,0,7.1,3.3,7.1,8.5C615,135.7,615,136.2,614.9,136.6z M612.3,134.3
		c0-3.5-1.4-5.5-4.3-5.5c-2.4,0-4,1.7-4.3,5.8h8.5V134.3z"/>
	<path class="st2" d="M633.2,131.9v12.5h-2.8v-12.1c0-2.7-1.1-3.5-2.9-3.5c-2,0-3.4,1.3-4.6,3.2v12.4h-2.8v-17.4h2.4l0.2,2.6
		c1.3-1.8,3.1-3,5.5-3C631.4,126.5,633.2,128.5,633.2,131.9z"/>
	<path class="st2" d="M650.9,128.4l-1.4,1.8c-1.2-0.9-2.3-1.3-3.8-1.3c-2.8,0-4.7,2.2-4.7,6.9c0,4.6,1.8,6.6,4.7,6.6
		c1.5,0,2.5-0.5,3.8-1.4l1.3,1.8c-1.5,1.3-3.2,1.9-5.2,1.9c-4.6,0-7.5-3.3-7.5-9c0-5.6,2.9-9.2,7.5-9.2
		C647.7,126.5,649.4,127.1,650.9,128.4z"/>
	<path class="st2" d="M658.5,120.6c0,1.1-0.8,1.9-2,1.9c-1.2,0-2-0.8-2-1.9c0-1.1,0.8-1.9,2-1.9
		C657.8,118.7,658.5,119.6,658.5,120.6z M658,144.3h-2.8v-17.4h2.8V144.3z"/>
	<path class="st2" d="M677.4,142.8l-0.7,1.9c-1.7-0.2-2.8-1-3.2-2.7c-1.2,1.9-3,2.7-5.2,2.7c-3.4,0-5.5-2.1-5.5-5.3
		c0-3.7,2.8-5.7,7.5-5.7h2.8v-1.4c0-2.6-1.2-3.6-3.7-3.6c-1.3,0-2.9,0.3-4.7,1l-0.7-2c2.1-0.8,4-1.2,5.9-1.2c4.1,0,6,2.1,6,5.7v8.1
		C675.9,141.9,676.5,142.4,677.4,142.8z M673.2,139.8v-4.2h-2.5c-3.2,0-5,1.2-5,3.7c0,2.1,1.1,3.3,3.2,3.3
		C670.8,142.6,672.1,141.6,673.2,139.8z"/>
	<path class="st2" d="M692.8,128.5l-1.2,1.8c-1.6-1-2.9-1.5-4.5-1.5c-2,0-3.4,1-3.4,2.4s1,2.1,3.9,2.9c3.7,1,5.7,2.3,5.7,5.4
		c0,3.5-3.2,5.2-6.7,5.2c-2.9,0-5-1-6.5-2.3l1.5-1.7c1.4,1.1,3,1.7,5,1.7c2.3,0,3.9-1.1,3.9-2.8c0-1.8-0.9-2.5-4.3-3.4
		c-3.7-1-5.2-2.5-5.2-5c0-2.7,2.6-4.7,6.1-4.7C689.3,126.5,691.1,127.3,692.8,128.5z"/>
</g>
</svg>
