<?xml version="1.0" encoding="utf-8"?>
<!-- Generator: Adobe Illustrator 16.0.0, SVG Export Plug-In . SVG Version: 6.00 Build 0)  -->
<!DOCTYPE svg PUBLIC "-//W3C//DTD SVG 1.1//EN" "http://www.w3.org/Graphics/SVG/1.1/DTD/svg11.dtd">
<svg version="1.1" id="Layer_1" xmlns="http://www.w3.org/2000/svg" xmlns:xlink="http://www.w3.org/1999/xlink" x="0px" y="0px"
	 width="227.324px" height="51.196px" viewBox="0 0 227.324 51.196" enable-background="new 0 0 227.324 51.196"
	 xml:space="preserve">
<path fill="#383D93" d="M31.291,22.16c-0.033,0-0.099,0-0.132-0.033C31.225,22.126,31.258,22.126,31.291,22.16z M29.806,44.531
	c-0.066,0-0.132,0.033-0.198,0.033C29.641,44.564,29.707,44.564,29.806,44.531z M31.555,22.192c-0.033,0-0.099-0.033-0.132-0.033
	C31.456,22.192,31.521,22.192,31.555,22.192z M30.169,44.465c-0.066,0-0.132,0.033-0.198,0.033
	C30.037,44.498,30.103,44.498,30.169,44.465z M30.994,44.234c0.132-0.033,0.264-0.1,0.396-0.165
	C31.258,44.135,31.125,44.168,30.994,44.234z M31.39,44.069c0.099-0.033,0.198-0.065,0.297-0.132
	C31.588,44.004,31.489,44.036,31.39,44.069z M30.829,22.061c-0.033,0-0.099,0-0.132-0.033
	C30.763,22.061,30.796,22.061,30.829,22.061z M31.06,22.094c-0.033,0-0.099,0-0.132-0.033C30.994,22.094,31.027,22.094,31.06,22.094
	z M30.598,44.366c-0.132,0.033-0.231,0.065-0.33,0.099C30.367,44.432,30.499,44.399,30.598,44.366z M33.601,22.753
	c0.099,0.033,0.198,0.066,0.297,0.099C33.766,22.819,33.667,22.787,33.601,22.753z M33.304,22.654
	c0.099,0.033,0.165,0.066,0.264,0.099C33.468,22.721,33.37,22.688,33.304,22.654z M33.963,22.885
	c0.066,0.033,0.165,0.066,0.231,0.099C34.095,22.952,34.029,22.918,33.963,22.885z M31.819,22.258c-0.033,0-0.099-0.033-0.132-0.033
	C31.72,22.226,31.752,22.226,31.819,22.258z M32.908,22.522c-0.066-0.033-0.099-0.033-0.165-0.066
	C32.775,22.489,32.841,22.522,32.908,22.522z M32.083,22.292c-0.033,0-0.099-0.033-0.132-0.033
	C31.983,22.292,32.017,22.292,32.083,22.292z M32.61,22.457c-0.066,0-0.099-0.033-0.165-0.033
	C32.512,22.423,32.578,22.423,32.61,22.457z M32.347,22.391c-0.066,0-0.099-0.033-0.165-0.033
	C32.248,22.357,32.281,22.357,32.347,22.391z M30.4,21.995c-0.033,0-0.066,0-0.132,0C30.334,21.995,30.367,21.995,30.4,21.995z
	 M29.278,21.929c0.033,0,0.066,0,0.132,0C29.344,21.929,29.311,21.929,29.278,21.929z M28.915,21.896
	C28.882,21.896,28.882,21.896,28.915,21.896C28.882,21.896,28.882,21.896,28.915,21.896z M29.41,21.929c0.033,0,0.066,0,0.132,0
	C29.476,21.929,29.443,21.929,29.41,21.929z M30.631,22.027c-0.033,0-0.066,0-0.132,0C30.532,22.027,30.565,22.027,30.631,22.027z
	 M29.047,21.896c-0.033,0-0.033,0-0.066,0C28.981,21.896,29.014,21.896,29.047,21.896z M28.915,21.896L28.915,21.896
	C28.915,21.896,28.948,21.896,28.915,21.896C28.948,21.896,28.948,21.896,28.915,21.896z M29.674,21.929c-0.033,0-0.066,0-0.099,0
	C29.608,21.929,29.641,21.929,29.674,21.929z M29.146,21.896c0.033,0,0.066,0,0.099,0C29.212,21.896,29.179,21.896,29.146,21.896z
	 M29.113,21.896c-0.033,0-0.033,0-0.066,0C29.08,21.896,29.113,21.896,29.113,21.896z M28.849,21.896L28.849,21.896L28.849,21.896z
	 M32.413,43.541c-0.099,0.066-0.198,0.133-0.297,0.165C32.214,43.674,32.313,43.607,32.413,43.541z M34.458,23.083
	c-0.066-0.033-0.132-0.066-0.198-0.066C34.359,23.05,34.393,23.083,34.458,23.083z M31.687,43.938
	c0.099-0.033,0.198-0.1,0.297-0.133C31.885,43.838,31.786,43.904,31.687,43.938z M30.202,21.995c-0.033,0-0.066,0-0.099,0
	C30.136,21.961,30.169,21.995,30.202,21.995z M35.679,37.898c-0.033,0.33-0.066,0.627-0.132,0.924
	C35.613,38.525,35.646,38.229,35.679,37.898z M29.839,21.961c-0.033,0-0.066,0-0.099,0C29.773,21.929,29.806,21.961,29.839,21.961z
	 M30.037,21.961c-0.033,0-0.066,0-0.099,0C29.938,21.961,29.971,21.961,30.037,21.961z M32.413,43.541
	c0.198-0.132,0.396-0.264,0.594-0.429C32.809,43.277,32.61,43.409,32.413,43.541z M33.006,22.556
	c0.066,0.033,0.132,0.033,0.198,0.066C33.139,22.588,33.072,22.588,33.006,22.556z M36.405,24.139
	c0.066,0.033,0.099,0.066,0.165,0.099C36.504,24.205,36.471,24.172,36.405,24.139z M36.108,23.941
	c0.066,0.033,0.099,0.066,0.165,0.099C36.207,24.007,36.174,23.974,36.108,23.941z M35.217,23.446
	c0.066,0.033,0.099,0.066,0.165,0.099C35.316,23.479,35.25,23.479,35.217,23.446z M35.811,23.776
	c0.066,0.033,0.099,0.066,0.165,0.099C35.91,23.842,35.877,23.81,35.811,23.776z M36.702,24.337
	c0.066,0.033,0.099,0.066,0.165,0.099C36.801,24.403,36.768,24.37,36.702,24.337z M35.679,23.677
	c-0.066-0.033-0.099-0.066-0.165-0.099C35.547,23.611,35.613,23.645,35.679,23.677z M35.415,39.351
	c-0.495,1.782-1.418,2.97-2.409,3.762C33.997,42.354,34.92,41.166,35.415,39.351z M38.022,25.393L38.022,25.393
	c-0.033-0.033-0.099-0.099-0.132-0.132C37.923,25.294,37.956,25.327,38.022,25.393z M28.816,21.896L28.816,21.896L28.816,21.896H1
	v29.301l0,0V21.896H28.816z M37.593,24.997c0.066,0.033,0.099,0.099,0.165,0.132C37.692,25.096,37.626,25.063,37.593,24.997z
	 M37.164,24.667c-0.066-0.033-0.099-0.066-0.165-0.132C37.065,24.568,37.098,24.634,37.164,24.667z M37.296,24.766
	c0.066,0.033,0.099,0.099,0.165,0.132C37.395,24.865,37.362,24.799,37.296,24.766z M34.887,23.281
	c0.066,0.033,0.132,0.066,0.165,0.099C35.02,23.347,34.953,23.314,34.887,23.281z M34.59,23.149
	c0.066,0.033,0.132,0.066,0.165,0.066C34.722,23.215,34.656,23.183,34.59,23.149z M39.177,26.68
	c-0.066-0.099-0.165-0.198-0.231-0.297C39.045,26.482,39.111,26.581,39.177,26.68z M38.022,25.393L38.022,25.393L38.022,25.393
	L38.022,25.393z M38.682,26.086c0.066,0.066,0.132,0.132,0.165,0.198C38.814,26.218,38.748,26.152,38.682,26.086z M40.926,29.781
	c-0.033-0.065-0.066-0.164-0.099-0.23C40.86,29.617,40.893,29.716,40.926,29.781z M41.322,30.97
	c0.033,0.099,0.066,0.165,0.066,0.264C41.388,31.135,41.354,31.035,41.322,30.97z M38.418,25.789
	c0.066,0.066,0.099,0.132,0.165,0.165C38.517,25.921,38.484,25.855,38.418,25.789z M42.015,36.348c0-0.099,0-0.164,0-0.164
	c0-0.231,0-0.43,0-0.66c0,0.23,0,0.429,0,0.66C42.015,36.184,42.015,36.249,42.015,36.348z M41.189,30.475
	c0.033,0.1,0.066,0.165,0.066,0.264C41.223,30.64,41.189,30.541,41.189,30.475z M41.091,30.244c-0.033-0.1-0.066-0.166-0.099-0.265
	C41.058,30.078,41.058,30.178,41.091,30.244z M38.319,25.657c-0.066-0.066-0.099-0.099-0.165-0.165
	C38.187,25.558,38.253,25.624,38.319,25.657z M41.52,31.729c-0.033-0.1-0.033-0.198-0.066-0.297
	C41.487,31.563,41.52,31.629,41.52,31.729z M40.662,29.121c0.033,0.066,0.066,0.166,0.099,0.231
	C40.728,29.254,40.695,29.188,40.662,29.121z M41.916,34.27c0,0.132,0.033,0.23,0.033,0.363C41.949,34.5,41.916,34.368,41.916,34.27
	z M41.981,35.292c0-0.132,0-0.297-0.033-0.429C41.981,35.028,41.981,35.16,41.981,35.292z M41.883,34.006
	c0-0.1-0.033-0.231-0.033-0.33C41.883,33.774,41.883,33.873,41.883,34.006z M40.563,28.924c-0.033-0.066-0.066-0.165-0.099-0.23
	C40.497,28.759,40.53,28.824,40.563,28.924z M40.365,28.494c-0.033-0.065-0.066-0.164-0.132-0.23
	C40.266,28.363,40.332,28.429,40.365,28.494z M41.816,33.411c0-0.099-0.033-0.231-0.033-0.329
	C41.784,33.18,41.816,33.313,41.816,33.411z M39.771,27.505c0.033,0.065,0.099,0.132,0.132,0.231
	C39.87,27.67,39.837,27.604,39.771,27.505z M39.54,27.143c0.066,0.065,0.099,0.164,0.165,0.23
	C39.639,27.307,39.573,27.208,39.54,27.143z M41.75,32.817c-0.033-0.099-0.033-0.198-0.066-0.297
	C41.718,32.619,41.718,32.719,41.75,32.817z M39.441,27.043c-0.066-0.1-0.165-0.23-0.264-0.33
	C39.276,26.813,39.375,26.911,39.441,27.043z M41.585,31.992c0.033,0.1,0.033,0.198,0.066,0.297
	C41.619,32.19,41.619,32.092,41.585,31.992z M40.134,28.132C40.101,28.066,40.035,28,40.002,27.9
	C40.068,27.967,40.101,28.033,40.134,28.132z M14.99,51.196h5.643V29.221H14.99V51.196z M50.528,21.896v11.714l-6.435-11.714H38.88
	v2.904c2.442,2.144,4.389,5.609,4.389,11.384c0,0.297,0.165,7.754-4.224,12.241c-0.066,0.065-0.132,0.132-0.165,0.165v2.606h5.643
	V39.252l5.84,11.944h5.84V21.896H50.528z M38.022,47.699c-1.914,2.012-4.751,3.497-8.909,3.497h-5.642V29.914h5.906v14.684
	c0,0,0.066,0,0.198-0.033c0.066,0,0.132-0.033,0.198-0.033s0.099-0.033,0.165-0.033s0.132-0.033,0.198-0.033
	c0.033,0,0.066,0,0.099-0.033c0.099-0.033,0.231-0.065,0.33-0.099c0.132-0.032,0.264-0.065,0.396-0.132
	c0.132-0.033,0.264-0.1,0.396-0.165c0.099-0.033,0.198-0.065,0.297-0.132c0.099-0.066,0.198-0.1,0.297-0.132
	c0.033-0.033,0.099-0.066,0.132-0.066c0.099-0.065,0.198-0.099,0.297-0.165c0.198-0.132,0.396-0.264,0.594-0.429
	c0.99-0.792,1.914-1.946,2.409-3.762c0.033-0.165,0.099-0.362,0.132-0.562c0.066-0.297,0.099-0.594,0.132-0.924
	c0.033-0.428,0.066-0.857,0.066-1.352c0,0,0.693-9.041-6.666-9.041H6.939v6.104h5.543v6.104H6.873v11.516H1V21.896h27.816l0,0l0,0
	c0,0,0,0,0.033,0l0,0h0.033l0,0h0.033h0.033c0,0,0.033,0,0.066,0h0.033c0.033,0,0.033,0,0.066,0h0.033c0.033,0,0.066,0,0.099,0l0,0
	c0.033,0,0.066,0,0.132,0c0,0,0,0,0.033,0c0.033,0,0.066,0,0.132,0h0.033c0.033,0,0.066,0,0.099,0s0.033,0,0.066,0
	c0.033,0,0.066,0,0.099,0s0.033,0,0.066,0c0.033,0,0.066,0,0.099,0c0.033,0,0.066,0,0.066,0c0.033,0,0.066,0,0.099,0
	c0.033,0,0.066,0,0.099,0c0.033,0,0.066,0,0.132,0c0.033,0,0.066,0,0.099,0c0.033,0,0.066,0,0.132,0c0.033,0,0.066,0,0.099,0
	c0.033,0,0.066,0,0.132,0.033c0.033,0,0.066,0,0.099,0c0.033,0,0.099,0,0.132,0.033c0.033,0,0.066,0,0.099,0.033
	c0.033,0,0.099,0,0.132,0.033c0.033,0,0.066,0,0.099,0.033c0.033,0,0.099,0.033,0.132,0.033s0.066,0,0.099,0.033
	c0.033,0,0.099,0.033,0.132,0.033s0.066,0.033,0.099,0.033c0.033,0,0.099,0.033,0.132,0.033s0.066,0.033,0.132,0.033
	c0.066,0,0.099,0.033,0.165,0.033c0.033,0,0.066,0.033,0.132,0.033c0.066,0,0.099,0.033,0.165,0.033
	c0.033,0,0.066,0.033,0.099,0.033c0.066,0,0.099,0.033,0.165,0.066c0.033,0,0.066,0.033,0.099,0.033
	c0.066,0.033,0.132,0.033,0.198,0.066c0.033,0,0.066,0.033,0.099,0.033c0.099,0.033,0.165,0.066,0.264,0.099h0.033
	c0.099,0.033,0.198,0.066,0.297,0.099c0.033,0,0.033,0.033,0.066,0.033c0.066,0.033,0.165,0.066,0.231,0.099
	c0.033,0,0.066,0.033,0.099,0.033c0.066,0.033,0.132,0.066,0.198,0.066c0.033,0.033,0.066,0.033,0.132,0.066
	c0.066,0.033,0.132,0.066,0.165,0.066c0.033,0.033,0.099,0.033,0.132,0.066c0.066,0.033,0.132,0.066,0.165,0.099
	c0.033,0.033,0.099,0.033,0.132,0.066c0.066,0.033,0.099,0.066,0.165,0.099c0.033,0.033,0.099,0.033,0.132,0.066
	c0.066,0.033,0.099,0.066,0.165,0.099c0.033,0.033,0.099,0.066,0.132,0.066c0.066,0.033,0.099,0.066,0.165,0.099
	c0.033,0.033,0.099,0.066,0.132,0.066c0.066,0.033,0.099,0.066,0.165,0.099c0.033,0.033,0.099,0.066,0.132,0.099
	c0.066,0.033,0.099,0.066,0.165,0.099c0.033,0.033,0.099,0.066,0.132,0.099c0.066,0.033,0.099,0.066,0.165,0.099
	c0.033,0.033,0.099,0.066,0.132,0.099c0.066,0.033,0.099,0.066,0.165,0.132c0.033,0.033,0.099,0.066,0.132,0.099
	c0.066,0.033,0.099,0.099,0.165,0.132c0.033,0.033,0.099,0.066,0.132,0.099c0.066,0.033,0.099,0.099,0.165,0.132
	c0.033,0.033,0.099,0.066,0.132,0.099c0.033,0.033,0.099,0.099,0.132,0.132l0,0c0.033,0.033,0.066,0.066,0.132,0.099
	c0.066,0.066,0.099,0.099,0.165,0.165c0.033,0.033,0.066,0.066,0.132,0.132c0.066,0.066,0.099,0.132,0.165,0.165
	c0.033,0.033,0.066,0.066,0.099,0.099c0.066,0.066,0.132,0.132,0.165,0.198c0.033,0.033,0.066,0.066,0.099,0.099
	c0.066,0.099,0.165,0.198,0.231,0.297c0,0,0,0.033,0.033,0.033c0.099,0.099,0.165,0.231,0.264,0.33
	c0.033,0.032,0.033,0.065,0.066,0.099c0.066,0.066,0.099,0.165,0.165,0.231c0.033,0.032,0.066,0.099,0.099,0.132
	c0.033,0.066,0.099,0.132,0.132,0.23c0.033,0.066,0.066,0.1,0.099,0.166c0.033,0.065,0.099,0.131,0.132,0.23
	c0.033,0.066,0.066,0.099,0.099,0.165c0.033,0.065,0.066,0.132,0.132,0.231c0.033,0.065,0.066,0.131,0.099,0.164
	c0.033,0.066,0.066,0.165,0.099,0.231c0.033,0.065,0.066,0.132,0.099,0.198c0.033,0.065,0.066,0.164,0.099,0.23
	c0.033,0.066,0.066,0.132,0.099,0.198c0.033,0.065,0.066,0.165,0.099,0.231c0.033,0.065,0.066,0.131,0.066,0.197
	c0.033,0.1,0.066,0.165,0.099,0.264c0.033,0.066,0.033,0.133,0.066,0.231s0.066,0.165,0.066,0.264
	c0.033,0.066,0.033,0.165,0.066,0.231c0.033,0.099,0.066,0.164,0.066,0.264c0.033,0.066,0.033,0.165,0.066,0.23
	c0.033,0.1,0.033,0.198,0.066,0.297c0.033,0.066,0.033,0.166,0.066,0.231c0.033,0.099,0.033,0.198,0.066,0.297
	c0,0.066,0.033,0.165,0.033,0.265c0.033,0.099,0.033,0.197,0.066,0.297c0,0.099,0.033,0.164,0.033,0.264s0.033,0.23,0.033,0.33
	c0,0.099,0.033,0.165,0.033,0.264c0,0.1,0.033,0.23,0.033,0.33s0.033,0.165,0.033,0.264c0,0.133,0.033,0.231,0.033,0.363
	c0,0.1,0,0.165,0.033,0.264c0,0.133,0,0.297,0.033,0.43c0,0.065,0,0.131,0,0.197c0,0.231,0,0.43,0,0.66c0,0,0,0.066,0,0.165
	c0,0.528-0.033,2.211-0.495,4.257c-0.066,0.33-0.165,0.66-0.231,0.99c-0.132,0.461-0.264,0.924-0.429,1.385
	c-0.132,0.363-0.264,0.693-0.429,1.057c-0.099,0.23-0.231,0.462-0.33,0.692c-0.132,0.231-0.231,0.462-0.363,0.693
	c-0.132,0.231-0.264,0.462-0.429,0.692c-0.066,0.1-0.165,0.231-0.231,0.33c-0.165,0.231-0.33,0.43-0.495,0.66
	C38.385,47.303,38.187,47.501,38.022,47.699z M19.313,24.568c0-0.825-0.693-1.518-1.518-1.518c-0.825,0-1.518,0.693-1.518,1.518
	c0,0.825,0.693,1.518,1.518,1.518C18.62,26.086,19.313,25.393,19.313,24.568z M28.849,21.896L28.849,21.896L28.849,21.896z
	 M28.981,21.896C28.981,21.896,28.948,21.896,28.981,21.896C28.948,21.896,28.981,21.896,28.981,21.896z M28.915,21.896
	L28.915,21.896L28.915,21.896z M28.882,21.896C28.882,21.896,28.849,21.896,28.882,21.896
	C28.849,21.896,28.882,21.896,28.882,21.896z M36.273,24.041c0.033,0.033,0.099,0.066,0.132,0.099
	C36.372,24.106,36.306,24.073,36.273,24.041z M33.304,22.654c-0.033,0-0.066-0.033-0.099-0.033
	C33.237,22.622,33.271,22.654,33.304,22.654z M32.347,22.391c0.033,0,0.066,0.033,0.132,0.033
	C32.413,22.391,32.379,22.391,32.347,22.391z M36.57,24.238c0.033,0.033,0.099,0.066,0.132,0.099
	C36.669,24.304,36.603,24.271,36.57,24.238z M33.006,22.556c-0.033,0-0.066-0.033-0.099-0.033
	C32.94,22.556,32.974,22.556,33.006,22.556z M32.61,22.457c0.033,0,0.066,0.033,0.099,0.033
	C32.677,22.457,32.644,22.457,32.61,22.457z M37.296,24.766c-0.033-0.033-0.099-0.066-0.132-0.099
	C37.197,24.7,37.263,24.733,37.296,24.766z M36.999,24.535c-0.033-0.033-0.099-0.066-0.132-0.099
	C36.9,24.469,36.966,24.502,36.999,24.535z M31.819,22.258c0.033,0,0.066,0.033,0.099,0.033
	C31.885,22.258,31.852,22.258,31.819,22.258z M32.182,22.325c-0.033,0-0.066-0.033-0.132-0.033
	C32.116,22.325,32.148,22.325,32.182,22.325z M34.161,22.984c0.033,0,0.066,0.033,0.099,0.033
	C34.26,23.018,34.194,22.984,34.161,22.984z M37.593,24.997c-0.033-0.033-0.099-0.066-0.132-0.099
	C37.494,24.931,37.527,24.964,37.593,24.997z M35.514,23.578c-0.033-0.033-0.099-0.033-0.132-0.066
	C35.415,23.545,35.448,23.578,35.514,23.578z M36.108,23.941c-0.033-0.033-0.099-0.066-0.132-0.066
	C36.009,23.875,36.075,23.908,36.108,23.941z M35.217,23.446c-0.033-0.033-0.099-0.033-0.132-0.066
	C35.118,23.38,35.151,23.414,35.217,23.446z M34.59,23.149c-0.033-0.033-0.066-0.033-0.132-0.066
	C34.524,23.116,34.557,23.116,34.59,23.149z M29.047,21.896L29.047,21.896L29.047,21.896z M33.601,22.753
	C33.567,22.753,33.567,22.753,33.601,22.753C33.567,22.753,33.567,22.753,33.601,22.753z M35.679,23.677
	c0.033,0.033,0.099,0.066,0.132,0.066C35.778,23.743,35.712,23.71,35.679,23.677z M33.963,22.885c-0.033,0-0.033-0.033-0.066-0.033
	C33.897,22.853,33.93,22.885,33.963,22.885z M34.755,23.215c0.033,0.033,0.099,0.033,0.132,0.066
	C34.854,23.281,34.821,23.249,34.755,23.215z M30.729,22.061c-0.033,0-0.066,0-0.099,0C30.664,22.027,30.697,22.061,30.729,22.061z
	 M30.829,22.061c0.033,0,0.066,0,0.099,0C30.895,22.094,30.862,22.061,30.829,22.061z M29.74,21.929c-0.033,0-0.033,0-0.066,0
	C29.707,21.929,29.707,21.929,29.74,21.929z M31.159,22.126c-0.033,0-0.066,0-0.099-0.033
	C31.093,22.126,31.125,22.126,31.159,22.126z M29.905,21.961c-0.033,0-0.033,0-0.066,0C29.872,21.961,29.905,21.961,29.905,21.961z
	 M30.103,21.961c-0.033,0-0.066,0-0.066,0S30.07,21.961,30.103,21.961z M30.4,21.995c0.033,0,0.066,0,0.099,0
	C30.466,22.027,30.433,22.027,30.4,21.995z M31.423,22.16c-0.033,0-0.066,0-0.099-0.033C31.356,22.16,31.39,22.16,31.423,22.16z
	 M30.301,21.995c-0.033,0-0.066,0-0.099,0C30.235,21.995,30.268,21.995,30.301,21.995z M29.278,21.929
	C29.278,21.929,29.245,21.929,29.278,21.929C29.245,21.929,29.278,21.929,29.278,21.929z M29.542,21.929h0.033H29.542z
	 M37.857,25.261c-0.033-0.033-0.099-0.066-0.132-0.099C37.791,25.162,37.824,25.228,37.857,25.261z M29.113,21.896
	C29.146,21.896,29.146,21.896,29.113,21.896C29.146,21.896,29.146,21.896,29.113,21.896z M31.555,22.192
	c0.033,0,0.066,0,0.099,0.033C31.621,22.226,31.588,22.192,31.555,22.192z M29.377,21.929C29.41,21.929,29.41,21.929,29.377,21.929
	C29.41,21.929,29.41,21.929,29.377,21.929z M40.464,28.693c-0.033-0.066-0.066-0.133-0.099-0.166
	C40.398,28.561,40.431,28.627,40.464,28.693z M39.54,27.143c-0.033-0.033-0.033-0.066-0.066-0.1
	C39.474,27.076,39.507,27.109,39.54,27.143z M39.936,27.736c0.033,0.065,0.066,0.099,0.099,0.164
	C40.002,27.835,39.969,27.802,39.936,27.736z M38.946,26.383c-0.033-0.033-0.066-0.066-0.099-0.099
	C38.88,26.317,38.913,26.35,38.946,26.383z M39.21,26.713C39.21,26.68,39.177,26.68,39.21,26.713
	C39.177,26.68,39.21,26.68,39.21,26.713z M38.682,26.086c-0.033-0.033-0.066-0.066-0.099-0.099
	C38.616,25.987,38.649,26.053,38.682,26.086z M39.771,27.505c-0.033-0.032-0.066-0.099-0.099-0.132
	C39.738,27.406,39.771,27.473,39.771,27.505z M38.022,25.393c0.033,0.033,0.066,0.066,0.132,0.099
	C38.121,25.492,38.055,25.426,38.022,25.393z M38.418,25.789c-0.033-0.033-0.066-0.066-0.132-0.132
	C38.352,25.723,38.385,25.756,38.418,25.789z M40.233,28.297c-0.033-0.066-0.066-0.1-0.099-0.165
	C40.167,28.165,40.2,28.23,40.233,28.297z M41.256,41.594c-0.132,0.463-0.264,0.925-0.429,1.387
	C40.992,42.519,41.124,42.057,41.256,41.594z M41.949,34.896c0-0.1,0-0.165-0.033-0.264C41.949,34.698,41.949,34.797,41.949,34.896z
	 M42.015,36.348c0,0.528-0.033,2.211-0.495,4.257C41.949,38.559,42.015,36.876,42.015,36.348z M41.981,35.523
	c0-0.066,0-0.133,0-0.198C41.981,35.391,41.981,35.457,41.981,35.523z M41.256,41.594c0.099-0.329,0.165-0.659,0.231-0.989
	C41.42,40.935,41.354,41.265,41.256,41.594z M39.672,45.422c-0.132,0.23-0.264,0.462-0.429,0.693
	C39.408,45.884,39.54,45.652,39.672,45.422z M38.55,47.072c0.165-0.198,0.33-0.43,0.495-0.66
	C38.88,46.643,38.715,46.874,38.55,47.072z M40.398,44.036c0.165-0.362,0.297-0.692,0.429-1.056
	C40.695,43.344,40.563,43.674,40.398,44.036z M40.068,44.729c0.132-0.23,0.231-0.461,0.33-0.692
	C40.299,44.268,40.167,44.498,40.068,44.729z M41.454,31.465c-0.033-0.066-0.033-0.165-0.066-0.231
	C41.42,31.3,41.454,31.365,41.454,31.465z M41.256,30.738c0.033,0.066,0.033,0.166,0.066,0.231
	C41.289,30.871,41.289,30.805,41.256,30.738z M41.189,30.475c-0.033-0.066-0.033-0.132-0.066-0.23
	C41.124,30.31,41.157,30.408,41.189,30.475z M41.916,34.27c0-0.1-0.033-0.165-0.033-0.264C41.916,34.104,41.916,34.17,41.916,34.27z
	 M41.024,30.013c-0.033-0.065-0.066-0.132-0.066-0.198C40.958,29.848,40.992,29.914,41.024,30.013z M40.827,29.551
	c-0.033-0.066-0.066-0.132-0.099-0.198C40.793,29.419,40.793,29.484,40.827,29.551z M41.784,33.082c0-0.1-0.033-0.166-0.033-0.265
	C41.75,32.916,41.784,32.982,41.784,33.082z M41.85,33.676c0-0.1-0.033-0.166-0.033-0.265C41.85,33.478,41.85,33.576,41.85,33.676z
	 M41.585,31.992c-0.033-0.066-0.033-0.164-0.066-0.23C41.553,31.828,41.553,31.894,41.585,31.992z M41.685,32.521
	c0-0.099-0.033-0.165-0.033-0.265C41.651,32.355,41.685,32.455,41.685,32.521z"/>
<path fill="#8585E0" d="M65.343,15.593c0.132-0.099,0.99-0.462,1.518-0.594c0.528-0.132,1.716-0.198,1.716-0.23
	c0-0.066-0.99-0.264-1.65-0.132c-0.66,0.132-1.683,0.693-2.31,0.957c-0.627,0.231-0.99,0.264-1.518,0.528
	c-0.528,0.264-1.056,0.99-1.583,1.122c-0.495,0.132-1.485-0.297-1.485-0.297c-0.693-0.132-2.112-0.363-2.772-0.594
	c-0.66-0.231-1.089-0.495-1.221-0.825s0.033-0.759,0.495-1.056c0.462-0.297,1.518-0.693,2.31-0.792
	c0.825-0.132,1.617,0.165,2.541,0.066c0.957-0.099,2.013-0.561,3.135-0.627c1.155-0.066,3.465,0.363,3.762,0.297
	c0.297-0.033-1.386-0.429-2.046-0.561c-0.66-0.132-1.749,0.033-1.815-0.132c-0.066-0.165,0.825-0.693,1.419-0.891
	c0.561-0.198,1.98-0.198,1.98-0.264c0-0.066-1.419-0.23-2.013-0.099c-0.594,0.132-1.155,0.66-1.584,0.924
	c-0.429,0.231-0.561,0.363-0.957,0.495c-0.396,0.132-1.353,0.396-1.452,0.297c-0.099-0.099,0.495-0.627,0.957-0.957
	s1.122-0.66,1.749-0.99c0.627-0.33,1.386-0.792,2.046-1.023c0.66-0.198,1.782-0.198,1.881-0.264s-0.693-0.198-1.287-0.165
	c-0.594,0.033-1.979,0.66-2.244,0.495c-0.264-0.165,0.198-1.056,0.627-1.518c0.462-0.495,2.079-1.253,2.112-1.386
	c0.033-0.132-1.32,0.264-1.881,0.627c-0.528,0.363-1.089,1.155-1.353,1.65c-0.264,0.495,0.165,0.891-0.198,1.287
	s-1.419,0.66-1.947,0.99c-0.495,0.363-0.429,0.924-1.122,1.122c-0.693,0.165-2.837,0.33-3.002-0.066s1.32-1.649,1.947-2.343
	c0.66-0.693,1.188-1.32,1.914-1.814c0.693-0.495,1.551-0.693,2.31-1.254c0.759-0.561,2.21-1.98,2.244-2.079
	c0.033-0.099-1.452,1.155-2.013,1.518s-1.287,0.726-1.419,0.66C63,7.608,63.462,7.047,63.693,6.585
	c0.264-0.429,0.924-1.452,0.924-1.551c0-0.066-0.627,0.693-0.924,1.089c-0.33,0.429-0.627,0.99-1.023,1.386
	c-0.363,0.396-0.825,0.594-1.221,0.957c-0.396,0.363-0.924,1.287-1.122,1.188c-0.198-0.099-0.165-1.221,0-1.782
	c0.165-0.594,0.99-1.584,0.99-1.683c0-0.099-0.693,0.594-0.924,1.089c-0.264,0.495-0.528,1.484-0.627,1.979
	c-0.099,0.462,0.297,0.495,0.066,0.891c-0.264,0.396-1.122,1.122-1.551,1.583c-0.429,0.462-0.495,0.825-1.023,1.089
	c-0.528,0.264-1.683,0.825-2.145,0.561c-0.495-0.231-1.023-1.353-0.759-2.045c0.264-0.693,1.782-1.518,2.441-2.145
	c0.66-0.66,0.99-1.155,1.551-1.716c0.561-0.594,1.254-1.32,1.815-1.749c0.561-0.429,1.518-0.693,1.518-0.759
	c-0.033-0.066-1.089,0-1.617,0.33c-0.528,0.33-1.32,1.584-1.551,1.584s0.033-1.056,0.165-1.65c0.132-0.594,0.693-1.815,0.627-1.815
	s-0.792,1.221-0.99,1.782c-0.198,0.528-0.198,1.056-0.297,1.419c-0.066,0.363,0.099,0.363-0.132,0.759s-0.792,1.188-1.287,1.65
	c-0.495,0.429-1.386,1.188-1.683,0.99c-0.297-0.198-0.462-1.353-0.132-2.244c0.33-0.891,1.947-2.739,2.112-3.036
	s-0.825,0.858-1.188,1.254c-0.363,0.396-0.957,1.386-1.023,1.089s0.099-2.079,0.561-2.871s2.013-1.617,2.178-1.848
	S56.566,2.659,56.17,2.89s-0.858,0.891-1.056,0.792c-0.198-0.099,0.099-0.792-0.066-1.419c-0.165-0.627-0.891-2.112-1.023-2.244
	c-0.132-0.165,0.132,0.792,0.264,1.32c0.132,0.528,0.429,1.155,0.462,1.848c0.066,0.693,0.033,2.112-0.132,2.31
	c-0.198,0.231-0.627-0.495-0.957-0.99c-0.363-0.495-1.022-2.013-1.122-2.013c-0.099-0.033,0.33,1.32,0.561,1.914
	c0.231,0.594,0.726,1.188,0.924,1.584c0.198,0.396,0.198,0.495,0.231,0.891c0.033,0.396,0.231,1.551-0.099,1.485
	c-0.33-0.066-1.485-1.188-1.914-1.914c-0.462-0.726-0.462-1.815-0.759-2.409c-0.33-0.594-0.792-0.66-1.155-1.122
	c-0.363-0.462-0.825-1.452-0.99-1.583c-0.165-0.099-0.132,0.528,0.066,0.891c0.165,0.363,0.726,1.023,0.99,1.353
	c0.231,0.33,0.594,0.528,0.495,0.561c-0.132,0.066-1.254-0.297-1.188-0.231s1.188,0.264,1.485,0.66s0.099,1.221,0.363,1.782
	c0.264,0.528,1.287,1.32,1.188,1.419c-0.099,0.132-1.814-0.792-1.848-0.726c-0.066,0.066,1.155,0.891,1.518,1.122
	c0.363,0.231,0.363-0.132,0.66,0.198c0.297,0.297,0.99,0.99,1.089,1.649c0.099,0.693-0.165,1.881-0.495,2.409
	c-0.33,0.528-0.99,0.726-1.518,0.693c-0.528-0.033-1.287-0.363-1.584-0.891c-0.33-0.495-0.363-1.584-0.297-2.145
	c0.066-0.561,0.759-1.122,0.759-1.221C50.99,8.73,50.33,9.093,50.132,9.357c-0.198,0.264-0.099,1.287-0.297,1.056
	c-0.198-0.198-0.66-1.617-0.858-2.343c-0.198-0.726-0.231-1.418-0.297-1.914c-0.066-0.528,0-1.32-0.066-1.188
	c-0.066,0.099-0.264,1.287-0.264,1.881c0.033,0.594,0.462,1.452,0.363,1.617s-0.528-0.396-0.957-0.627
	c-0.429-0.198-1.452-0.693-1.584-0.66c-0.132,0.033,0.561,0.627,0.858,0.858c0.297,0.231,0.627,0.198,0.924,0.462
	c0.297,0.264,0.528,0.462,0.891,1.056c0.33,0.594,0.726,1.815,1.155,2.541c0.429,0.726,1.221,1.188,1.386,1.782
	c0.165,0.594,0.033,1.386-0.363,1.749c-0.396,0.33-1.452,0.528-2.079,0.33c-0.627-0.165-1.386-0.759-1.617-1.386
	c-0.231-0.66,0.066-1.782,0.231-2.475c0.132-0.693,0.693-1.485,0.627-1.617c-0.066-0.099-0.825,0.429-1.023,0.957
	c-0.231,0.528-0.132,1.914-0.33,2.178c-0.198,0.264-0.528-0.066-0.924-0.528c-0.429-0.462-1.254-1.452-1.584-2.31
	s-0.33-2.376-0.429-2.805c-0.099-0.429-0.231-0.099-0.264,0.231c-0.033,0.363,0.33,1.683,0.099,1.848s-1.419-0.825-1.419-0.825
	c-0.495-0.297-0.891-0.726-1.518-0.891s-2.276-0.165-2.276-0.099s1.551,0.231,2.21,0.462c0.66,0.264,1.155,0.594,1.683,1.023
	c0.528,0.429,0.957,0.891,1.452,1.551c0.495,0.66,1.551,1.914,1.485,2.376s-0.957,0.495-1.815,0.33
	c-0.825-0.165-2.244-1.188-3.167-1.386c-0.924-0.198-2.31,0.099-2.343,0.132c-0.066,0.033,1.419,0,2.013,0.099
	c0.594,0.132,0.858,0.297,1.485,0.594s1.518,0.957,2.343,1.122c0.825,0.165,2.145-0.33,2.64-0.132
	c0.495,0.198,0.693,1.023,0.363,1.32c-0.363,0.297-1.518,0.627-2.508,0.528c-1.023-0.132-3.201-1.155-3.531-1.221
	s1.155,0.627,1.518,0.891c0.363,0.231,0.594,0.264,0.594,0.561c0,0.297-0.759,1.122-0.66,1.155c0.099,0.033,0.66-0.891,1.221-1.023
	s1.452,0.264,2.178,0.165c0.759-0.099,1.881-0.759,2.31-0.726c0.462,0.033,0.66,0.693,0.429,1.023
	c-0.264,0.33-1.254,0.726-1.947,0.99c-0.231,0.099-0.462,0.165-0.726,0.231c0.528,0.099,1.122,0.165,1.65,0.033
	c0.957-0.264,2.079-1.518,2.904-1.716c0.825-0.231,1.583,0.033,2.111,0.396c0.528,0.363,0.891,0.99,1.089,1.716
	c0.198,0.726,0.198,1.814,0.132,2.606s-0.528,1.32-0.528,2.112s0.561,1.782,0.594,2.574c0.033,0.792-0.429,1.485-0.429,2.177
	c0,0.693,0.363,1.287,0.396,2.08c0,0.594-0.231,1.814-0.297,2.309c-0.033,0.066-0.033,0.133-0.033,0.133s-0.231,2.31-0.264,3.002
	c-0.033,0.727,0.132,1.98,0.132,1.98s0.099,1.451,0,2.045c-0.099,0.595-0.132,3.465-0.132,3.465v1.551c0,0-0.363,1.09-0.726,1.354
	c-0.33,0.264-0.528,0.164-0.66,0.561c0,0,0.099-0.132,0.462-0.197c0,0,0.033,0.594-0.297,0.989c-0.33,0.396-0.099,0.099-0.33,0.396
	c0,0,0.066-0.065,0.165-0.065c0,0-0.165,0.659-0.132,0.792c0,0,0.363-0.99,0.594-1.155c0,0,0.132,0.726,0.132,1.022
	c0,0,0.099-1.682,0.132-1.814c0.033-0.132,0.297-0.363,0.297-0.363s0.396-0.428,0.429-0.561c0,0,0.165,0.76,0.033,1.122
	c-0.099,0.363-0.264,0.627-0.264,0.627s-0.132,0.396-0.132,0.627s-0.528,0.692-0.528,0.759c0,0,0.198-0.099,0.33-0.197
	c0,0-0.066,0.989,0,1.121c0,0,0.132-1.386,0.363-1.781c0.231-0.396,0.297,1.154,0.297,1.154s0-1.353-0.066-1.716
	c-0.066-0.362,0.165-0.561,0.165-0.561s0.099-0.099,0.132,0.396c0.033,0.495,0.132,0.66,0.198,0.924c0.099,0.264,0,1.815,0,1.815
	s0.231-1.353,0.165-1.749c0,0,0.726,0.824,0.627,1.32c0,0,0.198-0.793-0.363-1.32c0,0-0.297-0.594-0.264-1.451
	c0.033-0.858-0.33-1.057-0.33-1.057s0.165-0.1,0.429,0.396c0.231,0.461,0.33,1.649,0.33,1.649s0.066-1.089,0-1.319
	c-0.066-0.231,0.429,0.594,0.429,0.594s0.231,1.022,0.099,1.353c0,0,0.165-0.231,0.132-0.562c0,0,0.462,0.627,0.363,1.221
	c0,0,0.231-0.891-0.264-1.484c0,0-0.066-0.197-0.099-0.429c-0.033-0.231,0.561,0.726,0.561,0.726s-0.099-0.726-0.561-1.154
	c-0.462-0.463-1.287-1.947-1.287-1.947s-0.132-3.135,0-3.563c0.132-0.396,0.198-3.366,0.198-3.366S53.53,35.523,53.53,34.5
	c0.033-1.121,0-1.617-0.033-1.814c0.198-0.495,0.66-1.947,0.66-2.541c0.033-0.726-0.528-1.023-0.561-1.683
	c0-0.66,0.495-1.353,0.528-2.178c0.033-0.825-0.396-1.947-0.33-2.739c0.033-0.792,0.462-1.089,0.627-2.046
	c0.132-0.957-0.099-2.937,0.231-3.729c0.33-0.825,1.056-1.023,1.749-1.155s1.551,0.198,2.475,0.396
	c0.924,0.165,2.111,0.561,3.134,0.66c0.99,0.066,1.947-0.396,2.904-0.231s2.805,1.287,2.904,1.254
	c0.099-0.033-2.145-1.155-2.376-1.518c-0.198-0.363,1.188-0.561,1.155-0.66c-0.066-0.099-1.056,0-1.452,0.066
	c-0.396,0.099-0.462,0.363-0.891,0.495c-0.429,0.132-1.617,0.363-1.716,0.231c-0.099-0.132,0.594-0.693,1.122-0.957
	c0.528-0.264,1.287-0.528,2.046-0.627s2.442,0.132,2.541,0.066c0.099-0.033-1.485-0.297-1.914-0.33
	C65.706,15.494,65.244,15.692,65.343,15.593z M53.761,16.55c-0.726,0-1.32-0.66-1.32-1.452s0.594-1.452,1.32-1.452
	s1.32,0.66,1.32,1.452S54.487,16.55,53.761,16.55z"/>
<g>
	<g>
		<path d="M75.209,27.175h-2.871v2.64h2.475v0.76h-2.475v3.332h-0.924v-7.49h3.926L75.209,27.175z"/>
		<path d="M80.884,33.939h-0.792l-0.066-0.924c-0.429,0.693-0.957,1.056-1.814,1.056c-1.023,0-1.617-0.627-1.617-1.749v-4.125h0.924
			v4.026c0,0.825,0.297,1.122,0.924,1.122s1.122-0.43,1.485-1.023v-4.125h0.924v5.742H80.884z"/>
		<path d="M87.319,29.814v4.125h-0.924v-3.992c0-0.892-0.363-1.155-0.957-1.155c-0.66,0-1.122,0.429-1.518,1.056v4.092h-0.924
			v-5.742h0.792l0.066,0.858c0.429-0.594,1.023-0.989,1.815-0.989C86.692,28.066,87.319,28.726,87.319,29.814z"/>
		<path d="M93.72,25.888v8.051h-0.792l-0.099-0.792c-0.363,0.562-0.924,0.924-1.683,0.924c-1.386,0-2.145-1.188-2.145-2.97
			c0-1.749,0.825-3.035,2.244-3.035c0.693,0,1.188,0.33,1.551,0.726v-3.003L93.72,25.888z M92.829,32.422v-2.838
			c-0.363-0.463-0.759-0.792-1.353-0.792c-0.891,0-1.452,0.759-1.452,2.276s0.495,2.244,1.353,2.244
			C92.037,33.313,92.433,32.982,92.829,32.422z"/>
		<path d="M100.154,33.411l-0.231,0.627c-0.561-0.065-0.924-0.329-1.056-0.891c-0.396,0.627-0.99,0.891-1.716,0.891
			c-1.122,0-1.815-0.692-1.815-1.749c0-1.221,0.924-1.881,2.475-1.881h0.924v-0.461c0-0.858-0.396-1.188-1.221-1.188
			c-0.429,0-0.957,0.099-1.551,0.33l-0.231-0.66c0.693-0.264,1.32-0.396,1.947-0.396c1.353,0,1.979,0.692,1.979,1.881v2.672
			C99.659,33.147,99.824,33.313,100.154,33.411z M98.735,32.422v-1.354h-0.825c-1.056,0-1.65,0.396-1.65,1.221
			c0,0.693,0.363,1.09,1.056,1.09C97.977,33.346,98.406,33.049,98.735,32.422z"/>
		<path d="M105.566,28.66l-0.462,0.594c-0.396-0.297-0.759-0.43-1.254-0.43c-0.924,0-1.551,0.727-1.551,2.277
			c0,1.518,0.594,2.178,1.551,2.178c0.495,0,0.825-0.165,1.254-0.462l0.429,0.594c-0.495,0.429-1.056,0.627-1.716,0.627
			c-1.518,0-2.475-1.089-2.475-2.97c0-1.848,0.957-3.035,2.475-3.035C104.51,28.066,105.038,28.23,105.566,28.66z"/>
		<path d="M108.074,26.119c0,0.363-0.264,0.627-0.66,0.627s-0.627-0.264-0.627-0.627s0.264-0.627,0.627-0.627
			C107.81,25.492,108.074,25.756,108.074,26.119z M107.875,33.939h-0.924v-5.742h0.924V33.939z"/>
		<path d="M114.64,31.035c0,1.815-0.924,3.003-2.541,3.003s-2.508-1.155-2.508-3.003c0-1.814,0.924-3.002,2.541-3.002
			C113.716,28.066,114.64,29.221,114.64,31.035z M110.581,31.068c0,1.518,0.561,2.244,1.551,2.244c0.99,0,1.551-0.727,1.551-2.277
			c0-1.518-0.561-2.243-1.551-2.243C111.142,28.792,110.581,29.518,110.581,31.068z M113.353,26.02l-2.277,0.923l-0.297-0.494
			l2.145-1.221L113.353,26.02z"/>
		<path d="M120.645,29.814v4.125h-0.923v-3.992c0-0.892-0.363-1.155-0.957-1.155c-0.66,0-1.122,0.429-1.518,1.056v4.092h-0.924
			v-5.742h0.792l0.066,0.858c0.429-0.594,1.023-0.989,1.814-0.989C120.052,28.066,120.645,28.726,120.645,29.814z"/>
		<path d="M126.651,33.939h-0.957v-7.523h0.924v7.523H126.651z"/>
		<path d="M133.151,29.814v4.125h-0.924v-3.992c0-0.892-0.363-1.155-0.957-1.155c-0.66,0-1.121,0.429-1.518,1.056v4.092h-0.924
			v-5.742h0.791l0.066,0.858c0.43-0.594,1.023-0.989,1.814-0.989C132.524,28.066,133.151,28.726,133.151,29.814z"/>
		<path d="M138.034,33.676c-0.363,0.264-0.791,0.396-1.254,0.396c-0.957,0-1.518-0.562-1.518-1.616v-3.564h-0.99v-0.693h0.99v-1.319
			l0.924-0.099v1.418h1.387l-0.1,0.693h-1.287v3.498c0,0.594,0.199,0.891,0.727,0.891c0.264,0,0.527-0.066,0.791-0.264
			L138.034,33.676z"/>
		<path d="M143.215,31.365h-3.697c0.1,1.387,0.727,1.947,1.617,1.947c0.594,0,0.99-0.165,1.518-0.528l0.396,0.562
			c-0.561,0.461-1.188,0.726-1.98,0.726c-1.582,0-2.506-1.122-2.506-2.937s0.891-3.068,2.342-3.068c1.551,0,2.344,1.088,2.344,2.805
			C143.249,31.068,143.249,31.267,143.215,31.365z M142.356,30.606c0-1.155-0.461-1.814-1.418-1.814c-0.793,0-1.32,0.561-1.42,1.913
			h2.805v-0.099H142.356z"/>
		<path d="M147.932,28.132l-0.164,0.892c-0.164-0.033-0.297-0.066-0.494-0.066c-0.727,0-1.156,0.527-1.42,1.649v3.333h-0.924v-5.742
			h0.793l0.098,1.188c0.297-0.892,0.826-1.319,1.551-1.319C147.571,28.066,147.768,28.066,147.932,28.132z"/>
		<path d="M153.444,29.814v4.125h-0.924v-3.992c0-0.892-0.363-1.155-0.957-1.155c-0.66,0-1.123,0.429-1.518,1.056v4.092h-0.924
			v-5.742h0.791l0.066,0.858c0.43-0.594,1.023-0.989,1.814-0.989C152.817,28.066,153.444,28.726,153.444,29.814z"/>
		<path d="M159.778,33.411l-0.23,0.627c-0.561-0.065-0.924-0.329-1.055-0.891c-0.396,0.627-0.99,0.891-1.717,0.891
			c-1.121,0-1.814-0.692-1.814-1.749c0-1.221,0.924-1.881,2.475-1.881h0.924v-0.461c0-0.858-0.396-1.188-1.221-1.188
			c-0.43,0-0.957,0.099-1.551,0.33l-0.23-0.66c0.691-0.264,1.318-0.396,1.945-0.396c1.354,0,1.98,0.692,1.98,1.881v2.672
			C159.284,33.147,159.481,33.313,159.778,33.411z M158.393,32.422v-1.354h-0.824c-1.057,0-1.65,0.396-1.65,1.221
			c0,0.693,0.363,1.09,1.055,1.09C157.6,33.346,158.03,33.049,158.393,32.422z"/>
		<path d="M165.19,28.66l-0.461,0.594c-0.396-0.297-0.76-0.43-1.254-0.43c-0.924,0-1.551,0.727-1.551,2.277
			c0,1.518,0.594,2.178,1.551,2.178c0.494,0,0.824-0.165,1.254-0.462l0.428,0.594c-0.494,0.429-1.055,0.627-1.715,0.627
			c-1.518,0-2.475-1.089-2.475-2.97c0-1.848,0.957-3.035,2.475-3.035C164.135,28.066,164.663,28.23,165.19,28.66z"/>
		<path d="M167.698,26.119c0,0.363-0.264,0.627-0.66,0.627s-0.66-0.264-0.66-0.627s0.264-0.627,0.66-0.627
			S167.698,25.756,167.698,26.119z M167.534,33.939h-0.924v-5.742h0.924V33.939z"/>
		<path d="M174.264,31.035c0,1.815-0.924,3.003-2.541,3.003s-2.508-1.155-2.508-3.003c0-1.814,0.924-3.002,2.541-3.002
			C173.374,28.066,174.264,29.221,174.264,31.035z M170.206,31.068c0,1.518,0.561,2.244,1.551,2.244s1.551-0.727,1.551-2.277
			c0-1.518-0.561-2.243-1.551-2.243S170.206,29.518,170.206,31.068z"/>
		<path d="M180.303,29.814v4.125h-0.924v-3.992c0-0.892-0.363-1.155-0.957-1.155c-0.66,0-1.123,0.429-1.518,1.056v4.092h-0.924
			v-5.742h0.791l0.066,0.858c0.428-0.594,1.023-0.989,1.814-0.989C179.676,28.066,180.303,28.726,180.303,29.814z"/>
		<path d="M186.637,33.411l-0.23,0.627c-0.561-0.065-0.924-0.329-1.055-0.891c-0.396,0.627-0.99,0.891-1.717,0.891
			c-1.121,0-1.814-0.692-1.814-1.749c0-1.221,0.924-1.881,2.475-1.881h0.924v-0.461c0-0.858-0.396-1.188-1.221-1.188
			c-0.43,0-0.957,0.099-1.551,0.33l-0.23-0.66c0.691-0.264,1.318-0.396,1.945-0.396c1.354,0,1.98,0.692,1.98,1.881v2.672
			C186.143,33.147,186.34,33.313,186.637,33.411z M185.252,32.422v-1.354h-0.826c-1.055,0-1.648,0.396-1.648,1.221
			c0,0.693,0.363,1.09,1.055,1.09C184.459,33.346,184.889,33.049,185.252,32.422z"/>
		<path d="M188.221,32.851v-6.962l0.924-0.099v7.062c0,0.329,0.1,0.495,0.396,0.495c0.133,0,0.264-0.033,0.363-0.066l0.23,0.66
			c-0.197,0.099-0.494,0.197-0.758,0.197C188.651,34.071,188.221,33.643,188.221,32.851z"/>
		<path d="M199.045,31.035c0,1.749-0.76,3.003-2.244,3.003c-0.66,0-1.154-0.231-1.518-0.692v2.738l-0.924,0.1v-7.986h0.791
			l0.066,0.793c0.43-0.594,1.023-0.924,1.715-0.924C198.418,28.066,199.045,29.221,199.045,31.035z M198.055,31.035
			c0-1.518-0.463-2.243-1.354-2.243c-0.627,0-1.121,0.462-1.418,0.924v2.87c0.297,0.463,0.758,0.727,1.318,0.727
			C197.559,33.313,198.055,32.586,198.055,31.035z"/>
		<path d="M205.083,33.411l-0.23,0.627c-0.561-0.065-0.924-0.329-1.057-0.891c-0.395,0.627-0.988,0.891-1.715,0.891
			c-1.123,0-1.814-0.692-1.814-1.749c0-1.221,0.924-1.881,2.475-1.881h0.924v-0.461c0-0.858-0.396-1.188-1.221-1.188
			c-0.43,0-0.957,0.099-1.551,0.33l-0.232-0.66c0.693-0.264,1.32-0.396,1.947-0.396c1.354,0,1.98,0.692,1.98,1.881v2.672
			C204.588,33.147,204.786,33.313,205.083,33.411z M203.698,32.422v-1.354h-0.826c-1.055,0-1.648,0.396-1.648,1.221
			c0,0.693,0.361,1.09,1.055,1.09C202.905,33.346,203.334,33.049,203.698,32.422z"/>
		<path d="M209.702,28.132l-0.164,0.892c-0.166-0.033-0.297-0.066-0.494-0.066c-0.727,0-1.156,0.527-1.42,1.649v3.333H206.7v-5.742
			h0.793l0.098,1.188c0.297-0.892,0.826-1.319,1.551-1.319C209.34,28.066,209.538,28.066,209.702,28.132z"/>
		<path d="M214.95,33.411l-0.232,0.627c-0.561-0.065-0.924-0.329-1.055-0.891c-0.396,0.627-0.99,0.891-1.717,0.891
			c-1.121,0-1.814-0.692-1.814-1.749c0-1.221,0.924-1.881,2.475-1.881h0.924v-0.461c0-0.858-0.396-1.188-1.221-1.188
			c-0.43,0-0.957,0.099-1.551,0.33l-0.23-0.66c0.693-0.264,1.32-0.396,1.947-0.396c1.352,0,1.979,0.692,1.979,1.881v2.672
			C214.487,33.147,214.653,33.313,214.95,33.411z M213.563,32.422v-1.354h-0.824c-1.057,0-1.65,0.396-1.65,1.221
			c0,0.693,0.363,1.09,1.057,1.09C212.772,33.346,213.233,33.049,213.563,32.422z"/>
		<path d="M223.758,31.365h-3.695c0.1,1.387,0.727,1.947,1.617,1.947c0.594,0,0.99-0.165,1.518-0.528l0.396,0.562
			c-0.561,0.461-1.188,0.726-1.98,0.726c-1.584,0-2.508-1.122-2.508-2.937s0.891-3.068,2.344-3.068c1.551,0,2.342,1.088,2.342,2.805
			C223.758,31.068,223.758,31.267,223.758,31.365z M222.868,30.606c0-1.155-0.461-1.814-1.418-1.814c-0.793,0-1.32,0.561-1.42,1.913
			h2.805v-0.099H222.868z"/>
		<path d="M225.409,32.851v-6.962l0.924-0.099v7.062c0,0.329,0.1,0.495,0.396,0.495c0.131,0,0.264-0.033,0.363-0.066l0.23,0.66
			c-0.197,0.099-0.494,0.197-0.76,0.197C225.872,34.071,225.409,33.643,225.409,32.851z"/>
		<path d="M76.628,43.211c0,3.068-1.914,3.795-3.498,3.795h-1.749v-7.49h1.551C74.813,39.516,76.628,40.109,76.628,43.211z
			 M72.338,40.274v5.973h0.891c1.188,0,2.409-0.528,2.409-3.036c0-2.573-1.254-2.937-2.475-2.937H72.338z"/>
		<path d="M82.567,44.465h-3.696c0.099,1.387,0.726,1.947,1.617,1.947c0.594,0,0.99-0.165,1.518-0.528l0.396,0.562
			c-0.561,0.461-1.188,0.726-1.98,0.726c-1.583,0-2.508-1.122-2.508-2.937s0.891-3.068,2.343-3.068c1.551,0,2.343,1.088,2.343,2.805
			C82.6,44.168,82.567,44.333,82.567,44.465z M81.676,43.706c0-1.155-0.462-1.814-1.419-1.814c-0.792,0-1.32,0.561-1.418,1.913
			h2.805v-0.099H81.676z"/>
		<path d="M87.715,41.793l-0.396,0.594c-0.528-0.33-0.957-0.495-1.485-0.495c-0.66,0-1.122,0.329-1.122,0.792
			c0,0.462,0.33,0.693,1.287,0.957c1.221,0.33,1.881,0.759,1.881,1.781c0,1.155-1.056,1.716-2.211,1.716
			c-0.957,0-1.65-0.329-2.145-0.759l0.495-0.561c0.462,0.363,0.99,0.561,1.65,0.561c0.759,0,1.287-0.363,1.287-0.924
			c0-0.594-0.297-0.825-1.418-1.122c-1.221-0.329-1.716-0.825-1.716-1.649c0-0.891,0.858-1.551,2.013-1.551
			C86.593,41.133,87.187,41.396,87.715,41.793z"/>
		<path d="M93.654,46.511l-0.231,0.627c-0.561-0.065-0.924-0.329-1.056-0.891c-0.396,0.627-0.99,0.891-1.716,0.891
			c-1.122,0-1.815-0.692-1.815-1.749c0-1.221,0.924-1.881,2.475-1.881h0.924v-0.461c0-0.858-0.396-1.188-1.221-1.188
			c-0.429,0-0.957,0.099-1.551,0.33l-0.231-0.66c0.693-0.264,1.32-0.396,1.947-0.396c1.353,0,1.98,0.692,1.98,1.881v2.672
			C93.159,46.214,93.324,46.379,93.654,46.511z M92.235,45.521v-1.387H91.41c-1.056,0-1.65,0.396-1.65,1.221
			c0,0.693,0.363,1.09,1.056,1.09C91.476,46.445,91.905,46.115,92.235,45.521z"/>
		<path d="M98.273,41.198l-0.165,0.892c-0.165-0.033-0.297-0.066-0.495-0.066c-0.726,0-1.155,0.527-1.419,1.65v3.332h-0.924v-5.741
			h0.792l0.099,1.188c0.297-0.891,0.825-1.319,1.551-1.319C97.911,41.133,98.108,41.166,98.273,41.198z"/>
		<path d="M102.431,41.198l-0.165,0.892c-0.165-0.033-0.297-0.066-0.495-0.066c-0.726,0-1.155,0.527-1.418,1.65v3.332h-0.924v-5.741
			h0.792l0.099,1.188c0.297-0.891,0.825-1.319,1.551-1.319C102.068,41.133,102.266,41.166,102.431,41.198z"/>
		<path d="M108.14,44.135c0,1.815-0.924,3.003-2.541,3.003c-1.617,0-2.508-1.155-2.508-3.003c0-1.814,0.924-3.002,2.541-3.002
			S108.14,42.287,108.14,44.135z M104.081,44.168c0,1.518,0.561,2.244,1.551,2.244s1.551-0.727,1.551-2.277
			c0-1.518-0.561-2.243-1.551-2.243S104.081,42.617,104.081,44.168z"/>
		<path d="M109.79,45.917v-6.962l0.924-0.1v7.062c0,0.33,0.099,0.495,0.396,0.495c0.132,0,0.264-0.033,0.363-0.066l0.231,0.66
			c-0.198,0.1-0.495,0.198-0.759,0.198C110.251,47.138,109.79,46.709,109.79,45.917z"/>
		<path d="M112.99,45.917v-6.962l0.924-0.1v7.062c0,0.33,0.099,0.495,0.396,0.495c0.132,0,0.264-0.033,0.363-0.066l0.231,0.66
			c-0.198,0.1-0.495,0.198-0.759,0.198C113.419,47.138,112.99,46.709,112.99,45.917z"/>
		<path d="M120.711,44.135c0,1.815-0.924,3.003-2.541,3.003c-1.617,0-2.508-1.155-2.508-3.003c0-1.814,0.924-3.002,2.542-3.002
			C119.82,41.133,120.711,42.287,120.711,44.135z M116.653,44.168c0,1.518,0.561,2.244,1.551,2.244c0.989,0,1.551-0.727,1.551-2.277
			c0-1.518-0.562-2.243-1.551-2.243C117.213,41.892,116.653,42.617,116.653,44.168z"/>
		<path d="M129.719,38.955v8.051h-0.793l-0.098-0.792c-0.363,0.562-0.924,0.924-1.684,0.924c-1.385,0-2.145-1.188-2.145-2.97
			c0-1.748,0.824-3.035,2.244-3.035c0.693,0,1.188,0.33,1.551,0.726v-3.003L129.719,38.955z M128.795,45.521v-2.838
			c-0.363-0.463-0.76-0.792-1.354-0.792c-0.891,0-1.451,0.759-1.451,2.276s0.494,2.244,1.352,2.244
			C128.002,46.412,128.399,46.082,128.795,45.521z"/>
		<path d="M136.086,44.465h-3.695c0.1,1.387,0.727,1.947,1.617,1.947c0.594,0,0.99-0.165,1.518-0.528l0.396,0.562
			c-0.561,0.461-1.188,0.726-1.98,0.726c-1.584,0-2.508-1.122-2.508-2.937s0.893-3.068,2.344-3.068c1.551,0,2.342,1.088,2.342,2.805
			C136.086,44.168,136.086,44.333,136.086,44.465z M135.196,43.706c0-1.155-0.461-1.814-1.418-1.814c-0.793,0-1.32,0.561-1.42,1.913
			h2.805v-0.099H135.196z"/>
		<path d="M140.674,45.917v-6.962l0.924-0.1v7.062c0,0.33,0.098,0.495,0.396,0.495c0.131,0,0.264-0.033,0.361-0.066l0.232,0.66
			c-0.199,0.1-0.496,0.198-0.76,0.198C141.102,47.138,140.674,46.709,140.674,45.917z"/>
		<path d="M148.165,46.511l-0.232,0.627c-0.561-0.065-0.924-0.329-1.055-0.891c-0.396,0.627-0.99,0.891-1.717,0.891
			c-1.121,0-1.814-0.692-1.814-1.749c0-1.221,0.924-1.881,2.475-1.881h0.924v-0.461c0-0.858-0.395-1.188-1.221-1.188
			c-0.428,0-0.957,0.099-1.551,0.33l-0.23-0.66c0.693-0.264,1.32-0.396,1.947-0.396c1.352,0,1.979,0.692,1.979,1.881v2.672
			C147.702,46.214,147.868,46.379,148.165,46.511z M146.778,45.521v-1.387h-0.824c-1.057,0-1.65,0.396-1.65,1.221
			c0,0.693,0.363,1.09,1.057,1.09C145.987,46.445,146.448,46.115,146.778,45.521z"/>
		<path d="M153.245,41.793l-0.395,0.594c-0.529-0.33-0.957-0.495-1.486-0.495c-0.658,0-1.121,0.329-1.121,0.792
			c0,0.462,0.33,0.693,1.287,0.957c1.221,0.33,1.881,0.759,1.881,1.781c0,1.155-1.057,1.716-2.211,1.716
			c-0.957,0-1.65-0.329-2.145-0.759l0.494-0.561c0.463,0.363,0.99,0.561,1.65,0.561c0.76,0,1.287-0.363,1.287-0.924
			c0-0.594-0.297-0.825-1.42-1.122c-1.221-0.329-1.715-0.825-1.715-1.649c0-0.891,0.857-1.551,2.012-1.551
			C152.124,41.133,152.684,41.396,153.245,41.793z"/>
		<path d="M163.045,47.006h-1.254l-3.168-6.467c0.066,0.594,0.133,1.451,0.133,2.838v3.629h-0.891v-7.49h1.221l3.199,6.467
			c-0.031-0.197-0.131-1.353-0.131-2.276v-4.19h0.891V47.006L163.045,47.006z"/>
		<path d="M169.479,44.465h-3.695c0.1,1.387,0.727,1.947,1.617,1.947c0.594,0,0.99-0.165,1.518-0.528l0.396,0.562
			c-0.561,0.461-1.188,0.726-1.98,0.726c-1.584,0-2.508-1.122-2.508-2.937s0.891-3.068,2.344-3.068c1.551,0,2.342,1.088,2.342,2.805
			C169.512,44.168,169.479,44.333,169.479,44.465z M168.588,43.706c0-1.155-0.461-1.814-1.418-1.814c-0.793,0-1.32,0.561-1.42,1.913
			h2.805v-0.099H168.588z"/>
		<path d="M175.418,47.006h-0.791l-0.066-0.924c-0.43,0.693-0.957,1.056-1.814,1.056c-1.023,0-1.617-0.627-1.617-1.749v-4.124h0.924
			v4.025c0,0.825,0.297,1.122,0.924,1.122s1.123-0.43,1.484-1.023v-4.124h0.924v5.741H175.418z"/>
		<path d="M180.534,41.198l-0.166,0.892c-0.164-0.033-0.297-0.066-0.494-0.066c-0.727,0-1.154,0.527-1.418,1.65v3.332h-0.924v-5.741
			h0.791l0.1,1.188c0.297-0.891,0.824-1.319,1.551-1.319C180.17,41.133,180.368,41.166,180.534,41.198z"/>
		<path d="M186.243,44.135c0,1.815-0.924,3.003-2.541,3.003s-2.508-1.155-2.508-3.003c0-1.814,0.924-3.002,2.541-3.002
			C185.319,41.133,186.243,42.287,186.243,44.135z M182.151,44.168c0,1.518,0.561,2.244,1.551,2.244s1.551-0.727,1.551-2.277
			c0-1.518-0.561-2.243-1.551-2.243C182.745,41.892,182.151,42.617,182.151,44.168z"/>
		<path d="M191.719,41.76l-0.461,0.594c-0.396-0.297-0.76-0.43-1.254-0.43c-0.924,0-1.551,0.727-1.551,2.277
			c0,1.518,0.594,2.178,1.551,2.178c0.494,0,0.824-0.165,1.254-0.462l0.428,0.594c-0.494,0.429-1.055,0.627-1.715,0.627
			c-1.518,0-2.475-1.089-2.475-2.97c0-1.848,0.957-3.035,2.475-3.035C190.663,41.133,191.192,41.33,191.719,41.76z"/>
		<path d="M194.227,39.186c0,0.363-0.264,0.627-0.66,0.627s-0.627-0.264-0.627-0.627s0.264-0.627,0.627-0.627
			C193.963,38.559,194.227,38.855,194.227,39.186z M194.063,47.006h-0.924v-5.741h0.924V47.006z"/>
		<path d="M200.43,44.465h-3.695c0.1,1.387,0.727,1.947,1.617,1.947c0.594,0,0.99-0.165,1.518-0.528l0.396,0.562
			c-0.563,0.461-1.188,0.726-1.98,0.726c-1.584,0-2.508-1.122-2.508-2.937s0.891-3.068,2.344-3.068c1.551,0,2.342,1.088,2.342,2.805
			C200.43,44.168,200.43,44.333,200.43,44.465z M199.54,43.706c0-1.155-0.463-1.814-1.418-1.814c-0.793,0-1.32,0.561-1.42,1.913
			h2.805v-0.099H199.54z"/>
		<path d="M206.436,42.914v4.125h-0.891v-3.992c0-0.892-0.363-1.155-0.957-1.155c-0.66,0-1.123,0.429-1.518,1.056v4.092h-0.924
			v-5.742h0.791l0.066,0.858c0.43-0.594,1.023-0.989,1.814-0.989C205.842,41.133,206.436,41.793,206.436,42.914z"/>
		<path d="M212.309,41.76l-0.461,0.594c-0.396-0.297-0.76-0.43-1.254-0.43c-0.924,0-1.551,0.727-1.551,2.277
			c0,1.518,0.594,2.178,1.551,2.178c0.494,0,0.824-0.165,1.254-0.462l0.428,0.594c-0.494,0.429-1.055,0.627-1.715,0.627
			c-1.518,0-2.475-1.089-2.475-2.97c0-1.848,0.957-3.035,2.475-3.035C211.252,41.133,211.782,41.33,212.309,41.76z"/>
		<path d="M214.817,39.186c0,0.363-0.264,0.627-0.66,0.627s-0.66-0.264-0.66-0.627s0.264-0.627,0.66-0.627
			S214.817,38.855,214.817,39.186z M214.62,47.006h-0.924v-5.741h0.924V47.006z"/>
		<path d="M221.02,46.511l-0.23,0.627c-0.561-0.065-0.924-0.329-1.057-0.891c-0.395,0.627-0.99,0.891-1.715,0.891
			c-1.123,0-1.814-0.692-1.814-1.749c0-1.221,0.924-1.881,2.475-1.881h0.924v-0.461c0-0.858-0.396-1.188-1.221-1.188
			c-0.43,0-0.957,0.099-1.551,0.33l-0.232-0.66c0.693-0.264,1.32-0.396,1.947-0.396c1.354,0,1.98,0.692,1.98,1.881v2.672
			C220.559,46.214,220.723,46.379,221.02,46.511z M219.635,45.521v-1.387h-0.826c-1.055,0-1.648,0.396-1.648,1.221
			c0,0.693,0.361,1.09,1.055,1.09C218.842,46.445,219.305,46.115,219.635,45.521z"/>
		<path d="M226.102,41.793l-0.396,0.594c-0.527-0.33-0.957-0.495-1.484-0.495c-0.66,0-1.123,0.329-1.123,0.792
			c0,0.462,0.33,0.693,1.287,0.957c1.221,0.33,1.881,0.759,1.881,1.781c0,1.155-1.055,1.716-2.211,1.716
			c-0.957,0-1.648-0.329-2.145-0.759l0.496-0.561c0.461,0.363,0.99,0.561,1.648,0.561c0.76,0,1.287-0.363,1.287-0.924
			c0-0.594-0.297-0.825-1.418-1.122c-1.221-0.329-1.717-0.825-1.717-1.649c0-0.891,0.859-1.551,2.014-1.551
			C224.948,41.133,225.542,41.396,226.102,41.793z"/>
	</g>
</g>
</svg>
