<svg xmlns="http://www.w3.org/2000/svg" viewBox="0 0 30.99 31"><defs><style>.cls-1{fill:none;stroke:#333b97;stroke-miterlimit:10;}</style></defs><title>mail</title><g id="Layer_2" data-name="Layer 2"><g id="Layer_1-2" data-name="Layer 1"><path class="cls-1" d="M30.48,1.76,26.19,27.47a1.07,1.07,0,0,1-1.05.89,1.13,1.13,0,0,1-.4-.08l-7.58-3.1-4.05,4.94a1,1,0,0,1-.82.38.94.94,0,0,1-.37-.07,1.07,1.07,0,0,1-.7-1V23.58L25.68,5.86,7.78,21.34,1.17,18.63a1.06,1.06,0,0,1-.67-.92,1.08,1.08,0,0,1,.54-1L28.89.65A1,1,0,0,1,29.43.5a1.07,1.07,0,0,1,.6.18A1.08,1.08,0,0,1,30.48,1.76Z"/></g></g></svg>