<svg xmlns="http://www.w3.org/2000/svg" viewBox="0 0 24.57 24.57"><defs><style>.cls-1{fill:none;stroke:#333b97;stroke-miterlimit:10;}</style></defs><title>phone</title><g id="Layer_2" data-name="Layer 2"><g id="Layer_1-2" data-name="Layer 1"><path class="cls-1" d="M23.55,21.44a4.41,4.41,0,0,1-2,1.77,6.4,6.4,0,0,1-3.11.85A12.88,12.88,0,0,1,14,22.91a15.69,15.69,0,0,1-2.93-1.39,28.26,28.26,0,0,1-8-8,15.68,15.68,0,0,1-1.39-2.93A12.89,12.89,0,0,1,.5,6.17a6.39,6.39,0,0,1,.85-3.11A4.41,4.41,0,0,1,3.13,1,7.46,7.46,0,0,1,5.46.5a.86.86,0,0,1,.35,0c.35.12.72.94.89,1.27.54,1,1.05,1.92,1.61,2.86.27.44.77,1,.77,1.49,0,1-3,2.51-3,3.41A3.59,3.59,0,0,0,6.69,11a16.65,16.65,0,0,0,6.85,6.85,3.59,3.59,0,0,0,1.44.65c.9,0,2.39-3,3.41-3,.52,0,1.05.5,1.49.77.94.55,1.91,1.07,2.86,1.61.33.17,1.16.54,1.27.89a.86.86,0,0,1,0,.35A7.46,7.46,0,0,1,23.55,21.44Z"/></g></g></svg>