<svg xmlns="http://www.w3.org/2000/svg" xmlns:xlink="http://www.w3.org/1999/xlink" viewBox="0 0 209.36 209.36"><defs><style>.cls-1{fill:url(#linear-gradient);}.cls-2{fill:url(#linear-gradient-2);}.cls-3{fill:url(#linear-gradient-3);}.cls-4{fill:url(#linear-gradient-4);}.cls-5{fill:#fff;}</style><linearGradient id="linear-gradient" y1="104.68" x2="209.36" y2="104.68" gradientUnits="userSpaceOnUse"><stop offset="0" stop-color="#a6fcd0"/><stop offset="1" stop-color="#4dffa1"/></linearGradient><linearGradient id="linear-gradient-2" x1="21.07" y1="116.83" x2="44.45" y2="116.83" gradientTransform="matrix(1, 0.39, 0, 1, 0, -22.43)" gradientUnits="userSpaceOnUse"><stop offset="0" stop-color="#5158d1"/><stop offset="1" stop-color="#333b88"/></linearGradient><linearGradient id="linear-gradient-3" x1="186.98" y1="52.33" x2="210.36" y2="52.33" gradientTransform="matrix(-1, 0.39, 0, 1, 375.8, -22.43)" xlink:href="#linear-gradient-2"/><linearGradient id="linear-gradient-4" x1="32.2" y1="105.96" x2="177.15" y2="105.96" gradientTransform="matrix(1, 0, 0, 1, 0, 0)" xlink:href="#linear-gradient-2"/></defs><title>realidad-virtual</title><g id="Capa_2" data-name="Capa 2"><g id="Investigación"><circle class="cls-1" cx="104.68" cy="104.68" r="104.68"/><path class="cls-2" d="M34.28,124.44l-3.05-.6A13,13,0,0,1,21.07,111.7V98c0-5.59,4.57-9.27,10.16-8.19l3.05.59a13,13,0,0,1,10.17,12.14v13.68C44.45,121.84,39.87,125.52,34.28,124.44Z"/><path class="cls-3" d="M175.61,124.44l3-.6a13,13,0,0,0,10.16-12.14V98c0-5.59-4.57-9.27-10.16-8.19l-3,.59a13,13,0,0,0-10.17,12.14v13.68C165.44,121.84,170,125.52,175.61,124.44Z"/><path class="cls-4" d="M163.58,70.66H45.76c-7.46,0-13.56,7.86-13.56,17.46V123.8c0,9.59,6.1,17.45,13.56,17.45H86.34a2.65,2.65,0,0,0,2.29-2.34c2-9,8.41-15.57,16-15.57s14,6.58,16,15.57a2.65,2.65,0,0,0,2.29,2.34h40.58c7.46,0,13.57-7.86,13.57-17.45V88.12C177.15,78.52,171,70.66,163.58,70.66Z"/><path class="cls-5" d="M154.89,80.39H140.56v51h14.33c6.21,0,11.29-6.54,11.29-14.53V94.92C166.18,86.93,161.1,80.39,154.89,80.39Z"/><rect class="cls-5" x="62.76" y="80.39" width="14.3" height="50.99"/><rect class="cls-5" x="51.35" y="80.39" width="3.74" height="50.99"/></g></g></svg>